<?xml version="1.0" encoding="UTF-8"?>
<!-- Created with EazyDraw for Mac ( http://www.eazydraw.com/ ) -->

<svg
    version="1.1"
    xmlns:dc="http://purl.org/dc/elements/1.1/"
    xmlns:cc="http://creativecommons.org/ns#"
    xmlns:rdf="http://www.w3.org/1999/02/22-rdf-syntax-ns#"
    xmlns:svg="http://www.w3.org/2000/svg"
    xmlns:xlink="http://www.w3.org/1999/xlink"
    xmlns="http://www.w3.org/2000/svg"
    width="252.731038118"
    height="316.472520486"
    viewBox="0, 0, 252.731038118, 316.472520486"
    preserveAspectRatio="none"
    id="svg2">
   <defs
       id="defs_547F795B"/>
   <metadata
       id="metadata7">
      <rdf:RDF>
         <cc:Work
             rdf:about="">
            <dc:format>image/svg+xml</dc:format>
            <dc:type rdf:resource="http://purl.org/dc/dcmitype/StillImage"/>
            <dc:title></dc:title>
         </cc:Work>
      </rdf:RDF>
   </metadata>
   <g
       id="layer_Paper"
       style="fill:#000000;fill-opacity:1;stroke:#000000;stroke-opacity:1;fill-rule:nonzero;stroke-linecap:square;stroke-linejoin:miter;stroke-width:1;stroke-miterlimit:10">
      <g
          id="vectorGradient_D2E8855B">
         <g
             id="gradientWithClip_D2E8855B">
            <clipPath
                id="gradientClip_D2E8855B_clip">
               <path
                   d="M246.827887823,160.585501976 C246.829481598,153.564633578 246.084865932,146.545301317 244.637556803,139.73234897 C243.192989061,132.917994798 241.047484174,126.312491157 238.319294244,120.082262484 C235.592727012,113.84974681 232.28613035,107.993551689 228.5617328,102.617562886
C224.837664274,97.2391315604 220.698259572,92.3405034252 216.31431085,87.9590035763 C211.929673103,83.5754919902 207.302077668,79.7078287388 202.583201212,76.3387638323 C197.863090695,72.9683851631 193.052300853,70.0951262637 188.268743779,67.666305494
C183.483836585,65.2368518401 178.726044579,63.2506076549 174.07655749,61.6379907335 C169.42587539,60.0252533546 164.883013717,58.7853243365 160.496791997,57.8455774106 C156.109644229,56.9060235557 151.878556719,56.2662116761 147.827345959,55.8588937864
C143.775486276,55.451919223 139.902979886,55.2772712605 136.216171296,55.2770792964 C132.529362706,55.2772712605 128.656856317,55.451919223 124.604996633,55.8588937864 C120.553785873,56.2662116761 116.322698363,56.9060235557 111.935550595,57.8455774106
C107.549328876,58.7853243365 103.006467203,60.0252533546 98.3557851027,61.6379907335 C93.7062980135,63.2506076549 88.9485060073,65.2368518401 84.1635988133,67.666305494 C79.3800417396,70.0951262637 74.5692518972,72.9683851631 69.8491413804,76.3387638323
C65.1302649244,79.7078287388 60.5026694901,83.5754919902 56.1180317427,87.9590035763 C51.7340830211,92.3405034252 47.5946783183,97.2391315604 43.8706097926,102.617562886 C40.1462122422,107.993551689 36.8396155806,113.84974681 34.1130483488,120.082262484
C31.384858419,126.312491157 29.2393535315,132.917994798 27.7947857902,139.73234897 C26.3474766602,146.545301317 25.6028609948,153.564633578 25.6044547698,160.585501976 C25.6028609948,167.606370374 26.3474766602,174.625702635 27.7947857902,181.438654982
C29.2393535315,188.253009154 31.384858419,194.858512795 34.1130483488,201.088741468 C36.8396155806,207.321257142 40.1462122422,213.177452262 43.8706097926,218.553441066 C47.5946783183,223.931872391 51.7340830211,228.830500527 56.1180317427,233.212000376
C60.5026694901,237.595511962 65.1302649244,241.463175213 69.8491413804,244.83224012 C74.5692518972,248.202618789 79.3800417396,251.075877688 84.1635988133,253.504698458 C88.9485060073,255.934152112 93.7062980135,257.920396297 98.3557851027,259.533013218
C103.006467203,261.145750597 107.549328876,262.385679615 111.935550595,263.325426541 C116.322698363,264.264980396 120.553785873,264.904792276 124.604996633,265.312110165 C128.656856317,265.719084729 132.529362706,265.893732691 136.216171296,265.893924655
C139.902979886,265.893732691 143.775486276,265.719084729 147.827345959,265.312110165 C151.878556719,264.904792276 156.109644229,264.264980396 160.496791997,263.325426541 C164.883013717,262.385679615 169.42587539,261.145750597 174.07655749,259.533013218
C178.726044579,257.920396297 183.483836585,255.934152112 188.268743779,253.504698458 C193.052300853,251.075877688 197.863090695,248.202618789 202.583201212,244.83224012 C207.302077668,241.463175213 211.929673103,237.595511962 216.31431085,233.212000376
C220.698259572,228.830500527 224.837664274,223.931872391 228.5617328,218.553441066 C232.28613035,213.177452262 235.592727012,207.321257142 238.319294244,201.088741468 C241.047484174,194.858512795 243.192989061,188.253009154 244.637556803,181.438654982
C246.084865932,174.625702635 246.829481598,167.606370374 246.827887823,160.585501976 z"
                   clip-rule="nonzero"/>
            </clipPath>
            <g
                id="gradientVectors_D2E8855B"
                clip-path="url(#gradientClip_D2E8855B_clip)"
                style="fill:none;stroke-linecap:round;stroke-linejoin:bevel;stroke-width:1.333164541404">
               <path id="gv_D2E8855B_0" d="M250.357946445,86.4126342581 C303.353340065,139.408027877 303.353340065,225.330537667 250.357946445,278.325931286 C197.362552826,331.321324906 111.440043036,331.321324906 58.4446494171,278.325931286 C5.44925579791,225.330537667 5.44925579791,139.408027877 58.4446494171,86.4126342581
C111.440043036,33.4172406389 197.362552826,33.4172406389 250.357946445,86.4126342581" style="stroke:#000000"/>
               <path id="gv_D2E8855B_1" d="M249.393558018,87.3770226854 C301.856334616,139.839799283 301.856334616,224.898766261 249.393558018,277.361542859 C196.93078142,329.824319457 111.871814442,329.824319457 59.4090378444,277.361542859 C6.946261246487,224.898766261 6.946261246487,139.839799283 59.4090378444,87.3770226854
C111.871814442,34.9142460874 196.93078142,34.9142460874 249.393558018,87.3770226854" style="stroke:#000000"/>
               <path id="gv_D2E8855B_2" d="M248.429169591,88.3414111127 C300.359329168,140.271570689 300.359329168,224.466994855 248.429169591,276.397154432 C196.499010014,328.327314008 112.303585848,328.327314008 60.3734262717,276.397154432 C8.443266695064,224.466994855 8.443266695064,140.271570689 60.3734262717,88.3414111127
C112.303585848,36.411251536 196.499010014,36.411251536 248.429169591,88.3414111127" style="stroke:#050000"/>
               <path id="gv_D2E8855B_3" d="M247.464781164,89.3057995399 C298.862323719,140.703342095 298.862323719,224.035223449 247.464781164,275.432766005 C196.067238608,326.83030856 112.735357254,326.83030856 61.337814699,275.432766005 C9.940272143641,224.035223449 9.94027214364,140.703342095 61.337814699,89.3057995399
C112.735357254,37.9082569846 196.067238608,37.9082569846 247.464781164,89.3057995399" style="stroke:#080000"/>
               <path id="gv_D2E8855B_4" d="M246.500392736,90.2701879672 C297.36531827,141.135113501 297.36531827,223.603452043 246.500392736,274.468377577 C195.635467202,325.333303111 113.16712866,325.333303111 62.3022031263,274.468377577 C11.4372775922,223.603452043 11.4372775922,141.135113501 62.3022031263,90.2701879672
C113.16712866,39.4052624332 195.635467202,39.4052624332 246.500392736,90.2701879672" style="stroke:#0A0000"/>
               <path id="gv_D2E8855B_5" d="M245.536004309,91.2345763945 C295.868312822,141.566884907 295.868312822,223.171680637 245.536004309,273.50398915 C195.203695796,323.836297663 113.598900066,323.836297663 63.2665915535,273.50398915 C12.9342830408,223.171680637 12.9342830408,141.566884907 63.2665915535,91.2345763945
C113.598900066,40.9022678817 195.203695796,40.9022678817 245.536004309,91.2345763945" style="stroke:#0D0000"/>
               <path id="gv_D2E8855B_6" d="M244.571615882,92.1989648218 C294.371307373,141.998656313 294.371307373,222.739909231 244.571615882,272.539600723 C194.77192439,322.339292214 114.030671472,322.339292214 64.2309799808,272.539600723 C14.4312884894,222.739909231 14.4312884894,141.998656313 64.2309799808,92.1989648218
C114.030671472,42.3992733303 194.77192439,42.3992733303 244.571615882,92.1989648218" style="stroke:#0F0000"/>
               <path id="gv_D2E8855B_7" d="M243.607227454,93.163353249 C292.874301925,142.430427719 292.874301925,222.308137825 243.607227454,271.575212295 C194.340152984,320.842286766 114.462442878,320.842286766 65.1953684081,271.575212295 C15.9282939379,222.308137825 15.9282939379,142.430427719 65.1953684081,93.163353249
C114.462442878,43.8962787789 194.340152984,43.8962787789 243.607227454,93.163353249" style="stroke:#120000"/>
               <path id="gv_D2E8855B_8" d="M242.642839027,94.1277416763 C291.377296476,142.862199125 291.377296476,221.876366419 242.642839027,270.610823868 C193.908381578,319.345281317 114.894214284,319.345281317 66.1597568354,270.610823868 C17.4252993865,221.876366419 17.4252993865,142.862199125 66.1597568354,94.1277416763
C114.894214284,45.3932842275 193.908381578,45.3932842275 242.642839027,94.1277416763" style="stroke:#150000"/>
               <path id="gv_D2E8855B_9" d="M241.6784506,95.0921301036 C289.880291027,143.293970531 289.880291027,221.444595013 241.6784506,269.646435441 C193.476610172,317.848275868 115.32598569,317.848275868 67.1241452626,269.646435441 C18.9223048351,221.444595013 18.9223048351,143.293970531 67.1241452626,95.0921301036
C115.32598569,46.890289676 193.476610172,46.890289676 241.6784506,95.0921301036" style="stroke:#170000"/>
               <path id="gv_D2E8855B_10" d="M240.714062173,96.0565185309 C288.383285579,143.725741937 288.383285579,221.012823607 240.714062173,268.682047014 C193.044838766,316.35127042 115.757757096,316.35127042 68.0885336899,268.682047014 C20.4193102837,221.012823607 20.4193102837,143.725741937 68.0885336899,96.0565185309
C115.757757096,48.3872951246 193.044838766,48.3872951246 240.714062173,96.0565185309" style="stroke:#1A0000"/>
               <path id="gv_D2E8855B_11" d="M239.749673745,97.0209069582 C286.88628013,144.157513343 286.88628013,220.581052201 239.749673745,267.717658586 C192.61306736,314.854264971 116.189528502,314.854264971 69.0529221172,267.717658586 C21.9163157323,220.581052201 21.9163157323,144.157513343 69.0529221172,97.0209069582
C116.189528502,49.8843005732 192.61306736,49.8843005732 239.749673745,97.0209069582" style="stroke:#1C0000"/>
               <path id="gv_D2E8855B_12" d="M238.785285318,97.9852953854 C285.389274682,144.589284749 285.389274682,220.149280795 238.785285318,266.753270159 C192.181295954,313.357259523 116.621299908,313.357259523 70.0173105445,266.753270159 C23.4133211808,220.149280795 23.4133211808,144.589284749 70.0173105445,97.9852953854
C116.621299908,51.3813060218 192.181295954,51.3813060218 238.785285318,97.9852953854" style="stroke:#1F0000"/>
               <path id="gv_D2E8855B_13" d="M237.820896891,98.9496838127 C283.892269233,145.021056155 283.892269233,219.717509389 237.820896891,265.788881732 C191.749524548,311.860254074 117.053071314,311.860254074 70.9816989718,265.788881732 C24.9103266294,219.717509389 24.9103266294,145.021056155 70.9816989718,98.9496838127
C117.053071314,52.8783114704 191.749524548,52.8783114704 237.820896891,98.9496838127" style="stroke:#210000"/>
               <path id="gv_D2E8855B_14" d="M236.856508464,99.91407224 C282.395263785,145.452827561 282.395263785,219.285737983 236.856508464,264.824493304 C191.317753142,310.363248626 117.48484272,310.363248626 71.946087399,264.824493304 C26.407332078,219.285737983 26.407332078,145.452827561 71.946087399,99.91407224
C117.48484272,54.3753169189 191.317753142,54.3753169189 236.856508464,99.91407224" style="stroke:#240000"/>
               <path id="gv_D2E8855B_15" d="M235.892120036,100.878460667 C280.898258336,145.884598967 280.898258336,218.853966577 235.892120036,263.860104877 C190.885981737,308.866243177 117.916614126,308.866243177 72.9104758263,263.860104877 C27.9043375266,218.853966577 27.9043375266,145.884598967 72.9104758263,100.878460667
C117.916614126,55.8723223675 190.885981737,55.8723223675 235.892120036,100.878460667" style="stroke:#270000"/>
               <path id="gv_D2E8855B_16" d="M234.927731609,101.842849095 C279.401252887,146.316370373 279.401252887,218.422195171 234.927731609,262.89571645 C190.454210331,307.369237728 118.348385532,307.369237728 73.8748642536,262.89571645 C29.4013429751,218.422195171 29.4013429751,146.316370373 73.8748642536,101.842849095
C118.348385532,57.3693278161 190.454210331,57.3693278161 234.927731609,101.842849095" style="stroke:#290000"/>
               <path id="gv_D2E8855B_17" d="M233.963343182,102.807237522 C277.904247439,146.748141779 277.904247439,217.990423766 233.963343182,261.931328023 C190.022438925,305.87223228 118.780156938,305.87223228 74.8392526809,261.931328023 C30.8983484237,217.990423766 30.8983484237,146.748141779 74.8392526809,102.807237522
C118.780156938,58.8663332647 190.022438925,58.8663332647 233.963343182,102.807237522" style="stroke:#2C0000"/>
               <path id="gv_D2E8855B_18" d="M232.998954754,103.771625949 C276.40724199,147.179913185 276.40724199,217.55865236 232.998954754,260.966939595 C189.590667519,304.375226831 119.211928344,304.375226831 75.8036411081,260.966939595 C32.3953538723,217.55865236 32.3953538723,147.179913185 75.8036411081,103.771625949
C119.211928344,60.3633387132 189.590667519,60.3633387132 232.998954754,103.771625949" style="stroke:#2E0000"/>
               <path id="gv_D2E8855B_19" d="M232.034566327,104.736014376 C274.910236542,147.611684591 274.910236542,217.126880954 232.034566327,260.002551168 C189.158896113,302.878221383 119.64369975,302.878221383 76.7680295354,260.002551168 C33.8923593209,217.126880954 33.8923593209,147.611684591 76.7680295354,104.736014376
C119.64369975,61.8603441618 189.158896113,61.8603441618 232.034566327,104.736014376" style="stroke:#310000"/>
               <path id="gv_D2E8855B_20" d="M231.0701779,105.700402804 C273.413231093,148.043455997 273.413231093,216.695109548 231.0701779,259.038162741 C188.727124707,301.381215934 120.075471156,301.381215934 77.7324179627,259.038162741 C35.3893647694,216.695109548 35.3893647694,148.043455997 77.7324179627,105.700402804
C120.075471156,63.3573496104 188.727124707,63.3573496104 231.0701779,105.700402804" style="stroke:#340000"/>
               <path id="gv_D2E8855B_21" d="M230.105789473,106.664791231 C271.916225645,148.475227403 271.916225645,216.263338142 230.105789473,258.073774314 C188.295353301,299.884210486 120.507242562,299.884210486 78.69680639,258.073774314 C36.886370218,216.263338142 36.886370218,148.475227403 78.69680639,106.664791231
C120.507242562,64.854355059 188.295353301,64.854355059 230.105789473,106.664791231" style="stroke:#360000"/>
               <path id="gv_D2E8855B_22" d="M229.141401045,107.629179658 C270.419220196,148.906998809 270.419220196,215.831566736 229.141401045,257.109385886 C187.863581895,298.387205037 120.939013968,298.387205037 79.6611948173,257.109385886 C38.3833756666,215.831566736 38.3833756666,148.906998809 79.6611948173,107.629179658
C120.939013968,66.3513605075 187.863581895,66.3513605075 229.141401045,107.629179658" style="stroke:#390000"/>
               <path id="gv_D2E8855B_23" d="M228.177012618,108.593568085 C268.922214747,149.338770215 268.922214747,215.39979533 228.177012618,256.144997459 C187.431810489,296.890199588 121.370785374,296.890199588 80.6255832445,256.144997459 C39.8803811152,215.39979533 39.8803811152,149.338770215 80.6255832445,108.593568085
C121.370785374,67.8483659561 187.431810489,67.8483659561 228.177012618,108.593568085" style="stroke:#3B0000"/>
               <path id="gv_D2E8855B_24" d="M227.212624191,109.557956513 C267.425209299,149.770541621 267.425209299,214.968023924 227.212624191,255.180609032 C187.000039083,295.39319414 121.80255678,295.39319414 81.5899716718,255.180609032 C41.3773865638,214.968023924 41.3773865638,149.770541621 81.5899716718,109.557956513
C121.80255678,69.3453714047 187.000039083,69.3453714047 227.212624191,109.557956513" style="stroke:#3E0000"/>
               <path id="gv_D2E8855B_25" d="M226.248235763,110.52234494 C265.92820385,150.202313027 265.92820385,214.536252518 226.248235763,254.216220604 C186.568267677,293.896188691 122.234328186,293.896188691 82.5543600991,254.216220604 C42.8743920123,214.536252518 42.8743920123,150.202313027 82.5543600991,110.52234494
C122.234328186,70.8423768533 186.568267677,70.8423768533 226.248235763,110.52234494" style="stroke:#400000"/>
               <path id="gv_D2E8855B_26" d="M225.283847336,111.486733367 C264.431198402,150.634084433 264.431198402,214.104481112 225.283847336,253.251832177 C186.136496271,292.399183243 122.666099592,292.399183243 83.5187485264,253.251832177 C44.3713974609,214.104481112 44.3713974609,150.634084433 83.5187485264,111.486733367
C122.666099592,72.3393823019 186.136496271,72.3393823019 225.283847336,111.486733367" style="stroke:#430000"/>
               <path id="gv_D2E8855B_27" d="M224.319458909,112.451121795 C262.934192953,151.065855839 262.934192953,213.672709706 224.319458909,252.28744375 C185.704724865,290.902177794 123.097870998,290.902177794 84.4831369536,252.28744375 C45.8684029095,213.672709706 45.8684029095,151.065855839 84.4831369536,112.451121795
C123.097870998,73.8363877504 185.704724865,73.8363877504 224.319458909,112.451121795" style="stroke:#460000"/>
               <path id="gv_D2E8855B_28" d="M223.355070482,113.415510222 C261.437187505,151.497627245 261.437187505,213.2409383 223.355070482,251.323055323 C185.272953459,289.405172345 123.529642404,289.405172345 85.4475253809,251.323055323 C47.3654083581,213.2409383 47.3654083581,151.497627245 85.4475253809,113.415510222
C123.529642404,75.333393199 185.272953459,75.333393199 223.355070482,113.415510222" style="stroke:#480000"/>
               <path id="gv_D2E8855B_29" d="M222.390682054,114.379898649 C259.940182056,151.929398651 259.940182056,212.809166894 222.390682054,250.358666895 C184.841182053,287.908166897 123.96141381,287.908166897 86.4119138082,250.358666895 C48.8624138066,212.809166894 48.8624138066,151.929398651 86.4119138082,114.379898649
C123.96141381,76.8303986476 184.841182053,76.8303986476 222.390682054,114.379898649" style="stroke:#4B0000"/>
               <path id="gv_D2E8855B_30" d="M221.426293627,115.344287076 C258.443176607,152.361170057 258.443176607,212.377395488 221.426293627,249.394278468 C184.409410647,286.411161448 124.393185216,286.411161448 87.3763022355,249.394278468 C50.3594192552,212.377395488 50.3594192552,152.361170057 87.3763022355,115.344287076
C124.393185216,78.3274040962 184.409410647,78.3274040962 221.426293627,115.344287076" style="stroke:#4D0000"/>
               <path id="gv_D2E8855B_31" d="M220.4619052,116.308675504 C256.946171159,152.792941463 256.946171159,211.945624082 220.4619052,248.429890041 C183.977639241,284.914156 124.824956622,284.914156 88.3406906628,248.429890041 C51.8564247038,211.945624082 51.8564247038,152.792941463 88.3406906628,116.308675504
C124.824956622,79.8244095447 183.977639241,79.8244095447 220.4619052,116.308675504" style="stroke:#500000"/>
               <path id="gv_D2E8855B_32" d="M219.497516773,117.273063931 C255.44916571,153.224712869 255.44916571,211.513852676 219.497516773,247.465501613 C183.545867835,283.417150551 125.256728028,283.417150551 89.30507909,247.465501613 C53.3534301524,211.513852676 53.3534301524,153.224712869 89.30507909,117.273063931
C125.256728028,81.3214149933 183.545867835,81.3214149933 219.497516773,117.273063931" style="stroke:#520000"/>
               <path id="gv_D2E8855B_33" d="M218.533128345,118.237452358 C253.952160262,153.656484275 253.952160262,211.08208127 218.533128345,246.501113186 C183.114096429,281.920145103 125.688499434,281.920145103 90.2694675173,246.501113186 C54.8504356009,211.08208127 54.8504356009,153.656484275 90.2694675173,118.237452358
C125.688499434,82.8184204419 183.114096429,82.8184204419 218.533128345,118.237452358" style="stroke:#550000"/>
               <path id="gv_D2E8855B_34" d="M217.568739918,119.201840786 C252.455154813,154.088255681 252.455154813,210.650309864 217.568739918,245.536724759 C182.682325023,280.423139654 126.12027084,280.423139654 91.2338559446,245.536724759 C56.3474410495,210.650309864 56.3474410495,154.088255681 91.2338559446,119.201840786
C126.12027084,84.3154258905 182.682325023,84.3154258905 217.568739918,119.201840786" style="stroke:#580000"/>
               <path id="gv_D2E8855B_35" d="M216.604351491,120.166229213 C250.958149364,154.520027087 250.958149364,210.218538458 216.604351491,244.572336332 C182.250553617,278.926134205 126.552042246,278.926134205 92.1982443719,244.572336332 C57.8444464981,210.218538458 57.8444464981,154.520027087 92.1982443719,120.166229213
C126.552042246,85.812431339 182.250553617,85.812431339 216.604351491,120.166229213" style="stroke:#5A0000"/>
               <path id="gv_D2E8855B_36" d="M215.639963063,121.13061764 C249.461143916,154.951798493 249.461143916,209.786767052 215.639963063,243.607947904 C181.818782211,277.429128757 126.983813652,277.429128757 93.1626327991,243.607947904 C59.3414519467,209.786767052 59.3414519467,154.951798493 93.1626327991,121.13061764
C126.983813652,87.3094367876 181.818782211,87.3094367876 215.639963063,121.13061764" style="stroke:#5D0000"/>
               <path id="gv_D2E8855B_37" d="M214.675574636,122.095006067 C247.964138467,155.383569899 247.964138467,209.354995646 214.675574636,242.643559477 C181.387010805,275.932123308 127.415585058,275.932123308 94.1270212264,242.643559477 C60.8384573952,209.354995646 60.8384573952,155.383569899 94.1270212264,122.095006067
C127.415585058,88.8064422362 181.387010805,88.8064422362 214.675574636,122.095006067" style="stroke:#5F0000"/>
               <path id="gv_D2E8855B_38" d="M213.711186209,123.059394495 C246.467133019,155.815341305 246.467133019,208.92322424 213.711186209,241.67917105 C180.955239399,274.43511786 127.847356464,274.43511786 95.0914096537,241.67917105 C62.3354628438,208.92322424 62.3354628438,155.815341305 95.0914096537,123.059394495
C127.847356464,90.3034476848 180.955239399,90.3034476848 213.711186209,123.059394495" style="stroke:#620000"/>
               <path id="gv_D2E8855B_39" d="M212.746797782,124.023782922 C244.97012757,156.247112711 244.97012757,208.491452834 212.746797782,240.714782623 C180.523467993,272.938112411 128.27912787,272.938112411 96.055798081,240.714782623 C63.8324682924,208.491452834 63.8324682924,156.247112711 96.055798081,124.023782922
C128.27912787,91.8004531334 180.523467993,91.8004531334 212.746797782,124.023782922" style="stroke:#640000"/>
               <path id="gv_D2E8855B_40" d="M211.782409354,124.988171349 C243.473122122,156.678884116 243.473122122,208.059681428 211.782409354,239.750394195 C180.091696587,271.441106963 128.710899276,271.441106963 97.0201865083,239.750394195 C65.329473741,208.059681428 65.329473741,156.678884116 97.0201865083,124.988171349
C128.710899276,93.2974585819 180.091696587,93.2974585819 211.782409354,124.988171349" style="stroke:#670000"/>
               <path id="gv_D2E8855B_41" d="M210.818020927,125.952559776 C241.976116673,157.110655522 241.976116673,207.627910022 210.818020927,238.786005768 C179.659925181,269.944101514 129.142670682,269.944101514 97.9845749355,238.786005768 C66.8264791896,207.627910022 66.8264791896,157.110655522 97.9845749355,125.952559776
C129.142670682,94.7944640305 179.659925181,94.7944640305 210.818020927,125.952559776" style="stroke:#6A0000"/>
               <path id="gv_D2E8855B_42" d="M209.8536325,126.916948204 C240.479111224,157.542426928 240.479111224,207.196138616 209.8536325,237.821617341 C179.228153775,268.447096065 129.574442088,268.447096065 98.9489633628,237.821617341 C68.3234846381,207.196138616 68.3234846381,157.542426928 98.9489633628,126.916948204
C129.574442087,96.2914694791 179.228153775,96.2914694791 209.8536325,126.916948204" style="stroke:#6C0000"/>
               <path id="gv_D2E8855B_43" d="M208.889244072,127.881336631 C238.982105776,157.974198334 238.982105776,206.76436721 208.889244072,236.857228913 C178.796382369,266.950090617 130.006213493,266.950090617 99.9133517901,236.857228913 C69.8204900867,206.76436721 69.8204900867,157.974198334 99.9133517901,127.881336631
C130.006213493,97.7884749277 178.796382369,97.7884749277 208.889244072,127.881336631" style="stroke:#6F0000"/>
               <path id="gv_D2E8855B_44" d="M207.924855645,128.845725058 C237.485100327,158.40596974 237.485100327,206.332595804 207.924855645,235.892840486 C178.364610963,265.453085168 130.437984899,265.453085168 100.877740217,235.892840486 C71.3174955353,206.332595804 71.3174955353,158.40596974 100.877740217,128.845725058
C130.437984899,99.2854803762 178.364610963,99.2854803762 207.924855645,128.845725058" style="stroke:#710000"/>
               <path id="gv_D2E8855B_45" d="M206.960467218,129.810113486 C235.988094879,158.837741146 235.988094879,205.900824398 206.960467218,234.928452059 C177.932839557,263.95607972 130.869756305,263.95607972 101.842128645,234.928452059 C72.8145009839,205.900824398 72.8145009839,158.837741146 101.842128645,129.810113486
C130.869756305,100.782485825 177.932839557,100.782485825 206.960467218,129.810113486" style="stroke:#740000"/>
               <path id="gv_D2E8855B_46" d="M205.996078791,130.774501913 C234.49108943,159.269512552 234.49108943,205.469052992 205.996078791,233.964063632 C177.501068151,262.459074271 131.301527711,262.459074271 102.806517072,233.964063632 C74.3115064324,205.469052992 74.3115064324,159.269512552 102.806517072,130.774501913
C131.301527711,102.279491273 177.501068151,102.279491273 205.996078791,130.774501913" style="stroke:#760000"/>
               <path id="gv_D2E8855B_47" d="M205.031690363,131.73889034 C232.994083982,159.701283958 232.994083982,205.037281586 205.031690363,232.999675204 C177.069296745,260.962068823 131.733299117,260.962068823 103.770905499,232.999675204 C75.808511881,205.037281586 75.808511881,159.701283958 103.770905499,131.73889034
C131.733299117,103.776496722 177.069296745,103.776496722 205.031690363,131.73889034" style="stroke:#790000"/>
               <path id="gv_D2E8855B_48" d="M204.067301936,132.703278767 C231.497078533,160.133055364 231.497078533,204.60551018 204.067301936,232.035286777 C176.637525339,259.465063374 132.165070523,259.465063374 104.735293926,232.035286777 C77.3055173296,204.60551018 77.3055173296,160.133055364 104.735293926,132.703278767
C132.165070523,105.273502171 176.637525339,105.273502171 204.067301936,132.703278767" style="stroke:#7C0000"/>
               <path id="gv_D2E8855B_49" d="M203.102913509,133.667667195 C230.000073084,160.56482677 230.000073084,204.173738774 203.102913509,231.07089835 C176.205753933,257.968057925 132.596841929,257.968057925 105.699682354,231.07089835 C78.8025227782,204.173738774 78.8025227782,160.56482677 105.699682354,133.667667195
C132.596841929,106.770507619 176.205753933,106.770507619 203.102913509,133.667667195" style="stroke:#7E0000"/>
               <path id="gv_D2E8855B_50" d="M202.138525082,134.632055622 C228.503067636,160.996598176 228.503067636,203.741967368 202.138525082,230.106509922 C175.773982527,256.471052477 133.028613335,256.471052477 106.664070781,230.106509922 C80.2995282267,203.741967368 80.2995282267,160.996598176 106.664070781,134.632055622
C133.028613335,108.267513068 175.773982527,108.267513068 202.138525082,134.632055622" style="stroke:#810000"/>
               <path id="gv_D2E8855B_51" d="M201.174136654,135.596444049 C227.006062187,161.428369582 227.006062187,203.310195962 201.174136654,229.142121495 C175.342211121,254.974047028 133.460384741,254.974047028 107.628459208,229.142121495 C81.7965336753,203.310195962 81.7965336753,161.428369582 107.628459208,135.596444049
C133.460384741,109.764518516 175.342211121,109.764518516 201.174136654,135.596444049" style="stroke:#830000"/>
               <path id="gv_D2E8855B_52" d="M200.209748227,136.560832477 C225.509056739,161.860140988 225.509056739,202.878424556 200.209748227,228.177733068 C174.910439715,253.47704158 133.892156147,253.47704158 108.592847636,228.177733068 C83.2935391239,202.878424556 83.2935391239,161.860140988 108.592847636,136.560832477
C133.892156147,111.261523965 174.910439715,111.261523965 200.209748227,136.560832477" style="stroke:#860000"/>
               <path id="gv_D2E8855B_53" d="M199.2453598,137.525220904 C224.01205129,162.291912394 224.01205129,202.44665315 199.2453598,227.213344641 C174.478668309,251.980036131 134.323927553,251.980036131 109.557236063,227.213344641 C84.7905445725,202.44665315 84.7905445725,162.291912394 109.557236063,137.525220904
C134.323927553,112.758529413 174.478668309,112.758529413 199.2453598,137.525220904" style="stroke:#890000"/>
               <path id="gv_D2E8855B_54" d="M198.280971372,138.489609331 C222.515045842,162.7236838 222.515045842,202.014881744 198.280971372,226.248956213 C174.046896903,250.483030682 134.755698959,250.483030682 110.52162449,226.248956213 C86.2875500211,202.014881744 86.2875500211,162.7236838 110.52162449,138.489609331
C134.755698959,114.255534862 174.046896903,114.255534862 198.280971372,138.489609331" style="stroke:#8B0000"/>
               <path id="gv_D2E8855B_55" d="M197.316582945,139.453997758 C221.018040393,163.155455206 221.018040393,201.583110338 197.316582945,225.284567786 C173.615125497,248.986025234 135.187470365,248.986025234 111.486012917,225.284567786 C87.7845554696,201.583110338 87.7845554696,163.155455206 111.486012917,139.453997758
C135.187470365,115.752540311 173.615125497,115.752540311 197.316582945,139.453997758" style="stroke:#8E0000"/>
               <path id="gv_D2E8855B_56" d="M196.352194518,140.418386186 C219.521034944,163.587226612 219.521034944,201.151338932 196.352194518,224.320179359 C173.183354091,247.489019785 135.619241771,247.489019785 112.450401345,224.320179359 C89.2815609182,201.151338932 89.2815609182,163.587226612 112.450401345,140.418386186
C135.619241771,117.249545759 173.183354091,117.249545759 196.352194518,140.418386186" style="stroke:#900000"/>
               <path id="gv_D2E8855B_57" d="M195.387806091,141.382774613 C218.024029496,164.018998018 218.024029496,200.719567526 195.387806091,223.355790932 C172.751582685,245.992014337 136.051013177,245.992014337 113.414789772,223.355790932 C90.7785663668,200.719567526 90.7785663668,164.018998018 113.414789772,141.382774613
C136.051013177,118.746551208 172.751582685,118.746551208 195.387806091,141.382774613" style="stroke:#930000"/>
               <path id="gv_D2E8855B_58" d="M194.423417663,142.34716304 C216.527024047,164.450769424 216.527024047,200.28779612 194.423417663,222.391402504 C172.319811279,244.495008888 136.482784583,244.495008888 114.379178199,222.391402504 C92.2755718154,200.28779612 92.2755718154,164.450769424 114.379178199,142.34716304
C136.482784583,120.243556656 172.319811279,120.243556656 194.423417663,142.34716304" style="stroke:#950000"/>
               <path id="gv_D2E8855B_59" d="M193.459029236,143.311551467 C215.030018599,164.88254083 215.030018599,199.856024714 193.459029236,221.427014077 C171.888039873,242.99800344 136.914555989,242.99800344 115.343566627,221.427014077 C93.7725772639,199.856024714 93.7725772639,164.88254083 115.343566627,143.311551467
C136.914555989,121.740562105 171.888039873,121.740562105 193.459029236,143.311551467" style="stroke:#980000"/>
               <path id="gv_D2E8855B_60" d="M192.494640809,144.275939895 C213.53301315,165.314312236 213.53301315,199.424253308 192.494640809,220.46262565 C171.456268467,241.500997991 137.346327395,241.500997991 116.307955054,220.46262565 C95.2695827125,199.424253308 95.2695827125,165.314312236 116.307955054,144.275939895
C137.346327395,123.237567553 171.456268467,123.237567553 192.494640809,144.275939895" style="stroke:#9B0000"/>
               <path id="gv_D2E8855B_61" d="M191.530252381,145.240328322 C212.036007701,165.746083642 212.036007701,198.992481902 191.530252381,219.498237222 C171.024497061,240.003992542 137.778098801,240.003992542 117.272343481,219.498237222 C96.7665881611,198.992481902 96.7665881611,165.746083642 117.272343481,145.240328322
C137.778098801,124.734573002 171.024497061,124.734573002 191.530252381,145.240328322" style="stroke:#9D0000"/>
               <path id="gv_D2E8855B_62" d="M190.565863954,146.204716749 C210.539002253,166.177855048 210.539002253,198.560710496 190.565863954,218.533848795 C170.592725656,238.506987094 138.209870207,238.506987094 118.236731908,218.533848795 C98.2635936097,198.560710496 98.2635936097,166.177855048 118.236731908,146.204716749
C138.209870207,126.231578451 170.592725656,126.231578451 190.565863954,146.204716749" style="stroke:#A00000"/>
               <path id="gv_D2E8855B_63" d="M189.601475527,147.169105177 C209.041996804,166.609626454 209.041996804,198.12893909 189.601475527,217.569460368 C170.16095425,237.009981645 138.641641613,237.009981645 119.201120336,217.569460368 C99.7605990582,198.12893909 99.7605990582,166.609626454 119.201120336,147.169105177
C138.641641613,127.728583899 170.16095425,127.728583899 189.601475527,147.169105177" style="stroke:#A20000"/>
               <path id="gv_D2E8855B_64" d="M188.6370871,148.133493604 C207.544991356,167.04139786 207.544991356,197.697167684 188.6370871,216.605071941 C169.729182844,235.512976197 139.073413019,235.512976197 120.165508763,216.605071941 C101.257604507,197.697167684 101.257604507,167.04139786 120.165508763,148.133493604
C139.073413019,129.225589348 169.729182844,129.225589348 188.6370871,148.133493604" style="stroke:#A50000"/>
               <path id="gv_D2E8855B_65" d="M187.672698672,149.097882031 C206.047985907,167.473169266 206.047985907,197.265396279 187.672698672,215.640683513 C169.297411438,234.015970748 139.505184425,234.015970748 121.12989719,215.640683513 C102.754609955,197.265396279 102.754609955,167.473169266 121.12989719,149.097882031
C139.505184425,130.722594796 169.297411438,130.722594796 187.672698672,149.097882031" style="stroke:#A70000"/>
               <path id="gv_D2E8855B_66" d="M186.708310245,150.062270458 C204.550980459,167.904940672 204.550980459,196.833624873 186.708310245,214.676295086 C168.865640032,232.5189653 139.936955831,232.5189653 122.094285617,214.676295086 C104.251615404,196.833624873 104.251615404,167.904940672 122.094285617,150.062270458
C139.936955831,132.219600245 168.865640032,132.219600245 186.708310245,150.062270458" style="stroke:#AA0000"/>
               <path id="gv_D2E8855B_67" d="M185.743921818,151.026658886 C203.05397501,168.336712078 203.05397501,196.401853467 185.743921818,213.711906659 C168.433868626,231.021959851 140.368727237,231.021959851 123.058674045,213.711906659 C105.748620853,196.401853467 105.748620853,168.336712078 123.058674045,151.026658886
C140.368727237,133.716605693 168.433868626,133.716605693 185.743921818,151.026658886" style="stroke:#AD0000"/>
               <path id="gv_D2E8855B_68" d="M184.779533391,151.991047313 C201.556969561,168.768483484 201.556969561,195.970082061 184.779533391,212.747518231 C168.00209722,229.524954402 140.800498643,229.524954402 124.023062472,212.747518231 C107.245626301,195.970082061 107.245626301,168.768483484 124.023062472,151.991047313
C140.800498643,135.213611142 168.00209722,135.213611142 184.779533391,151.991047313" style="stroke:#AF0000"/>
               <path id="gv_D2E8855B_69" d="M183.815144963,152.95543574 C200.059964113,169.20025489 200.059964113,195.538310655 183.815144963,211.783129804 C167.570325814,228.027948954 141.232270049,228.027948954 124.987450899,211.783129804 C108.74263175,195.538310655 108.74263175,169.20025489 124.987450899,152.95543574
C141.232270049,136.710616591 167.570325814,136.710616591 183.815144963,152.95543574" style="stroke:#B20000"/>
               <path id="gv_D2E8855B_70" d="M182.850756536,153.919824168 C198.562958664,169.632026296 198.562958664,195.106539249 182.850756536,210.818741377 C167.138554408,226.530943505 141.664041455,226.530943505 125.951839327,210.818741377 C110.239637198,195.106539249 110.239637198,169.632026296 125.951839327,153.919824168
C141.664041455,138.207622039 167.138554408,138.207622039 182.850756536,153.919824168" style="stroke:#B40000"/>
               <path id="gv_D2E8855B_71" d="M181.886368109,154.884212595 C197.065953216,170.063797702 197.065953216,194.674767843 181.886368109,209.85435295 C166.706783002,225.033938057 142.095812861,225.033938057 126.916227754,209.85435295 C111.736642647,194.674767843 111.736642647,170.063797702 126.916227754,154.884212595
C142.095812861,139.704627488 166.706783002,139.704627488 181.886368109,154.884212595" style="stroke:#B70000"/>
               <path id="gv_D2E8855B_72" d="M180.921979681,155.848601022 C195.568947767,170.495569108 195.568947767,194.242996437 180.921979681,208.889964522 C166.275011596,223.536932608 142.527584267,223.536932608 127.880616181,208.889964522 C113.233648095,194.242996437 113.233648095,170.495569108 127.880616181,155.848601022
C142.527584267,141.201632936 166.275011596,141.201632936 180.921979681,155.848601022" style="stroke:#B90000"/>
               <path id="gv_D2E8855B_73" d="M179.957591254,156.812989449 C194.071942319,170.927340514 194.071942319,193.811225031 179.957591254,207.925576095 C165.84324019,222.03992716 142.959355673,222.03992716 128.845004608,207.925576095 C114.730653544,193.811225031 114.730653544,170.927340514 128.845004608,156.812989449
C142.959355673,142.698638385 165.84324019,142.698638385 179.957591254,156.812989449" style="stroke:#BC0000"/>
               <path id="gv_D2E8855B_74" d="M178.993202827,157.777377877 C192.57493687,171.35911192 192.57493687,193.379453625 178.993202827,206.961187668 C165.411468784,220.542921711 143.391127079,220.542921711 129.809393036,206.961187668 C116.227658993,193.379453625 116.227658993,171.35911192 129.809393036,157.777377877
C143.391127079,144.195643834 165.411468784,144.195643834 178.993202827,157.777377877" style="stroke:#BF0000"/>
               <path id="gv_D2E8855B_75" d="M178.0288144,158.741766304 C191.077931421,171.790883326 191.077931421,192.947682219 178.0288144,205.996799241 C164.979697378,219.045916262 143.822898485,219.045916262 130.773781463,205.996799241 C117.724664441,192.947682219 117.724664441,171.790883326 130.773781463,158.741766304
C143.822898485,145.692649282 164.979697378,145.692649282 178.0288144,158.741766304" style="stroke:#C10000"/>
               <path id="gv_D2E8855B_76" d="M177.064425972,159.706154731 C189.580925973,172.222654732 189.580925973,192.515910813 177.064425972,205.032410813 C164.547925972,217.548910814 144.254669891,217.548910814 131.73816989,205.032410813 C119.22166989,192.515910813 119.22166989,172.222654732 131.73816989,159.706154731
C144.254669891,147.189654731 164.547925972,147.189654731 177.064425972,159.706154731" style="stroke:#C40000"/>
               <path id="gv_D2E8855B_77" d="M176.100037545,160.670543158 C188.083920524,172.654426138 188.083920524,192.084139407 176.100037545,204.068022386 C164.116154566,216.051905365 144.686441297,216.051905365 132.702558318,204.068022386 C120.718675338,192.084139407 120.718675338,172.654426138 132.702558318,160.670543158
C144.686441297,148.686660179 164.116154566,148.686660179 176.100037545,160.670543158" style="stroke:#C60000"/>
               <path id="gv_D2E8855B_78" d="M175.135649118,161.634931586 C186.586915076,173.086197544 186.586915076,191.652368001 175.135649118,203.103633959 C163.68438316,214.554899917 145.118212703,214.554899917 133.666946745,203.103633959 C122.215680787,191.652368001 122.215680787,173.086197544 133.666946745,161.634931586
C145.118212703,150.183665628 163.68438316,150.183665628 175.135649118,161.634931586" style="stroke:#C90000"/>
               <path id="gv_D2E8855B_79" d="M174.17126069,162.599320013 C185.089909627,173.51796895 185.089909627,191.220596595 174.17126069,202.139245531 C163.252611754,213.057894468 145.549984109,213.057894468 134.631335172,202.139245531 C123.712686235,191.220596595 123.712686235,173.51796895 134.631335172,162.599320013
C145.549984109,151.680671076 163.252611754,151.680671076 174.17126069,162.599320013" style="stroke:#CB0000"/>
               <path id="gv_D2E8855B_80" d="M173.206872263,163.56370844 C183.592904179,173.949740356 183.592904179,190.788825189 173.206872263,201.174857104 C162.820840348,211.560889019 145.981755515,211.560889019 135.595723599,201.174857104 C125.209691684,190.788825189 125.209691684,173.949740356 135.595723599,163.56370844
C145.981755515,153.177676525 162.820840348,153.177676525 173.206872263,163.56370844" style="stroke:#CE0000"/>
               <path id="gv_D2E8855B_81" d="M172.242483836,164.528096868 C182.09589873,174.381511762 182.09589873,190.357053783 172.242483836,200.210468677 C162.389068942,210.063883571 146.413526921,210.063883571 136.560112027,200.210468677 C126.706697133,190.357053783 126.706697133,174.381511762 136.560112027,164.528096868
C146.413526921,154.674681974 162.389068942,154.674681974 172.242483836,164.528096868" style="stroke:#D10000"/>
               <path id="gv_D2E8855B_82" d="M171.278095409,165.492485295 C180.598893281,174.813283168 180.598893281,189.925282377 171.278095409,199.24608025 C161.957297536,208.566878122 146.845298327,208.566878122 137.524500454,199.24608025 C128.203702581,189.925282377 128.203702581,174.813283168 137.524500454,165.492485295
C146.845298327,156.171687422 161.957297536,156.171687422 171.278095409,165.492485295" style="stroke:#D30000"/>
               <path id="gv_D2E8855B_83" d="M170.313706981,166.456873722 C179.101887833,175.245054574 179.101887833,189.493510971 170.313706981,198.281691822 C161.52552613,207.069872674 147.277069733,207.069872674 138.488888881,198.281691822 C129.70070803,189.493510971 129.70070803,175.245054574 138.488888881,166.456873722
C147.277069733,157.668692871 161.52552613,157.668692871 170.313706981,166.456873722" style="stroke:#D60000"/>
               <path id="gv_D2E8855B_84" d="M169.349318554,167.421262149 C177.604882384,175.67682598 177.604882384,189.061739565 169.349318554,197.317303395 C161.093754724,205.572867225 147.708841139,205.572867225 139.453277308,197.317303395 C131.197713478,189.061739565 131.197713478,175.67682598 139.453277308,167.421262149
C147.708841139,159.165698319 161.093754724,159.165698319 169.349318554,167.421262149" style="stroke:#D80000"/>
               <path id="gv_D2E8855B_85" d="M168.384930127,168.385650577 C176.107876936,176.108597386 176.107876936,188.629968159 168.384930127,196.352914968 C160.661983318,204.075861777 148.140612545,204.075861777 140.417665736,196.352914968 C132.694718927,188.629968159 132.694718927,176.108597386 140.417665736,168.385650577
C148.140612545,160.662703768 160.661983318,160.662703768 168.384930127,168.385650577" style="stroke:#DB0000"/>
               <path id="gv_D2E8855B_86" d="M167.4205417,169.350039004 C174.610871487,176.540368792 174.610871487,188.198196753 167.4205417,195.38852654 C160.230211912,202.578856328 148.572383951,202.578856328 141.382054163,195.38852654 C134.191724376,188.198196753 134.191724376,176.540368792 141.382054163,169.350039004
C148.572383951,162.159709216 160.230211912,162.159709216 167.4205417,169.350039004" style="stroke:#DE0000"/>
               <path id="gv_D2E8855B_87" d="M166.456153272,170.314427431 C173.113866039,176.972140198 173.113866039,187.766425347 166.456153272,194.424138113 C159.798440506,201.081850879 149.004155357,201.081850879 142.34644259,194.424138113 C135.688729824,187.766425347 135.688729824,176.972140198 142.34644259,170.314427431
C149.004155357,163.656714665 159.798440506,163.656714665 166.456153272,170.314427431" style="stroke:#E00000"/>
               <path id="gv_D2E8855B_88" d="M165.491764845,171.278815859 C171.61686059,177.403911603 171.61686059,187.334653941 165.491764845,193.459749686 C159.3666691,199.584845431 149.435926763,199.584845431 143.310831018,193.459749686 C137.185735273,187.334653941 137.185735273,177.403911603 143.310831018,171.278815859
C149.435926763,165.153720114 159.3666691,165.153720114 165.491764845,171.278815859" style="stroke:#E30000"/>
               <path id="gv_D2E8855B_89" d="M164.527376418,172.243204286 C170.119855141,177.835683009 170.119855141,186.902882535 164.527376418,192.495361259 C158.934897694,198.087839982 149.867698169,198.087839982 144.275219445,192.495361259 C138.682740721,186.902882535 138.682740721,177.835683009 144.275219445,172.243204286
C149.867698169,166.650725562 158.934897694,166.650725562 164.527376418,172.243204286" style="stroke:#E50000"/>
               <path id="gv_D2E8855B_90" d="M163.56298799,173.207592713 C168.622849693,178.267454415 168.622849693,186.471111129 163.56298799,191.530972831 C158.503126288,196.590834534 150.299469574,196.590834534 145.239607872,191.530972831 C140.17974617,186.471111129 140.17974617,178.267454415 145.239607872,173.207592713
C150.299469574,168.147731011 158.503126288,168.147731011 163.56298799,173.207592713" style="stroke:#E80000"/>
               <path id="gv_D2E8855B_91" d="M162.598599563,174.17198114 C167.125844244,178.699225821 167.125844244,186.039339723 162.598599563,190.566584404 C158.071354882,195.093829085 150.73124098,195.093829085 146.203996299,190.566584404 C141.676751618,186.039339723 141.676751618,178.699225821 146.203996299,174.17198114
C150.73124098,169.644736459 158.071354882,169.644736459 162.598599563,174.17198114" style="stroke:#EA0000"/>
               <path id="gv_D2E8855B_92" d="M161.634211136,175.136369568 C165.628838796,179.130997227 165.628838796,185.607568317 161.634211136,189.602195977 C157.639583476,193.596823637 151.163012386,193.596823637 147.168384727,189.602195977 C143.173757067,185.607568317 143.173757067,179.130997227 147.168384727,175.136369568
C151.163012386,171.141741908 157.639583476,171.141741908 161.634211136,175.136369568" style="stroke:#ED0000"/>
               <path id="gv_D2E8855B_93" d="M160.669822709,176.100757995 C164.131833347,179.562768633 164.131833347,185.175796911 160.669822709,188.63780755 C157.20781207,192.099818188 151.594783792,192.099818188 148.132773154,188.63780755 C144.670762516,185.175796911 144.670762516,179.562768633 148.132773154,176.100757995
C151.594783792,172.638747356 157.20781207,172.638747356 160.669822709,176.100757995" style="stroke:#F00000"/>
               <path id="gv_D2E8855B_94" d="M159.705434281,177.065146422 C162.634827898,179.994540039 162.634827898,184.744025505 159.705434281,187.673419122 C156.776040664,190.602812739 152.026555198,190.602812739 149.097161581,187.673419122 C146.167767964,184.744025505 146.167767964,179.994540039 149.097161581,177.065146422
C152.026555198,174.135752805 156.776040664,174.135752805 159.705434281,177.065146422" style="stroke:#F20000"/>
               <path id="gv_D2E8855B_95" d="M158.741045854,178.029534849 C161.13782245,180.426311445 161.13782245,184.312254099 158.741045854,186.709030695 C156.344269258,189.105807291 152.458326604,189.105807291 150.061550009,186.709030695 C147.664773413,184.312254099 147.664773413,180.426311445 150.061550009,178.029534849
C152.458326604,175.632758254 156.344269258,175.632758254 158.741045854,178.029534849" style="stroke:#F50000"/>
               <path id="gv_D2E8855B_96" d="M157.776657427,178.993923277 C159.640817001,180.858082851 159.640817001,183.880482693 157.776657427,185.744642268 C155.912497852,187.608801842 152.89009801,187.608801842 151.025938436,185.744642268 C149.161778861,183.880482693 149.161778861,180.858082851 151.025938436,178.993923277
C152.89009801,177.129763702 155.912497852,177.129763702 157.776657427,178.993923277" style="stroke:#F70000"/>
               <path id="gv_D2E8855B_97" d="M156.812268999,179.958311704 C158.143811553,181.289854257 158.143811553,183.448711287 156.812268999,184.78025384 C155.480726446,186.111796394 153.321869416,186.111796394 151.990326863,184.78025384 C150.65878431,183.448711287 150.65878431,181.289854257 151.990326863,179.958311704
C153.321869416,178.626769151 155.480726446,178.626769151 156.812268999,179.958311704" style="stroke:#FA0000"/>
               <path id="gv_D2E8855B_98" d="M155.847880572,180.922700131 C156.646806104,181.721625663 156.646806104,183.016939881 155.847880572,183.815865413 C155.04895504,184.614790945 153.753640822,184.614790945 152.95471529,183.815865413 C152.155789758,183.016939881 152.155789758,181.721625663 152.95471529,180.922700131
C153.753640822,180.123774599 155.04895504,180.123774599 155.847880572,180.922700131" style="stroke:#FF0000"/>
               <path id="gv_D2E8855B_99" d="M154.883492145,181.887088559 C155.149800656,182.153397069 155.149800656,182.585168475 154.883492145,182.851476986 C154.617183634,183.117785497 154.185412228,183.117785497 153.919103718,182.851476986 C153.652795207,182.585168475 153.652795207,182.153397069 153.919103718,181.887088559
C154.185412228,181.620780048 154.617183634,181.620780048 154.883492145,181.887088559" style="stroke:#FF0000"/>
            </g>
         </g>
         <ellipse
             style="fill:none;stroke:#1F1F1F;stroke-linecap:butt;stroke-width:11.80630059;stroke-miterlimit:4"
             id="D2E8855B"
             cx="136.216171296"
             cy="160.585501976"
             rx="110.611716527"
             ry="105.308422679"/>
      </g>
      <polyline
          style="fill:#FFFFFF;stroke:#585858;stroke-linecap:butt;stroke-width:3.869291818346;stroke-miterlimit:4"
          id="06E8855B"
          points="3.453206478772,58.0971880667 139.524647551,3.454312399735 139.524647551,313.097208368 4.524634635772,263.811501831 3.453206478772,58.0971880667"/>
   </g>
</svg>
