<?xml version="1.0" encoding="utf-8"?><!-- Generator: Iparigrafika Gear Generator by Abel Vincze http://geargenerator.com/ --><svg version="1.2" class="svggear" xmlns="http://www.w3.org/2000/svg" xmlns:xlink="http://www.w3.org/1999/xlink" x="0px" y="0px" width="700px" height="846.4101615137754px" viewBox="0 0 700 846.4101615137754" xml:space="preserve"><g transform="translate(150,150) rotate(28038.5534)"><polygon id="gearpoly0" data-id="0" class="gear" fill="#ddd" stroke="#444" stroke-width="1" stroke-miterlimit="10" points="85.625,0 89.1142,-0.0002 89.1693,-0.0018 89.2667,-0.0068 89.4063,-0.0169 89.5879,-0.0341 89.8111,-0.0601 90.0758,-0.0968 90.3814,-0.1459 90.7276,-0.2094 91.1139,-0.2889 91.5397,-0.3863 92.0044,-0.5034 92.5073,-0.6417 93.0478,-0.8032 93.6249,-0.9894 94.2379,-1.2021 94.8859,-1.4428 95.5679,-1.7132 96.2829,-2.015 97.0298,-2.3496 97.8076,-2.7186 98.6151,-3.1235 99.451,-3.5657 100.3141,-4.0467 101.2032,-4.5678 102.1167,-5.1305 103.0534,-5.736 104.0117,-6.3855 104.9903,-7.0804 105.9874,-7.8217 107.0017,-8.6107 108.0314,-9.4483 109.0748,-10.3357 110.1304,-11.2738 111.1963,-12.2636 111.7181,-13.2404 111.2357,-16.8185 110.4739,-17.6223 109.1839,-18.2944 107.9176,-18.9195 106.6763,-19.4988 105.4616,-20.0339 104.2746,-20.5261 103.1167,-20.9768 101.9891,-21.3878 100.893,-21.7603 99.8294,-22.0961 98.7995,-22.3968 97.8042,-22.6639 96.8445,-22.8991 95.9213,-23.1042 95.0354,-23.2807 94.1877,-23.4306 93.3788,-23.5554 92.6094,-23.657 91.8801,-23.7372 91.1915,-23.7978 90.5441,-23.8405 89.9383,-23.8672 89.3744,-23.8798 88.8527,-23.88 88.3736,-23.8698 87.9373,-23.8509 87.5437,-23.8253 87.193,-23.7949 86.8853,-23.7613 86.6204,-23.7266 86.3982,-23.6926 86.2186,-23.661 86.0813,-23.6339 85.9861,-23.6128 85.9325,-23.5998 82.5678,-22.6759 79.1072,-32.7673 82.3307,-34.1027 82.381,-34.1253 82.4691,-34.1672 82.5942,-34.2299 82.7554,-34.3153 82.9517,-34.4247 83.1821,-34.5599 83.4457,-34.7223 83.7413,-34.9134 84.0677,-35.1347 84.4238,-35.3877 84.8084,-35.6736 85.2201,-35.9939 85.6576,-36.3499 86.1195,-36.7428 86.6045,-37.1738 87.111,-37.6442 87.6376,-38.1551 88.1827,-38.7075 88.7447,-39.3024 89.3221,-39.941 89.9132,-40.6241 90.5162,-41.3525 91.1296,-42.1272 91.7515,-42.9489 92.3802,-43.8183 93.0139,-44.7362 93.6507,-45.703 94.2888,-46.7194 94.9264,-47.786 95.5615,-48.903 96.1923,-50.0709 96.8167,-51.2901 97.4329,-52.5607 98.039,-53.883 98.1472,-54.9852 96.3322,-58.1064 95.3208,-58.5574 93.8718,-58.6847 92.4627,-58.7776 91.0942,-58.8378 89.7672,-58.8673 88.4822,-58.8678 87.2399,-58.8411 86.0409,-58.7893 84.8856,-58.714 83.7745,-58.6172 82.7079,-58.5008 81.6862,-58.3667 80.7095,-58.2168 79.7781,-58.0529 78.8921,-57.8771 78.0516,-57.6911 77.2565,-57.4969 76.5068,-57.2963 75.8023,-57.0913 75.143,-56.8837 74.5285,-56.6755 73.9585,-56.4683 73.4328,-56.2641 72.9508,-56.0647 72.512,-55.8719 72.1161,-55.6875 71.7623,-55.5133 71.45,-55.3509 71.1785,-55.2022 70.947,-55.0687 70.7548,-54.9522 70.6009,-54.8544 70.4845,-54.7767 70.4045,-54.7209 70.36,-54.6883 67.605,-52.5472 60.546,-60.546 63.0132,-63.0134 63.051,-63.0535 63.1163,-63.1259 63.2079,-63.2318 63.3241,-63.3723 63.4636,-63.5485 63.6248,-63.7616 63.8061,-64.0125 64.006,-64.3022 64.2229,-64.6316 64.4552,-65.0015 64.701,-65.4129 64.9588,-65.8663 65.2268,-66.3626 65.5032,-66.9024 65.7863,-67.4862 66.0742,-68.1147 66.3652,-68.7881 66.6575,-69.5071 66.949,-70.2719 67.2381,-71.0828 67.5228,-71.94 67.8012,-72.8438 68.0714,-73.7942 68.3315,-74.7914 68.5796,-75.8352 68.8138,-76.9257 69.0322,-78.0626 69.2328,-79.2459 69.4137,-80.4752 69.573,-81.7503 69.7087,-83.0707 69.8191,-84.436 69.9022,-85.8457 69.956,-87.2993 69.6343,-88.359 66.763,-90.548 65.656,-90.5777 64.2686,-90.1408 62.9312,-89.6873 61.6438,-89.2193 60.4065,-88.7387 59.2192,-88.2474 58.0817,-87.7474 56.9938,-87.2406 55.9552,-86.729 54.9657,-86.2144 54.0249,-85.6987 53.1322,-85.1838 52.2873,-84.6715 51.4895,-84.1637 50.7382,-83.6621 50.0328,-83.1687 49.3726,-82.685 48.7567,-82.2128 48.1843,-81.7538 47.6546,-81.3097 47.1666,-80.8821 46.7193,-80.4726 46.3117,-80.0828 45.9427,-79.7141 45.6111,-79.3681 45.3159,-79.0462 45.0557,-78.7498 44.8293,-78.4803 44.6354,-78.239 44.4726,-78.0271 44.3396,-77.8459 44.2349,-77.6966 44.157,-77.5803 44.1045,-77.4981 44.0758,-77.451 42.3499,-74.4186 32.7673,-79.1072 34.1024,-82.3309 34.122,-82.3824 34.1546,-82.4743 34.1987,-82.6071 34.2523,-82.7814 34.3137,-82.9976 34.3811,-83.2562 34.4526,-83.5574 34.5265,-83.9015 34.6008,-84.2888 34.6738,-84.7195 34.7435,-85.1936 34.8081,-85.7112 34.8658,-86.2723 34.9146,-86.8768 34.9527,-87.5245 34.9783,-88.2153 34.9894,-88.9488 34.9843,-89.7249 34.961,-90.543 34.9177,-91.4028 34.8527,-92.3038 34.764,-93.2453 34.6499,-94.2268 34.5087,-95.2476 34.3384,-96.3069 34.1375,-97.404 33.9041,-98.538 33.6366,-99.7079 33.3333,-100.9129 32.9926,-102.1518 32.6127,-103.4237 32.1922,-104.7273 31.7295,-106.0615 31.2229,-107.4251 30.5202,-108.281 27.0298,-109.2046 25.9957,-108.8083 24.881,-107.8737 23.819,-106.943 22.8087,-106.018 21.8495,-105.1004 20.9406,-104.1922 20.081,-103.2949 19.2698,-102.4104 18.5062,-101.5403 17.7889,-100.6862 17.117,-99.8497 16.4894,-99.0323 15.9048,-98.2357 15.362,-97.4613 14.8599,-96.7104 14.397,-95.9845 13.9721,-95.285 13.5838,-94.6131 13.2307,-93.97 12.9112,-93.357 12.624,-92.7752 12.3675,-92.2257 12.1401,-91.7095 11.9402,-91.2277 11.7663,-90.7812 11.6167,-90.3708 11.4898,-89.9974 11.3837,-89.6618 11.2969,-89.3646 11.2276,-89.1066 11.1741,-88.8883 11.1345,-88.7103 11.1071,-88.573 11.09,-88.477 11.0815,-88.4225 10.6475,-84.9604 0,-85.625 -0.0002,-89.1142 -0.0018,-89.1693 -0.0068,-89.2667 -0.0169,-89.4063 -0.0341,-89.5879 -0.0601,-89.8111 -0.0968,-90.0758 -0.1459,-90.3814 -0.2094,-90.7276 -0.2889,-91.1139 -0.3863,-91.5397 -0.5034,-92.0044 -0.6417,-92.5073 -0.8032,-93.0478 -0.9894,-93.6249 -1.2021,-94.2379 -1.4428,-94.8859 -1.7132,-95.5679 -2.015,-96.2829 -2.3496,-97.0298 -2.7186,-97.8076 -3.1235,-98.6151 -3.5657,-99.451 -4.0467,-100.3141 -4.5678,-101.2032 -5.1305,-102.1167 -5.736,-103.0534 -6.3855,-104.0117 -7.0804,-104.9903 -7.8217,-105.9874 -8.6107,-107.0017 -9.4483,-108.0314 -10.3357,-109.0748 -11.2738,-110.1304 -12.2636,-111.1963 -13.2404,-111.7181 -16.8185,-111.2357 -17.6223,-110.4739 -18.2944,-109.1839 -18.9195,-107.9176 -19.4988,-106.6763 -20.0339,-105.4616 -20.5261,-104.2746 -20.9768,-103.1167 -21.3878,-101.9891 -21.7603,-100.893 -22.0961,-99.8294 -22.3968,-98.7995 -22.6639,-97.8042 -22.8991,-96.8445 -23.1042,-95.9213 -23.2807,-95.0354 -23.4306,-94.1877 -23.5554,-93.3788 -23.657,-92.6094 -23.7372,-91.8801 -23.7978,-91.1915 -23.8405,-90.5441 -23.8672,-89.9383 -23.8798,-89.3744 -23.88,-88.8527 -23.8698,-88.3736 -23.8509,-87.9373 -23.8253,-87.5437 -23.7949,-87.193 -23.7613,-86.8853 -23.7266,-86.6204 -23.6926,-86.3982 -23.661,-86.2186 -23.6339,-86.0813 -23.6128,-85.9861 -23.5998,-85.9325 -22.6759,-82.5678 -32.7673,-79.1072 -34.1027,-82.3307 -34.1253,-82.381 -34.1672,-82.4691 -34.2299,-82.5942 -34.3153,-82.7554 -34.4247,-82.9517 -34.5599,-83.1821 -34.7223,-83.4457 -34.9134,-83.7413 -35.1347,-84.0677 -35.3877,-84.4238 -35.6736,-84.8084 -35.9939,-85.2201 -36.3499,-85.6576 -36.7428,-86.1195 -37.1738,-86.6045 -37.6442,-87.111 -38.1551,-87.6376 -38.7075,-88.1827 -39.3024,-88.7447 -39.941,-89.3221 -40.6241,-89.9132 -41.3525,-90.5162 -42.1272,-91.1296 -42.9489,-91.7515 -43.8183,-92.3802 -44.7362,-93.0139 -45.703,-93.6507 -46.7194,-94.2888 -47.786,-94.9264 -48.903,-95.5615 -50.0709,-96.1923 -51.2901,-96.8167 -52.5607,-97.4329 -53.883,-98.039 -54.9852,-98.1472 -58.1064,-96.3322 -58.5574,-95.3208 -58.6847,-93.8718 -58.7776,-92.4627 -58.8378,-91.0942 -58.8673,-89.7672 -58.8678,-88.4822 -58.8411,-87.2399 -58.7893,-86.0409 -58.714,-84.8856 -58.6172,-83.7745 -58.5008,-82.7079 -58.3667,-81.6862 -58.2168,-80.7095 -58.0529,-79.7781 -57.8771,-78.8921 -57.6911,-78.0516 -57.4969,-77.2565 -57.2963,-76.5068 -57.0913,-75.8023 -56.8837,-75.143 -56.6755,-74.5285 -56.4683,-73.9585 -56.2641,-73.4328 -56.0647,-72.9508 -55.8719,-72.512 -55.6875,-72.1161 -55.5133,-71.7623 -55.3509,-71.45 -55.2022,-71.1785 -55.0687,-70.947 -54.9522,-70.7548 -54.8544,-70.6009 -54.7767,-70.4845 -54.7209,-70.4045 -54.6883,-70.36 -52.5472,-67.605 -60.546,-60.546 -63.0134,-63.0132 -63.0535,-63.051 -63.1259,-63.1163 -63.2318,-63.2079 -63.3723,-63.3241 -63.5485,-63.4636 -63.7616,-63.6248 -64.0125,-63.8061 -64.3022,-64.006 -64.6316,-64.2229 -65.0015,-64.4552 -65.4129,-64.701 -65.8663,-64.9588 -66.3626,-65.2268 -66.9024,-65.5032 -67.4862,-65.7863 -68.1147,-66.0742 -68.7881,-66.3652 -69.5071,-66.6575 -70.2719,-66.949 -71.0828,-67.2381 -71.94,-67.5228 -72.8438,-67.8012 -73.7942,-68.0714 -74.7914,-68.3315 -75.8352,-68.5796 -76.9257,-68.8138 -78.0626,-69.0322 -79.2459,-69.2328 -80.4752,-69.4137 -81.7503,-69.573 -83.0707,-69.7087 -84.436,-69.8191 -85.8457,-69.9022 -87.2993,-69.956 -88.359,-69.6343 -90.548,-66.763 -90.5777,-65.656 -90.1408,-64.2686 -89.6873,-62.9312 -89.2193,-61.6438 -88.7387,-60.4065 -88.2474,-59.2192 -87.7474,-58.0817 -87.2406,-56.9938 -86.729,-55.9552 -86.2144,-54.9657 -85.6987,-54.0249 -85.1838,-53.1322 -84.6715,-52.2873 -84.1637,-51.4895 -83.6621,-50.7382 -83.1687,-50.0328 -82.685,-49.3726 -82.2128,-48.7567 -81.7538,-48.1843 -81.3097,-47.6546 -80.8821,-47.1666 -80.4726,-46.7193 -80.0828,-46.3117 -79.7141,-45.9427 -79.3681,-45.6111 -79.0462,-45.3159 -78.7498,-45.0557 -78.4803,-44.8293 -78.239,-44.6354 -78.0271,-44.4726 -77.8459,-44.3396 -77.6966,-44.2349 -77.5803,-44.157 -77.4981,-44.1045 -77.451,-44.0758 -74.4186,-42.3499 -79.1072,-32.7673 -82.3309,-34.1024 -82.3824,-34.122 -82.4743,-34.1546 -82.6071,-34.1987 -82.7814,-34.2523 -82.9976,-34.3137 -83.2562,-34.3811 -83.5574,-34.4526 -83.9015,-34.5265 -84.2888,-34.6008 -84.7195,-34.6738 -85.1936,-34.7435 -85.7112,-34.8081 -86.2723,-34.8658 -86.8768,-34.9146 -87.5245,-34.9527 -88.2153,-34.9783 -88.9488,-34.9894 -89.7249,-34.9843 -90.543,-34.961 -91.4028,-34.9177 -92.3038,-34.8527 -93.2453,-34.764 -94.2268,-34.6499 -95.2476,-34.5087 -96.3069,-34.3384 -97.404,-34.1375 -98.538,-33.9041 -99.7079,-33.6366 -100.9129,-33.3333 -102.1518,-32.9926 -103.4237,-32.6127 -104.7273,-32.1922 -106.0615,-31.7295 -107.4251,-31.2229 -108.281,-30.5202 -109.2046,-27.0298 -108.8083,-25.9957 -107.8737,-24.881 -106.943,-23.819 -106.018,-22.8087 -105.1004,-21.8495 -104.1922,-20.9406 -103.2949,-20.081 -102.4104,-19.2698 -101.5403,-18.5062 -100.6862,-17.7889 -99.8497,-17.117 -99.0323,-16.4894 -98.2357,-15.9048 -97.4613,-15.362 -96.7104,-14.8599 -95.9845,-14.397 -95.285,-13.9721 -94.6131,-13.5838 -93.97,-13.2307 -93.357,-12.9112 -92.7752,-12.624 -92.2257,-12.3675 -91.7095,-12.1401 -91.2277,-11.9402 -90.7812,-11.7663 -90.3708,-11.6167 -89.9974,-11.4898 -89.6618,-11.3837 -89.3646,-11.2969 -89.1066,-11.2276 -88.8883,-11.1741 -88.7103,-11.1345 -88.573,-11.1071 -88.477,-11.09 -88.4225,-11.0815 -84.9604,-10.6475 -85.625,0 -89.1142,0.0002 -89.1693,0.0018 -89.2667,0.0068 -89.4063,0.0169 -89.5879,0.0341 -89.8111,0.0601 -90.0758,0.0968 -90.3814,0.1459 -90.7276,0.2094 -91.1139,0.2889 -91.5397,0.3863 -92.0044,0.5034 -92.5073,0.6417 -93.0478,0.8032 -93.6249,0.9894 -94.2379,1.2021 -94.8859,1.4428 -95.5679,1.7132 -96.2829,2.015 -97.0298,2.3496 -97.8076,2.7186 -98.6151,3.1235 -99.451,3.5657 -100.3141,4.0467 -101.2032,4.5678 -102.1167,5.1305 -103.0534,5.736 -104.0117,6.3855 -104.9903,7.0804 -105.9874,7.8217 -107.0017,8.6107 -108.0314,9.4483 -109.0748,10.3357 -110.1304,11.2738 -111.1963,12.2636 -111.7181,13.2404 -111.2357,16.8185 -110.4739,17.6223 -109.1839,18.2944 -107.9176,18.9195 -106.6763,19.4988 -105.4616,20.0339 -104.2746,20.5261 -103.1167,20.9768 -101.9891,21.3878 -100.893,21.7603 -99.8294,22.0961 -98.7995,22.3968 -97.8042,22.6639 -96.8445,22.8991 -95.9213,23.1042 -95.0354,23.2807 -94.1877,23.4306 -93.3788,23.5554 -92.6094,23.657 -91.8801,23.7372 -91.1915,23.7978 -90.5441,23.8405 -89.9383,23.8672 -89.3744,23.8798 -88.8527,23.88 -88.3736,23.8698 -87.9373,23.8509 -87.5437,23.8253 -87.193,23.7949 -86.8853,23.7613 -86.6204,23.7266 -86.3982,23.6926 -86.2186,23.661 -86.0813,23.6339 -85.9861,23.6128 -85.9325,23.5998 -82.5678,22.6759 -79.1072,32.7673 -82.3307,34.1027 -82.381,34.1253 -82.4691,34.1672 -82.5942,34.2299 -82.7554,34.3153 -82.9517,34.4247 -83.1821,34.5599 -83.4457,34.7223 -83.7413,34.9134 -84.0677,35.1347 -84.4238,35.3877 -84.8084,35.6736 -85.2201,35.9939 -85.6576,36.3499 -86.1195,36.7428 -86.6045,37.1738 -87.111,37.6442 -87.6376,38.1551 -88.1827,38.7075 -88.7447,39.3024 -89.3221,39.941 -89.9132,40.6241 -90.5162,41.3525 -91.1296,42.1272 -91.7515,42.9489 -92.3802,43.8183 -93.0139,44.7362 -93.6507,45.703 -94.2888,46.7194 -94.9264,47.786 -95.5615,48.903 -96.1923,50.0709 -96.8167,51.2901 -97.4329,52.5607 -98.039,53.883 -98.1472,54.9852 -96.3322,58.1064 -95.3208,58.5574 -93.8718,58.6847 -92.4627,58.7776 -91.0942,58.8378 -89.7672,58.8673 -88.4822,58.8678 -87.2399,58.8411 -86.0409,58.7893 -84.8856,58.714 -83.7745,58.6172 -82.7079,58.5008 -81.6862,58.3667 -80.7095,58.2168 -79.7781,58.0529 -78.8921,57.8771 -78.0516,57.6911 -77.2565,57.4969 -76.5068,57.2963 -75.8023,57.0913 -75.143,56.8837 -74.5285,56.6755 -73.9585,56.4683 -73.4328,56.2641 -72.9508,56.0647 -72.512,55.8719 -72.1161,55.6875 -71.7623,55.5133 -71.45,55.3509 -71.1785,55.2022 -70.947,55.0687 -70.7548,54.9522 -70.6009,54.8544 -70.4845,54.7767 -70.4045,54.7209 -70.36,54.6883 -67.605,52.5472 -60.546,60.546 -63.0132,63.0134 -63.051,63.0535 -63.1163,63.1259 -63.2079,63.2318 -63.3241,63.3723 -63.4636,63.5485 -63.6248,63.7616 -63.8061,64.0125 -64.006,64.3022 -64.2229,64.6316 -64.4552,65.0015 -64.701,65.4129 -64.9588,65.8663 -65.2268,66.3626 -65.5032,66.9024 -65.7863,67.4862 -66.0742,68.1147 -66.3652,68.7881 -66.6575,69.5071 -66.949,70.2719 -67.2381,71.0828 -67.5228,71.94 -67.8012,72.8438 -68.0714,73.7942 -68.3315,74.7914 -68.5796,75.8352 -68.8138,76.9257 -69.0322,78.0626 -69.2328,79.2459 -69.4137,80.4752 -69.573,81.7503 -69.7087,83.0707 -69.8191,84.436 -69.9022,85.8457 -69.956,87.2993 -69.6343,88.359 -66.763,90.548 -65.656,90.5777 -64.2686,90.1408 -62.9312,89.6873 -61.6438,89.2193 -60.4065,88.7387 -59.2192,88.2474 -58.0817,87.7474 -56.9938,87.2406 -55.9552,86.729 -54.9657,86.2144 -54.0249,85.6987 -53.1322,85.1838 -52.2873,84.6715 -51.4895,84.1637 -50.7382,83.6621 -50.0328,83.1687 -49.3726,82.685 -48.7567,82.2128 -48.1843,81.7538 -47.6546,81.3097 -47.1666,80.8821 -46.7193,80.4726 -46.3117,80.0828 -45.9427,79.7141 -45.6111,79.3681 -45.3159,79.0462 -45.0557,78.7498 -44.8293,78.4803 -44.6354,78.239 -44.4726,78.0271 -44.3396,77.8459 -44.2349,77.6966 -44.157,77.5803 -44.1045,77.4981 -44.0758,77.451 -42.3499,74.4186 -32.7673,79.1072 -34.1024,82.3309 -34.122,82.3824 -34.1546,82.4743 -34.1987,82.6071 -34.2523,82.7814 -34.3137,82.9976 -34.3811,83.2562 -34.4526,83.5574 -34.5265,83.9015 -34.6008,84.2888 -34.6738,84.7195 -34.7435,85.1936 -34.8081,85.7112 -34.8658,86.2723 -34.9146,86.8768 -34.9527,87.5245 -34.9783,88.2153 -34.9894,88.9488 -34.9843,89.7249 -34.961,90.543 -34.9177,91.4028 -34.8527,92.3038 -34.764,93.2453 -34.6499,94.2268 -34.5087,95.2476 -34.3384,96.3069 -34.1375,97.404 -33.9041,98.538 -33.6366,99.7079 -33.3333,100.9129 -32.9926,102.1518 -32.6127,103.4237 -32.1922,104.7273 -31.7295,106.0615 -31.2229,107.4251 -30.5202,108.281 -27.0298,109.2046 -25.9957,108.8083 -24.881,107.8737 -23.819,106.943 -22.8087,106.018 -21.8495,105.1004 -20.9406,104.1922 -20.081,103.2949 -19.2698,102.4104 -18.5062,101.5403 -17.7889,100.6862 -17.117,99.8497 -16.4894,99.0323 -15.9048,98.2357 -15.362,97.4613 -14.8599,96.7104 -14.397,95.9845 -13.9721,95.285 -13.5838,94.6131 -13.2307,93.97 -12.9112,93.357 -12.624,92.7752 -12.3675,92.2257 -12.1401,91.7095 -11.9402,91.2277 -11.7663,90.7812 -11.6167,90.3708 -11.4898,89.9974 -11.3837,89.6618 -11.2969,89.3646 -11.2276,89.1066 -11.1741,88.8883 -11.1345,88.7103 -11.1071,88.573 -11.09,88.477 -11.0815,88.4225 -10.6475,84.9604 0,85.625 0.0002,89.1142 0.0018,89.1693 0.0068,89.2667 0.0169,89.4063 0.0341,89.5879 0.0601,89.8111 0.0968,90.0758 0.1459,90.3814 0.2094,90.7276 0.2889,91.1139 0.3863,91.5397 0.5034,92.0044 0.6417,92.5073 0.8032,93.0478 0.9894,93.6249 1.2021,94.2379 1.4428,94.8859 1.7132,95.5679 2.015,96.2829 2.3496,97.0298 2.7186,97.8076 3.1235,98.6151 3.5657,99.451 4.0467,100.3141 4.5678,101.2032 5.1305,102.1167 5.736,103.0534 6.3855,104.0117 7.0804,104.9903 7.8217,105.9874 8.6107,107.0017 9.4483,108.0314 10.3357,109.0748 11.2738,110.1304 12.2636,111.1963 13.2404,111.7181 16.8185,111.2357 17.6223,110.4739 18.2944,109.1839 18.9195,107.9176 19.4988,106.6763 20.0339,105.4616 20.5261,104.2746 20.9768,103.1167 21.3878,101.9891 21.7603,100.893 22.0961,99.8294 22.3968,98.7995 22.6639,97.8042 22.8991,96.8445 23.1042,95.9213 23.2807,95.0354 23.4306,94.1877 23.5554,93.3788 23.657,92.6094 23.7372,91.8801 23.7978,91.1915 23.8405,90.5441 23.8672,89.9383 23.8798,89.3744 23.88,88.8527 23.8698,88.3736 23.8509,87.9373 23.8253,87.5437 23.7949,87.193 23.7613,86.8853 23.7266,86.6204 23.6926,86.3982 23.661,86.2186 23.6339,86.0813 23.6128,85.9861 23.5998,85.9325 22.6759,82.5678 32.7673,79.1072 34.1027,82.3307 34.1253,82.381 34.1672,82.4691 34.2299,82.5942 34.3153,82.7554 34.4247,82.9517 34.5599,83.1821 34.7223,83.4457 34.9134,83.7413 35.1347,84.0677 35.3877,84.4238 35.6736,84.8084 35.9939,85.2201 36.3499,85.6576 36.7428,86.1195 37.1738,86.6045 37.6442,87.111 38.1551,87.6376 38.7075,88.1827 39.3024,88.7447 39.941,89.3221 40.6241,89.9132 41.3525,90.5162 42.1272,91.1296 42.9489,91.7515 43.8183,92.3802 44.7362,93.0139 45.703,93.6507 46.7194,94.2888 47.786,94.9264 48.903,95.5615 50.0709,96.1923 51.2901,96.8167 52.5607,97.4329 53.883,98.039 54.9852,98.1472 58.1064,96.3322 58.5574,95.3208 58.6847,93.8718 58.7776,92.4627 58.8378,91.0942 58.8673,89.7672 58.8678,88.4822 58.8411,87.2399 58.7893,86.0409 58.714,84.8856 58.6172,83.7745 58.5008,82.7079 58.3667,81.6862 58.2168,80.7095 58.0529,79.7781 57.8771,78.8921 57.6911,78.0516 57.4969,77.2565 57.2963,76.5068 57.0913,75.8023 56.8837,75.143 56.6755,74.5285 56.4683,73.9585 56.2641,73.4328 56.0647,72.9508 55.8719,72.512 55.6875,72.1161 55.5133,71.7623 55.3509,71.45 55.2022,71.1785 55.0687,70.947 54.9522,70.7548 54.8544,70.6009 54.7767,70.4845 54.7209,70.4045 54.6883,70.36 52.5472,67.605 60.546,60.546 63.0134,63.0132 63.0535,63.051 63.1259,63.1163 63.2318,63.2079 63.3723,63.3241 63.5485,63.4636 63.7616,63.6248 64.0125,63.8061 64.3022,64.006 64.6316,64.2229 65.0015,64.4552 65.4129,64.701 65.8663,64.9588 66.3626,65.2268 66.9024,65.5032 67.4862,65.7863 68.1147,66.0742 68.7881,66.3652 69.5071,66.6575 70.2719,66.949 71.0828,67.2381 71.94,67.5228 72.8438,67.8012 73.7942,68.0714 74.7914,68.3315 75.8352,68.5796 76.9257,68.8138 78.0626,69.0322 79.2459,69.2328 80.4752,69.4137 81.7503,69.573 83.0707,69.7087 84.436,69.8191 85.8457,69.9022 87.2993,69.956 88.359,69.6343 90.548,66.763 90.5777,65.656 90.1408,64.2686 89.6873,62.9312 89.2193,61.6438 88.7387,60.4065 88.2474,59.2192 87.7474,58.0817 87.2406,56.9938 86.729,55.9552 86.2144,54.9657 85.6987,54.0249 85.1838,53.1322 84.6715,52.2873 84.1637,51.4895 83.6621,50.7382 83.1687,50.0328 82.685,49.3726 82.2128,48.7567 81.7538,48.1843 81.3097,47.6546 80.8821,47.1666 80.4726,46.7193 80.0828,46.3117 79.7141,45.9427 79.3681,45.6111 79.0462,45.3159 78.7498,45.0557 78.4803,44.8293 78.239,44.6354 78.0271,44.4726 77.8459,44.3396 77.6966,44.2349 77.5803,44.157 77.4981,44.1045 77.451,44.0758 74.4186,42.3499 79.1072,32.7673 82.3309,34.1024 82.3824,34.122 82.4743,34.1546 82.6071,34.1987 82.7814,34.2523 82.9976,34.3137 83.2562,34.3811 83.5574,34.4526 83.9015,34.5265 84.2888,34.6008 84.7195,34.6738 85.1936,34.7435 85.7112,34.8081 86.2723,34.8658 86.8768,34.9146 87.5245,34.9527 88.2153,34.9783 88.9488,34.9894 89.7249,34.9843 90.543,34.961 91.4028,34.9177 92.3038,34.8527 93.2453,34.764 94.2268,34.6499 95.2476,34.5087 96.3069,34.3384 97.404,34.1375 98.538,33.9041 99.7079,33.6366 100.9129,33.3333 102.1518,32.9926 103.4237,32.6127 104.7273,32.1922 106.0615,31.7295 107.4251,31.2229 108.281,30.5202 109.2046,27.0298 108.8083,25.9957 107.8737,24.881 106.943,23.819 106.018,22.8087 105.1004,21.8495 104.1922,20.9406 103.2949,20.081 102.4104,19.2698 101.5403,18.5062 100.6862,17.7889 99.8497,17.117 99.0323,16.4894 98.2357,15.9048 97.4613,15.362 96.7104,14.8599 95.9845,14.397 95.285,13.9721 94.6131,13.5838 93.97,13.2307 93.357,12.9112 92.7752,12.624 92.2257,12.3675 91.7095,12.1401 91.2277,11.9402 90.7812,11.7663 90.3708,11.6167 89.9974,11.4898 89.6618,11.3837 89.3646,11.2969 89.1066,11.2276 88.8883,11.1741 88.7103,11.1345 88.573,11.1071 88.477,11.09 88.4225,11.0815 84.9604,10.6475 "/><g class="guides"><polyline fill="none" stroke="#444" stroke-width="0.5" stroke-miterlimit="10" points="10,0 -10,0"/><polyline fill="none" stroke="#444" stroke-width="0.5" stroke-miterlimit="10" points="0,10 0,-10"/></g><circle fill="#c00" class="firstmarker" stroke="none" stroke-miterlimit="10" cx="99.1034" cy="-13.3612" r="4.9063"/><g class="geartext"><g class="text"><polyline fill="none" stroke="#444" stroke-width="0.5" stroke-linecap="square" stroke-miterlimit="1"  points="5.18 -70.43 3.69 -70.53 2.19 -70.59 0.69 -70.62 -0.81 -70.62 "/><polyline fill="none" stroke="#444" stroke-width="0.5" stroke-linecap="square" stroke-miterlimit="1"  points="2.09 -67.59 2.28 -73.59 "/><polyline fill="none" stroke="#444" stroke-width="0.5" stroke-linecap="square" stroke-miterlimit="1"  points="5.4 -73.43 3.76 -72.03 2.19 -70.59 0.67 -69.12 -0.78 -67.62 "/><polyline fill="none" stroke="#444" stroke-width="0.5" stroke-linecap="square" stroke-miterlimit="1"  points="4.96 -67.44 3.61 -69.03 2.19 -70.59 0.7 -72.12 -0.85 -73.62 "/><polyline fill="none" stroke="#444" stroke-width="0.5" stroke-linecap="square" stroke-miterlimit="1"  points="12.08 -66.54 10.43 -65.3 9.04 -65.5 7.82 -67.17 8.52 -73.13 10.27 -74.42 11.85 -74.18 13.16 -72.44 12.08 -66.54 "/><polyline fill="none" stroke="#444" stroke-width="0.5" stroke-linecap="square" stroke-miterlimit="1"  points="30.17 -68.8 26.56 -60.56 26.12 -63.19 25.59 -65.83 24.96 -68.47 24.22 -71.11 21.32 -62.59 "/><polyline fill="none" stroke="#444" stroke-width="0.5" stroke-linecap="square" stroke-miterlimit="1"  points="37.13 -61.84 35.8 -62.61 34.47 -63.36 33.11 -64.07 31.74 -64.76 "/><polyline fill="none" stroke="#444" stroke-width="0.5" stroke-linecap="square" stroke-miterlimit="1"  points="35.58 -59.26 34.31 -60.01 33.03 -60.72 31.74 -61.41 30.42 -62.07 "/><polyline fill="none" stroke="#444" stroke-width="0.5" stroke-linecap="square" stroke-miterlimit="1"  points="40.54 -61.46 42.69 -61.82 37.58 -54.41 "/><polyline fill="none" stroke="#444" stroke-width="0.5" stroke-linecap="square" stroke-miterlimit="1"  points="38.73 -53.6 37.58 -54.41 36.41 -55.2 "/><polyline fill="none" stroke="#444" stroke-width="0.5" stroke-linecap="square" stroke-miterlimit="1"  points="43.75 -55.44 44.92 -54.5 46.07 -53.53 47.2 -52.54 47.27 -50.43 46.25 -49.34 44.19 -49.19 43.13 -50.12 42.06 -51.02 41.9 -53.08 44.68 -56.62 46.83 -56.81 49 -56.94 50.2 -55.89 "/><polyline fill="none" stroke="#444" stroke-width="0.5" stroke-linecap="square" stroke-miterlimit="1"  points="55.4 -43.8 56.32 -42.62 57.21 -41.41 58.08 -40.19 60.17 -39.77 61.42 -40.6 61.78 -42.75 60.86 -44.05 59.91 -45.33 58.93 -46.59 51.87 -41.01 "/><polyline fill="none" stroke="#444" stroke-width="0.5" stroke-linecap="square" stroke-miterlimit="1"  points="56.66 -34.09 61.8 -37.18 "/><polyline fill="none" stroke="#444" stroke-width="0.5" stroke-linecap="square" stroke-miterlimit="1"  points="63.09 -37.95 64.37 -38.73 "/><polyline fill="none" stroke="#444" stroke-width="0.5" stroke-linecap="square" stroke-miterlimit="1"  points="61.91 -27.21 59.96 -27.89 60.7 -29.82 67.43 -33.13 "/><polyline fill="none" stroke="#444" stroke-width="0.5" stroke-linecap="square" stroke-miterlimit="1"  points="66.03 -29.02 65.4 -30.42 64.74 -31.8 64.05 -33.17 63.33 -34.52 "/><polyline fill="none" stroke="#444" stroke-width="0.5" stroke-linecap="square" stroke-miterlimit="1"  points="63.43 -18.7 63.01 -20.04 62.57 -21.38 62.11 -22.7 63.01 -24.56 65.8 -25.65 67.74 -24.76 68.25 -23.32 68.73 -21.86 69.18 -20.4 "/><polyline fill="none" stroke="#444" stroke-width="0.5" stroke-linecap="square" stroke-miterlimit="1"  points="67.07 -16.72 68.88 -15.62 70.66 -14.45 70.95 -12.95 69.73 -11.2 65.29 -10.49 "/><polyline fill="none" stroke="#444" stroke-width="0.5" stroke-linecap="square" stroke-miterlimit="1"  points="64.16 -15.99 72.9 -18.17 "/><polyline fill="none" stroke="#444" stroke-width="0.5" stroke-linecap="square" stroke-miterlimit="1"  points="66.12 -0.7 66.12 0.7 66.09 2.11 66.03 3.51 67.44 5.02 73.42 5.47 75.02 3.99 75.09 2.39 75.12 0.8 75.12 -0.8 "/><polyline fill="none" stroke="#444" stroke-width="0.5" stroke-linecap="square" stroke-miterlimit="1"  points="75.12 0.8 66.12 0.7 "/><polyline fill="none" stroke="#444" stroke-width="0.5" stroke-linecap="square" stroke-miterlimit="1"  points="70.66 14.45 70.95 12.95 71.21 11.44 71.44 9.93 71.63 8.41 "/><polyline fill="none" stroke="#444" stroke-width="0.5" stroke-linecap="square" stroke-miterlimit="1"  points="67.72 13.85 68 12.41 68.25 10.96 68.47 9.51 68.65 8.06 "/><polyline fill="none" stroke="#444" stroke-width="0.5" stroke-linecap="square" stroke-miterlimit="1"  points="65.41 22.35 65.87 20.95 66.3 19.55 66.7 18.14 67.07 16.72 68.63 18.66 70.14 20.68 71.59 22.77 63.01 20.04 "/><polyline fill="none" stroke="#444" stroke-width="0.5" stroke-linecap="square" stroke-miterlimit="1"  points="62.71 32.48 62.01 33.8 61.28 35.11 60.52 36.41 61 38.48 62.27 39.29 64.37 38.73 65.18 37.35 65.96 35.96 66.71 34.55 58.72 30.41 "/><polyline fill="none" stroke="#444" stroke-width="0.5" stroke-linecap="square" stroke-miterlimit="1"  points="55.61 45.93 56.58 44.73 57.51 43.52 58.43 42.29 59.31 41.04 "/><polyline fill="none" stroke="#444" stroke-width="0.5" stroke-linecap="square" stroke-miterlimit="1"  points="53.3 44.01 54.22 42.87 55.12 41.71 56 40.53 56.84 39.33 "/><polyline fill="none" stroke="#444" stroke-width="0.5" stroke-linecap="square" stroke-miterlimit="1"  points="47.27 50.43 48.34 49.42 49.37 48.38 50.39 47.32 51.38 46.24 51.85 48.69 52.23 51.18 52.53 53.71 46.24 47.27 "/><polyline fill="none" stroke="#444" stroke-width="0.5" stroke-linecap="square" stroke-miterlimit="1"  points="40.14 58.11 38.89 58.95 37.63 59.76 36.35 60.55 35.8 62.61 36.55 63.91 38.67 64.41 40.03 63.57 41.37 62.71 42.69 61.82 37.58 54.41 "/><polyline fill="none" stroke="#444" stroke-width="0.5" stroke-linecap="square" stroke-miterlimit="1"  points="30.36 58.74 31.74 61.41 31.74 64.76 31.63 68.14 28.97 66.05 26.41 63.88 25.26 61.11 "/><polyline fill="none" stroke="#444" stroke-width="0.5" stroke-linecap="square" stroke-miterlimit="1"  points="31.74 61.41 30.42 62.07 29.1 62.7 27.76 63.31 26.41 63.88 "/><polyline fill="none" stroke="#444" stroke-width="0.5" stroke-linecap="square" stroke-miterlimit="1"  points="18.86 69.61 20.34 69.2 21.8 68.75 23.26 68.27 24.7 67.76 "/><polyline fill="none" stroke="#444" stroke-width="0.5" stroke-linecap="square" stroke-miterlimit="1"  points="18.08 66.72 19.49 66.32 20.89 65.89 22.29 65.43 23.67 64.94 "/><polyline fill="none" stroke="#444" stroke-width="0.5" stroke-linecap="square" stroke-miterlimit="1"  points="9.04 65.5 10.43 65.3 11.82 65.06 13.19 64.8 14.57 64.5 15.23 67.43 14.09 69.2 12.62 69.49 11.14 69.74 9.86 71.45 10.07 72.93 11.85 74.18 13.42 73.92 14.99 73.61 16.22 71.82 "/><polyline fill="none" stroke="#444" stroke-width="0.5" stroke-linecap="square" stroke-miterlimit="1"  points="7.1 74.79 5.51 74.92 3.92 75.02 2.33 75.09 0.73 75.12 2.19 70.59 3.45 66.03 "/></g></g><g class="guides gearguides" opacity="0.2"><circle class="pitch" fill="none" stroke="#f00" stroke-miterlimit="10" cx="0" cy="0" r="100"/><circle class="outer" fill="none" stroke="#ccc" stroke-miterlimit="10" stroke-dasharray="2,2" cx="0" cy="0" r="112.5"/><circle class="base" fill="none" stroke="#00f" stroke-miterlimit="10" stroke-dasharray="2,2" cx="0" cy="0" r="89.1"/></g></g><g transform="translate(350.00000000000006,496.41016151377545) rotate(-9083.329)"><polygon id="gearpoly1" data-id="1" class="gear" fill="#ddd" stroke="#444" stroke-width="1" stroke-miterlimit="10" points="285.6212,-1.4755 286.2864,-4.9701 286.984,-5.2549 287.6925,-5.5502 288.4118,-5.8562 289.1419,-6.173 289.8826,-6.5009 290.6338,-6.8399 291.3953,-7.1903 292.1671,-7.5522 292.9489,-7.9259 293.7408,-8.3114 294.5424,-8.7089 295.3538,-9.1186 296.1748,-9.5407 297.0052,-9.9753 297.8448,-10.4225 298.6937,-10.8826 299.5515,-11.3557 300.4182,-11.8419 301.2937,-12.3414 302.1777,-12.8544 303.0701,-13.381 303.9708,-13.9213 304.8796,-14.4755 305.7963,-15.0437 306.7209,-15.6261 307.6531,-16.2229 308.5928,-16.8341 309.5399,-17.46 310.494,-18.1006 311.4552,-18.7561 311.8976,-19.3939 311.5221,-24.7027 310.9943,-25.2719 309.9505,-25.7856 308.9156,-26.2855 307.8899,-26.7718 306.8735,-27.2447 305.8666,-27.7043 304.8692,-28.1507 303.8816,-28.5843 302.9038,-29.005 301.9361,-29.4132 300.9784,-29.8089 300.031,-30.1923 299.094,-30.5636 298.1675,-30.923 297.2516,-31.2706 296.3464,-31.6066 295.4521,-31.9312 294.5689,-32.2446 293.6967,-32.5469 292.8357,-32.8384 291.986,-33.1191 291.1478,-33.3893 290.3212,-33.6491 289.5061,-33.8988 288.7029,-34.1386 287.9115,-34.3685 287.132,-34.5888 286.3646,-34.7997 285.6093,-35.0014 284.8663,-35.194 284.1356,-35.3778 282.9851,-38.7439 282.9851,-38.7439 283.1885,-42.2954 283.8429,-42.6689 284.5068,-43.0541 285.1801,-43.4514 285.8625,-43.8608 286.5541,-44.2825 287.2546,-44.7167 287.9639,-45.1635 288.6818,-45.6231 289.4082,-46.0956 290.1429,-46.5811 290.8859,-47.0799 291.6368,-47.592 292.3957,-48.1176 293.1622,-48.6569 293.9363,-49.2099 294.7178,-49.7769 295.5066,-50.3579 296.3024,-50.9531 297.1052,-51.5626 297.9146,-52.1865 298.7307,-52.8251 299.5532,-53.4783 300.3819,-54.1464 301.2166,-54.8294 302.0572,-55.5276 302.9036,-56.2409 303.7555,-56.9696 304.6127,-57.7137 305.4751,-58.4733 306.3425,-59.2487 306.6979,-59.9388 305.6326,-65.1532 305.0351,-65.6486 303.9331,-66.0216 302.8418,-66.3822 301.7614,-66.7304 300.692,-67.0666 299.6337,-67.3908 298.5866,-67.7033 297.5509,-68.0043 296.5265,-68.2938 295.5138,-68.5721 294.5127,-68.8394 293.5233,-69.0959 292.5458,-69.3417 291.5803,-69.5771 290.6269,-69.8022 289.6856,-70.0172 288.7566,-70.2223 287.84,-70.4177 286.9358,-70.6036 286.0442,-70.7801 285.1652,-70.9476 284.2988,-71.106 283.4453,-71.2558 282.6047,-71.397 281.777,-71.5298 280.9623,-71.6545 280.1608,-71.7712 279.3724,-71.8801 278.5973,-71.9815 277.8355,-72.0754 277.087,-72.1623 275.507,-75.3494 275.507,-75.3494 275.2451,-78.8971 275.8452,-79.3527 276.4531,-79.8214 277.0688,-80.3031 277.692,-80.7981 278.3226,-81.3065 278.9604,-81.8284 279.6053,-82.364 280.2571,-82.9133 280.9156,-83.4766 281.5807,-84.0539 282.2521,-84.6454 282.9298,-85.2511 283.6136,-85.8713 284.3032,-86.506 284.9985,-87.1553 285.6993,-87.8194 286.4055,-88.4984 287.1168,-89.1924 287.8331,-89.9014 288.5542,-90.6257 289.28,-91.3653 290.0101,-92.1203 290.7445,-92.8909 291.483,-93.677 292.2253,-94.4789 292.9713,-95.2966 293.7208,-96.1302 294.4736,-96.9799 295.2294,-97.8456 295.9882,-98.7275 296.2505,-99.4581 294.5137,-104.4889 293.8566,-104.9021 292.7154,-105.128 291.5864,-105.3431 290.4698,-105.5473 289.3656,-105.741 288.274,-105.9244 287.1951,-106.0975 286.1289,-106.2606 285.0756,-106.414 284.0351,-106.5578 283.0077,-106.6921 281.9933,-106.8173 280.9922,-106.9334 280.0042,-107.0407 279.0295,-107.1395 278.0683,-107.2298 277.1204,-107.3119 276.1861,-107.3859 275.2654,-107.4522 274.3584,-107.5109 273.465,-107.5621 272.5854,-107.6062 271.7197,-107.6432 270.8678,-107.6735 270.0298,-107.6971 269.2059,-107.7144 268.396,-107.7255 267.6001,-107.7306 266.8184,-107.7299 266.0508,-107.7236 265.2974,-107.712 263.3149,-110.6657 263.3149,-110.6657 262.5922,-114.1488 263.1276,-114.6789 263.6692,-115.2229 264.2167,-115.7808 264.77,-116.3529 265.3289,-116.9393 265.8931,-117.54 266.4626,-118.1551 267.0371,-118.7849 267.6164,-119.4293 268.2005,-120.0884 268.789,-120.7625 269.3818,-121.4515 269.9788,-122.1556 270.5796,-122.8749 271.1842,-123.6095 271.7924,-124.3594 272.4039,-125.1247 273.0185,-125.9056 273.6362,-126.7021 274.2566,-127.5143 274.8796,-128.3423 275.5049,-129.1861 276.1325,-130.046 276.762,-130.9218 277.3933,-131.8137 278.0262,-132.7218 278.6605,-133.6461 279.2959,-134.5867 279.9323,-135.5437 280.5695,-136.5171 280.7341,-137.2757 278.3556,-142.0367 277.6502,-142.3606 276.4892,-142.4357 275.3418,-142.5015 274.2081,-142.5583 273.0881,-142.6062 271.9819,-142.6455 270.8896,-142.6763 269.8113,-142.6989 268.7469,-142.7134 267.6966,-142.7202 266.6604,-142.7193 265.6384,-142.7109 264.6306,-142.6954 263.6371,-142.6729 262.6579,-142.6435 261.6931,-142.6076 260.7426,-142.5653 259.8067,-142.5168 258.8852,-142.4623 257.9782,-142.4021 257.0858,-142.3363 256.208,-142.2651 255.3448,-142.1888 254.4963,-142.1076 253.6624,-142.0217 252.8432,-141.9313 252.0388,-141.8366 251.2491,-141.7377 250.4741,-141.635 249.7139,-141.5286 248.9685,-141.4188 246.6174,-144.0884 246.6174,-144.0884 245.4462,-147.4474 245.908,-148.0428 246.3739,-148.6528 246.8439,-149.2775 247.3178,-149.9169 247.7953,-150.5712 248.2763,-151.2404 248.7606,-151.9246 249.248,-152.624 249.7383,-153.3385 250.2313,-154.0683 250.7268,-154.8134 251.2246,-155.5739 251.7245,-156.3499 252.2264,-157.1414 252.7299,-157.9486 253.235,-158.7715 253.7414,-159.6101 254.2489,-160.4645 254.7572,-161.3348 255.2663,-162.2211 255.7759,-163.1233 256.2858,-164.0416 256.7957,-164.9759 257.3055,-165.9264 257.815,-166.8931 258.324,-167.876 258.8322,-168.8752 259.3394,-169.8907 259.8454,-170.9226 260.3501,-171.9708 260.4143,-172.7444 257.4347,-177.1542 256.693,-177.3833 255.5322,-177.3062 254.386,-177.2217 253.2546,-177.13 252.1379,-177.0313 251.0361,-176.9259 249.9491,-176.8139 248.877,-176.6955 247.8199,-176.571 246.7777,-176.4406 245.7505,-176.3045 244.7383,-176.1628 243.7412,-176.0159 242.7591,-175.8638 241.7921,-175.7069 240.8402,-175.5454 239.9034,-175.3793 238.9818,-175.2091 238.0753,-175.0348 237.184,-174.8567 236.3078,-174.675 235.4468,-174.4899 234.6009,-174.3016 233.7703,-174.1103 232.9547,-173.9163 232.1544,-173.7197 231.3692,-173.5208 230.5991,-173.3197 229.8442,-173.1168 229.1044,-172.9121 228.3797,-172.7059 225.7003,-175.0458 225.7003,-175.0458 224.1007,-178.2232 224.4807,-178.8738 224.8631,-179.5394 225.2475,-180.22 225.6338,-180.9158 226.0219,-181.6268 226.4114,-182.3531 226.8023,-183.0947 227.1942,-183.8516 227.5871,-184.624 227.9806,-185.4119 228.3746,-186.2153 228.7689,-187.0343 229.1632,-187.8689 229.5575,-188.7192 229.9514,-189.5852 230.3447,-190.467 230.7373,-191.3645 231.1289,-192.2779 231.5193,-193.2071 231.9084,-194.1522 232.2958,-195.1132 232.6815,-196.0902 233.0651,-197.0831 233.4465,-198.092 233.8255,-199.1169 234.2018,-200.1579 234.5752,-201.2148 234.9455,-202.2879 235.3126,-203.377 235.6761,-204.4821 235.6388,-205.2574 232.109,-209.2406 231.3438,-209.3709 230.203,-209.143 229.0776,-208.9096 227.9679,-208.671 226.8736,-208.4274 225.795,-208.179 224.7319,-207.9261 223.6845,-207.6688 222.6526,-207.4074 221.6364,-207.1421 220.6357,-206.873 219.6507,-206.6005 218.6813,-206.3246 217.7274,-206.0457 216.7892,-205.7639 215.8665,-205.4795 214.9594,-205.1926 214.0679,-204.9035 213.1919,-204.6124 212.3314,-204.3195 211.4865,-204.025 210.657,-203.7291 209.843,-203.432 209.0444,-203.1339 208.2611,-202.8351 207.4933,-202.5357 206.7408,-202.236 206.0036,-201.9362 205.2816,-201.6364 204.5748,-201.3369 203.8833,-201.0379 200.9213,-203.008 200.9213,-203.008 198.9207,-205.9494 199.2125,-206.6441 199.5047,-207.3539 199.797,-208.0789 200.0893,-208.8192 200.3812,-209.5748 200.6726,-210.3457 200.9633,-211.1319 201.2531,-211.9336 201.5417,-212.7506 201.8291,-213.5831 202.1148,-214.4311 202.3989,-215.2945 202.6809,-216.1735 202.9608,-217.068 203.2383,-217.978 203.5131,-218.9035 203.7852,-219.8446 204.0543,-220.8013 204.3201,-221.7735 204.5824,-222.7613 204.8411,-223.7647 205.096,-224.7836 205.3467,-225.8181 205.5932,-226.8682 205.8351,-227.9338 206.0723,-229.0149 206.3045,-230.1116 206.5317,-231.2238 206.7534,-232.3515 206.9696,-233.4946 206.8314,-234.2585 202.8119,-237.7469 202.0363,-237.7762 200.9349,-237.4012 199.8497,-237.023 198.7805,-236.6416 197.7275,-236.2572 196.6905,-235.8702 195.6695,-235.4807 194.6646,-235.0889 193.6757,-234.695 192.7028,-234.2993 191.7458,-233.9019 190.8048,-233.5031 189.8796,-233.1031 188.9704,-232.7021 188.0769,-232.3003 187.1993,-231.8978 186.3374,-231.495 185.4912,-231.092 184.6608,-230.6891 183.8459,-230.2863 183.0466,-229.884 182.2628,-229.4824 181.4945,-229.0816 180.7417,-228.6819 180.0041,-228.2834 179.2819,-227.8863 178.575,-227.491 177.8832,-227.0975 177.2065,-226.706 176.5449,-226.3168 175.8983,-225.9301 172.7046,-227.4968 172.7046,-227.4968 170.3371,-230.1519 170.5358,-230.8787 170.7328,-231.6205 170.928,-232.3775 171.1211,-233.1496 171.3119,-233.9368 171.5002,-234.7392 171.6858,-235.5566 171.8685,-236.3892 172.048,-237.237 172.2242,-238.0999 172.3968,-238.9779 172.5657,-239.871 172.7306,-240.7793 172.8914,-241.7026 173.0477,-242.641 173.1994,-243.5946 173.3463,-244.5631 173.4882,-245.5467 173.6248,-246.5453 173.756,-247.5589 173.8815,-248.5875 174.0012,-249.631 174.1148,-250.6893 174.222,-251.7626 174.3228,-252.8507 174.4169,-253.9535 174.504,-255.0711 174.584,-256.2034 174.6566,-257.3504 174.7217,-258.512 174.485,-259.2513 170.0447,-262.1852 169.2718,-262.113 168.2288,-261.5975 167.2022,-261.0808 166.192,-260.5631 165.1981,-260.0446 164.2205,-259.5256 163.2591,-259.0061 162.314,-258.4865 161.3849,-257.9669 160.472,-257.4476 159.5751,-256.9287 158.6941,-256.4105 157.8291,-255.8932 156.98,-255.3769 156.1466,-254.8619 155.329,-254.3483 154.5271,-253.8365 153.7408,-253.3265 152.97,-252.8185 152.2147,-252.3129 151.4747,-251.8097 150.7501,-251.3092 150.0407,-250.8116 149.3464,-250.317 148.6672,-249.8256 148.003,-249.3377 147.3537,-248.8535 146.7192,-248.373 146.0994,-247.8966 145.4943,-247.4244 144.9037,-246.9565 141.5328,-248.093 141.5328,-248.093 138.839,-250.4163 138.9411,-251.1628 139.0396,-251.9241 139.1343,-252.7001 139.225,-253.4908 139.3114,-254.2961 139.3934,-255.1162 139.4707,-255.9509 139.5431,-256.8002 139.6105,-257.6642 139.6725,-258.5427 139.7291,-259.4357 139.78,-260.3432 139.8249,-261.2652 139.8637,-262.2017 139.8962,-263.1525 139.9222,-264.1176 139.9414,-265.0971 139.9537,-266.0908 139.9588,-267.0987 139.9566,-268.1207 139.9468,-269.1569 139.9292,-270.207 139.9037,-271.2712 139.8699,-272.3493 139.8278,-273.4412 139.7771,-274.5469 139.7176,-275.6663 139.6491,-276.7994 139.5715,-277.946 139.4844,-279.1062 139.1532,-279.8082 134.3679,-282.1374 133.611,-281.965 132.6443,-281.3178 131.6939,-280.6715 130.7599,-280.0264 129.8422,-279.3826 128.9407,-278.7404 128.0554,-278.0999 127.1861,-277.4613 126.3328,-276.8249 125.4955,-276.1909 124.6739,-275.5594 123.8682,-274.9306 123.0781,-274.3048 122.3036,-273.6821 121.5446,-273.0627 120.8011,-272.4468 120.0728,-271.8347 119.3598,-271.2264 118.6619,-270.6222 117.979,-270.0223 117.3111,-269.4269 116.6579,-268.8361 116.0196,-268.2501 115.3958,-267.6691 114.7866,-267.0933 114.1917,-266.5229 113.6112,-265.958 113.0448,-265.3989 112.4925,-264.8456 111.9542,-264.2984 111.4297,-263.7575 107.9393,-264.4442 107.9393,-264.4442 104.9653,-266.3961 104.9691,-267.1496 104.9674,-267.9172 104.96,-268.6989 104.9467,-269.4946 104.9273,-270.3044 104.9015,-271.1281 104.8692,-271.9658 104.8301,-272.8173 104.7842,-273.6826 104.731,-274.5617 104.6705,-275.4545 104.6025,-276.3609 104.5267,-277.2809 104.443,-278.2144 104.3511,-279.1613 104.2509,-280.1216 104.1421,-281.0952 104.0246,-282.082 103.8981,-283.0819 103.7625,-284.0949 103.6175,-285.1209 103.463,-286.1598 103.2988,-287.2115 103.1246,-288.276 102.9403,-289.353 102.7457,-290.4427 102.5406,-291.5447 102.3249,-292.6592 102.0982,-293.7859 101.8604,-294.9247 101.4404,-295.5775 96.392,-297.2622 95.6642,-296.9924 94.7901,-296.2246 93.9323,-295.4598 93.0905,-294.6983 92.2646,-293.9402 91.4547,-293.1858 90.6605,-292.4353 89.882,-291.6887 89.1191,-290.9464 88.3717,-290.2085 87.6396,-289.4752 86.9228,-288.7466 86.2212,-288.023 85.5346,-287.3045 84.863,-286.5914 84.2061,-285.8837 83.564,-285.1817 82.9365,-284.4856 82.3234,-283.7955 81.7247,-283.1116 81.1402,-282.4341 80.5698,-281.763 80.0133,-281.0987 79.4708,-280.4413 78.9419,-279.7909 78.4266,-279.1478 77.9247,-278.5119 77.4362,-277.8836 76.9609,-277.263 76.4986,-276.6503 76.0491,-276.0455 72.499,-276.2708 72.499,-276.2708 69.2956,-277.8178 69.2011,-278.5653 69.0992,-279.3261 68.9899,-280.1001 68.8728,-280.8874 68.7478,-281.6877 68.6147,-282.501 68.4734,-283.3273 68.3235,-284.1664 68.165,-285.0183 67.9975,-285.8829 67.821,-286.7602 67.6353,-287.65 67.4401,-288.5522 67.2352,-289.4668 67.0205,-290.3936 66.7958,-291.3326 66.5609,-292.2836 66.3155,-293.2466 66.0596,-294.2215 65.7929,-295.2082 65.5153,-296.2065 65.2265,-297.2163 64.9264,-298.2376 64.6148,-299.2702 64.2915,-300.314 63.9564,-301.3689 63.6092,-302.4348 63.2498,-303.5115 62.878,-304.599 62.4936,-305.6971 61.992,-306.2895 56.7669,-307.3008 56.0805,-306.9383 55.3141,-306.063 54.5634,-305.1927 53.8282,-304.3279 53.1084,-303.4685 52.4038,-302.6148 51.7144,-301.767 51.04,-300.9252 50.3806,-300.0897 49.7358,-299.2605 49.1058,-298.4379 48.4902,-297.622 47.889,-296.813 47.3021,-296.0111 46.7293,-295.2164 46.1704,-294.4291 45.6254,-293.6493 45.0941,-292.8772 44.5764,-292.113 44.072,-291.3567 43.581,-290.6087 43.103,-289.869 42.6381,-289.1377 42.1859,-288.4151 41.7465,-287.7013 41.3195,-286.9963 40.905,-286.3004 40.5026,-285.6138 40.1124,-284.9364 39.734,-284.2686 39.3674,-283.6103 35.8182,-283.3703 35.8182,-283.3703 32.4403,-284.4859 32.249,-285.2147 32.0487,-285.9557 31.8392,-286.7088 31.6204,-287.474 31.392,-288.2512 31.1539,-289.0402 30.9059,-289.8409 30.6478,-290.6533 30.3794,-291.4773 30.1006,-292.3126 29.8111,-293.1593 29.5108,-294.0173 29.1995,-294.8863 28.877,-295.7663 28.5432,-296.6572 28.1978,-297.5588 27.8408,-298.471 27.4718,-299.3938 27.0909,-300.3269 26.6977,-301.2703 26.2921,-302.2238 25.874,-303.1873 25.4431,-304.1607 24.9994,-305.1438 24.5426,-306.1365 24.0727,-307.1386 23.5893,-308.1501 23.0924,-309.1707 22.5819,-310.2003 22.0575,-311.2388 21.4828,-311.7607 16.1704,-312.0813 15.5372,-311.6324 14.8917,-310.6645 14.261,-309.7037 13.6449,-308.7503 13.0435,-307.8043 12.4564,-306.866 11.8835,-305.9354 11.3248,-305.0129 10.78,-304.0984 10.249,-303.1921 9.7317,-302.2943 9.2279,-301.4051 8.7375,-300.5245 8.2602,-299.6529 7.796,-298.7902 7.3447,-297.9366 6.9062,-297.0924 6.4802,-296.2575 6.0666,-295.4323 5.6653,-294.6167 5.2761,-293.811 4.8988,-293.0152 4.5332,-292.2295 4.1793,-291.4541 3.8368,-290.689 3.5055,-289.9343 3.1853,-289.1903 2.8761,-288.457 2.5775,-287.7345 2.2896,-287.0229 2.012,-286.3225 -1.4755,-285.6212 -1.4755,-285.6212 -4.9701,-286.2864 -5.2549,-286.984 -5.5502,-287.6925 -5.8562,-288.4118 -6.173,-289.1419 -6.5009,-289.8826 -6.8399,-290.6338 -7.1903,-291.3953 -7.5522,-292.1671 -7.9259,-292.9489 -8.3114,-293.7408 -8.7089,-294.5424 -9.1186,-295.3538 -9.5407,-296.1748 -9.9753,-297.0052 -10.4225,-297.8448 -10.8826,-298.6937 -11.3557,-299.5515 -11.8419,-300.4182 -12.3414,-301.2937 -12.8544,-302.1777 -13.381,-303.0701 -13.9213,-303.9708 -14.4755,-304.8796 -15.0437,-305.7963 -15.6261,-306.7209 -16.2229,-307.6531 -16.8341,-308.5928 -17.46,-309.5399 -18.1006,-310.494 -18.7561,-311.4552 -19.3939,-311.8976 -24.7027,-311.5221 -25.2719,-310.9943 -25.7856,-309.9505 -26.2855,-308.9156 -26.7718,-307.8899 -27.2447,-306.8735 -27.7043,-305.8666 -28.1507,-304.8692 -28.5843,-303.8816 -29.005,-302.9038 -29.4132,-301.9361 -29.8089,-300.9784 -30.1923,-300.031 -30.5636,-299.094 -30.923,-298.1675 -31.2706,-297.2516 -31.6066,-296.3464 -31.9312,-295.4521 -32.2446,-294.5689 -32.5469,-293.6967 -32.8384,-292.8357 -33.1191,-291.986 -33.3893,-291.1478 -33.6491,-290.3212 -33.8988,-289.5061 -34.1386,-288.7029 -34.3685,-287.9115 -34.5888,-287.132 -34.7997,-286.3646 -35.0014,-285.6093 -35.194,-284.8663 -35.3778,-284.1356 -38.7439,-282.9851 -38.7439,-282.9851 -42.2954,-283.1885 -42.6689,-283.8429 -43.0541,-284.5068 -43.4514,-285.1801 -43.8608,-285.8625 -44.2825,-286.5541 -44.7167,-287.2546 -45.1635,-287.9639 -45.6231,-288.6818 -46.0956,-289.4082 -46.5811,-290.1429 -47.0799,-290.8859 -47.592,-291.6368 -48.1176,-292.3957 -48.6569,-293.1622 -49.2099,-293.9363 -49.7769,-294.7178 -50.3579,-295.5066 -50.9531,-296.3024 -51.5626,-297.1052 -52.1865,-297.9146 -52.8251,-298.7307 -53.4783,-299.5532 -54.1464,-300.3819 -54.8294,-301.2166 -55.5276,-302.0572 -56.2409,-302.9036 -56.9696,-303.7555 -57.7137,-304.6127 -58.4733,-305.4751 -59.2487,-306.3425 -59.9388,-306.6979 -65.1532,-305.6326 -65.6486,-305.0351 -66.0216,-303.9331 -66.3822,-302.8418 -66.7304,-301.7614 -67.0666,-300.692 -67.3908,-299.6337 -67.7033,-298.5866 -68.0043,-297.5509 -68.2938,-296.5265 -68.5721,-295.5138 -68.8394,-294.5127 -69.0959,-293.5233 -69.3417,-292.5458 -69.5771,-291.5803 -69.8022,-290.6269 -70.0172,-289.6856 -70.2223,-288.7566 -70.4177,-287.84 -70.6036,-286.9358 -70.7801,-286.0442 -70.9476,-285.1652 -71.106,-284.2988 -71.2558,-283.4453 -71.397,-282.6047 -71.5298,-281.777 -71.6545,-280.9623 -71.7712,-280.1608 -71.8801,-279.3724 -71.9815,-278.5973 -72.0754,-277.8355 -72.1623,-277.087 -75.3494,-275.507 -75.3494,-275.507 -78.8971,-275.2451 -79.3527,-275.8452 -79.8214,-276.4531 -80.3031,-277.0688 -80.7981,-277.692 -81.3065,-278.3226 -81.8284,-278.9604 -82.364,-279.6053 -82.9133,-280.2571 -83.4766,-280.9156 -84.0539,-281.5807 -84.6454,-282.2521 -85.2511,-282.9298 -85.8713,-283.6136 -86.506,-284.3032 -87.1553,-284.9985 -87.8194,-285.6993 -88.4984,-286.4055 -89.1924,-287.1168 -89.9014,-287.8331 -90.6257,-288.5542 -91.3653,-289.28 -92.1203,-290.0101 -92.8909,-290.7445 -93.677,-291.483 -94.4789,-292.2253 -95.2966,-292.9713 -96.1302,-293.7208 -96.9799,-294.4736 -97.8456,-295.2294 -98.7275,-295.9882 -99.4581,-296.2505 -104.4889,-294.5137 -104.9021,-293.8566 -105.128,-292.7154 -105.3431,-291.5864 -105.5473,-290.4698 -105.741,-289.3656 -105.9244,-288.274 -106.0975,-287.1951 -106.2606,-286.1289 -106.414,-285.0756 -106.5578,-284.0351 -106.6921,-283.0077 -106.8173,-281.9933 -106.9334,-280.9922 -107.0407,-280.0042 -107.1395,-279.0295 -107.2298,-278.0683 -107.3119,-277.1204 -107.3859,-276.1861 -107.4522,-275.2654 -107.5109,-274.3584 -107.5621,-273.465 -107.6062,-272.5854 -107.6432,-271.7197 -107.6735,-270.8678 -107.6971,-270.0298 -107.7144,-269.2059 -107.7255,-268.396 -107.7306,-267.6001 -107.7299,-266.8184 -107.7236,-266.0508 -107.712,-265.2974 -110.6657,-263.3149 -110.6657,-263.3149 -114.1488,-262.5922 -114.6789,-263.1276 -115.2229,-263.6692 -115.7808,-264.2167 -116.3529,-264.77 -116.9393,-265.3289 -117.54,-265.8931 -118.1551,-266.4626 -118.7849,-267.0371 -119.4293,-267.6164 -120.0884,-268.2005 -120.7625,-268.789 -121.4515,-269.3818 -122.1556,-269.9788 -122.8749,-270.5796 -123.6095,-271.1842 -124.3594,-271.7924 -125.1247,-272.4039 -125.9056,-273.0185 -126.7021,-273.6362 -127.5143,-274.2566 -128.3423,-274.8796 -129.1861,-275.5049 -130.046,-276.1325 -130.9218,-276.762 -131.8137,-277.3933 -132.7218,-278.0262 -133.6461,-278.6605 -134.5867,-279.2959 -135.5437,-279.9323 -136.5171,-280.5695 -137.2757,-280.7341 -142.0367,-278.3556 -142.3606,-277.6502 -142.4357,-276.4892 -142.5015,-275.3418 -142.5583,-274.2081 -142.6062,-273.0881 -142.6455,-271.9819 -142.6763,-270.8896 -142.6989,-269.8113 -142.7134,-268.7469 -142.7202,-267.6966 -142.7193,-266.6604 -142.7109,-265.6384 -142.6954,-264.6306 -142.6729,-263.6371 -142.6435,-262.6579 -142.6076,-261.6931 -142.5653,-260.7426 -142.5168,-259.8067 -142.4623,-258.8852 -142.4021,-257.9782 -142.3363,-257.0858 -142.2651,-256.208 -142.1888,-255.3448 -142.1076,-254.4963 -142.0217,-253.6624 -141.9313,-252.8432 -141.8366,-252.0388 -141.7377,-251.2491 -141.635,-250.4741 -141.5286,-249.7139 -141.4188,-248.9685 -144.0884,-246.6174 -144.0884,-246.6174 -147.4474,-245.4462 -148.0428,-245.908 -148.6528,-246.3739 -149.2775,-246.8439 -149.9169,-247.3178 -150.5712,-247.7953 -151.2404,-248.2763 -151.9246,-248.7606 -152.624,-249.248 -153.3385,-249.7383 -154.0683,-250.2313 -154.8134,-250.7268 -155.5739,-251.2246 -156.3499,-251.7245 -157.1414,-252.2264 -157.9486,-252.7299 -158.7715,-253.235 -159.6101,-253.7414 -160.4645,-254.2489 -161.3348,-254.7572 -162.2211,-255.2663 -163.1233,-255.7759 -164.0416,-256.2858 -164.9759,-256.7957 -165.9264,-257.3055 -166.8931,-257.815 -167.876,-258.324 -168.8752,-258.8322 -169.8907,-259.3394 -170.9226,-259.8454 -171.9708,-260.3501 -172.7444,-260.4143 -177.1542,-257.4347 -177.3833,-256.693 -177.3062,-255.5322 -177.2217,-254.386 -177.13,-253.2546 -177.0313,-252.1379 -176.9259,-251.0361 -176.8139,-249.9491 -176.6955,-248.877 -176.571,-247.8199 -176.4406,-246.7777 -176.3045,-245.7505 -176.1628,-244.7383 -176.0159,-243.7412 -175.8638,-242.7591 -175.7069,-241.7921 -175.5454,-240.8402 -175.3793,-239.9034 -175.2091,-238.9818 -175.0348,-238.0753 -174.8567,-237.184 -174.675,-236.3078 -174.4899,-235.4468 -174.3016,-234.6009 -174.1103,-233.7703 -173.9163,-232.9547 -173.7197,-232.1544 -173.5208,-231.3692 -173.3197,-230.5991 -173.1168,-229.8442 -172.9121,-229.1044 -172.7059,-228.3797 -175.0458,-225.7003 -175.0458,-225.7003 -178.2232,-224.1007 -178.8738,-224.4807 -179.5394,-224.8631 -180.22,-225.2475 -180.9158,-225.6338 -181.6268,-226.0219 -182.3531,-226.4114 -183.0947,-226.8023 -183.8516,-227.1942 -184.624,-227.5871 -185.4119,-227.9806 -186.2153,-228.3746 -187.0343,-228.7689 -187.8689,-229.1632 -188.7192,-229.5575 -189.5852,-229.9514 -190.467,-230.3447 -191.3645,-230.7373 -192.2779,-231.1289 -193.2071,-231.5193 -194.1522,-231.9084 -195.1132,-232.2958 -196.0902,-232.6815 -197.0831,-233.0651 -198.092,-233.4465 -199.1169,-233.8255 -200.1579,-234.2018 -201.2148,-234.5752 -202.2879,-234.9455 -203.377,-235.3126 -204.4821,-235.6761 -205.2574,-235.6388 -209.2406,-232.109 -209.3709,-231.3438 -209.143,-230.203 -208.9096,-229.0776 -208.671,-227.9679 -208.4274,-226.8736 -208.179,-225.795 -207.9261,-224.7319 -207.6688,-223.6845 -207.4074,-222.6526 -207.1421,-221.6364 -206.873,-220.6357 -206.6005,-219.6507 -206.3246,-218.6813 -206.0457,-217.7274 -205.7639,-216.7892 -205.4795,-215.8665 -205.1926,-214.9594 -204.9035,-214.0679 -204.6124,-213.1919 -204.3195,-212.3314 -204.025,-211.4865 -203.7291,-210.657 -203.432,-209.843 -203.1339,-209.0444 -202.8351,-208.2611 -202.5357,-207.4933 -202.236,-206.7408 -201.9362,-206.0036 -201.6364,-205.2816 -201.3369,-204.5748 -201.0379,-203.8833 -203.008,-200.9213 -203.008,-200.9213 -205.9494,-198.9207 -206.6441,-199.2125 -207.3539,-199.5047 -208.0789,-199.797 -208.8192,-200.0893 -209.5748,-200.3812 -210.3457,-200.6726 -211.1319,-200.9633 -211.9336,-201.2531 -212.7506,-201.5417 -213.5831,-201.8291 -214.4311,-202.1148 -215.2945,-202.3989 -216.1735,-202.6809 -217.068,-202.9608 -217.978,-203.2383 -218.9035,-203.5131 -219.8446,-203.7852 -220.8013,-204.0543 -221.7735,-204.3201 -222.7613,-204.5824 -223.7647,-204.8411 -224.7836,-205.096 -225.8181,-205.3467 -226.8682,-205.5932 -227.9338,-205.8351 -229.0149,-206.0723 -230.1116,-206.3045 -231.2238,-206.5317 -232.3515,-206.7534 -233.4946,-206.9696 -234.2585,-206.8314 -237.7469,-202.8119 -237.7762,-202.0363 -237.4012,-200.9349 -237.023,-199.8497 -236.6416,-198.7805 -236.2572,-197.7275 -235.8702,-196.6905 -235.4807,-195.6695 -235.0889,-194.6646 -234.695,-193.6757 -234.2993,-192.7028 -233.9019,-191.7458 -233.5031,-190.8048 -233.1031,-189.8796 -232.7021,-188.9704 -232.3003,-188.0769 -231.8978,-187.1993 -231.495,-186.3374 -231.092,-185.4912 -230.6891,-184.6608 -230.2863,-183.8459 -229.884,-183.0466 -229.4824,-182.2628 -229.0816,-181.4945 -228.6819,-180.7417 -228.2834,-180.0041 -227.8863,-179.2819 -227.491,-178.575 -227.0975,-177.8832 -226.706,-177.2065 -226.3168,-176.5449 -225.9301,-175.8983 -227.4968,-172.7046 -227.4968,-172.7046 -230.1519,-170.3371 -230.8787,-170.5358 -231.6205,-170.7328 -232.3775,-170.928 -233.1496,-171.1211 -233.9368,-171.3119 -234.7392,-171.5002 -235.5566,-171.6858 -236.3892,-171.8685 -237.237,-172.048 -238.0999,-172.2242 -238.9779,-172.3968 -239.871,-172.5657 -240.7793,-172.7306 -241.7026,-172.8914 -242.641,-173.0477 -243.5946,-173.1994 -244.5631,-173.3463 -245.5467,-173.4882 -246.5453,-173.6248 -247.5589,-173.756 -248.5875,-173.8815 -249.631,-174.0012 -250.6893,-174.1148 -251.7626,-174.222 -252.8507,-174.3228 -253.9535,-174.4169 -255.0711,-174.504 -256.2034,-174.584 -257.3504,-174.6566 -258.512,-174.7217 -259.2513,-174.485 -262.1852,-170.0447 -262.113,-169.2718 -261.5975,-168.2288 -261.0808,-167.2022 -260.5631,-166.192 -260.0446,-165.1981 -259.5256,-164.2205 -259.0061,-163.2591 -258.4865,-162.314 -257.9669,-161.3849 -257.4476,-160.472 -256.9287,-159.5751 -256.4105,-158.6941 -255.8932,-157.8291 -255.3769,-156.98 -254.8619,-156.1466 -254.3483,-155.329 -253.8365,-154.5271 -253.3265,-153.7408 -252.8185,-152.97 -252.3129,-152.2147 -251.8097,-151.4747 -251.3092,-150.7501 -250.8116,-150.0407 -250.317,-149.3464 -249.8256,-148.6672 -249.3377,-148.003 -248.8535,-147.3537 -248.373,-146.7192 -247.8966,-146.0994 -247.4244,-145.4943 -246.9565,-144.9037 -248.093,-141.5328 -248.093,-141.5328 -250.4163,-138.839 -251.1628,-138.9411 -251.9241,-139.0396 -252.7001,-139.1343 -253.4908,-139.225 -254.2961,-139.3114 -255.1162,-139.3934 -255.9509,-139.4707 -256.8002,-139.5431 -257.6642,-139.6105 -258.5427,-139.6725 -259.4357,-139.7291 -260.3432,-139.78 -261.2652,-139.8249 -262.2017,-139.8637 -263.1525,-139.8962 -264.1176,-139.9222 -265.0971,-139.9414 -266.0908,-139.9537 -267.0987,-139.9588 -268.1207,-139.9566 -269.1569,-139.9468 -270.207,-139.9292 -271.2712,-139.9037 -272.3493,-139.8699 -273.4412,-139.8278 -274.5469,-139.7771 -275.6663,-139.7176 -276.7994,-139.6491 -277.946,-139.5715 -279.1062,-139.4844 -279.8082,-139.1532 -282.1374,-134.3679 -281.965,-133.611 -281.3178,-132.6443 -280.6715,-131.6939 -280.0264,-130.7599 -279.3826,-129.8422 -278.7404,-128.9407 -278.0999,-128.0554 -277.4613,-127.1861 -276.8249,-126.3328 -276.1909,-125.4955 -275.5594,-124.6739 -274.9306,-123.8682 -274.3048,-123.0781 -273.6821,-122.3036 -273.0627,-121.5446 -272.4468,-120.8011 -271.8347,-120.0728 -271.2264,-119.3598 -270.6222,-118.6619 -270.0223,-117.979 -269.4269,-117.3111 -268.8361,-116.6579 -268.2501,-116.0196 -267.6691,-115.3958 -267.0933,-114.7866 -266.5229,-114.1917 -265.958,-113.6112 -265.3989,-113.0448 -264.8456,-112.4925 -264.2984,-111.9542 -263.7575,-111.4297 -264.4442,-107.9393 -264.4442,-107.9393 -266.3961,-104.9653 -267.1496,-104.9691 -267.9172,-104.9674 -268.6989,-104.96 -269.4946,-104.9467 -270.3044,-104.9273 -271.1281,-104.9015 -271.9658,-104.8692 -272.8173,-104.8301 -273.6826,-104.7842 -274.5617,-104.731 -275.4545,-104.6705 -276.3609,-104.6025 -277.2809,-104.5267 -278.2144,-104.443 -279.1613,-104.3511 -280.1216,-104.2509 -281.0952,-104.1421 -282.082,-104.0246 -283.0819,-103.8981 -284.0949,-103.7625 -285.1209,-103.6175 -286.1598,-103.463 -287.2115,-103.2988 -288.276,-103.1246 -289.353,-102.9403 -290.4427,-102.7457 -291.5447,-102.5406 -292.6592,-102.3249 -293.7859,-102.0982 -294.9247,-101.8604 -295.5775,-101.4404 -297.2622,-96.392 -296.9924,-95.6642 -296.2246,-94.7901 -295.4598,-93.9323 -294.6983,-93.0905 -293.9402,-92.2646 -293.1858,-91.4547 -292.4353,-90.6605 -291.6887,-89.882 -290.9464,-89.1191 -290.2085,-88.3717 -289.4752,-87.6396 -288.7466,-86.9228 -288.023,-86.2212 -287.3045,-85.5346 -286.5914,-84.863 -285.8837,-84.2061 -285.1817,-83.564 -284.4856,-82.9365 -283.7955,-82.3234 -283.1116,-81.7247 -282.4341,-81.1402 -281.763,-80.5698 -281.0987,-80.0133 -280.4413,-79.4708 -279.7909,-78.9419 -279.1478,-78.4266 -278.5119,-77.9247 -277.8836,-77.4362 -277.263,-76.9609 -276.6503,-76.4986 -276.0455,-76.0491 -276.2708,-72.499 -276.2708,-72.499 -277.8178,-69.2956 -278.5653,-69.2011 -279.3261,-69.0992 -280.1001,-68.9899 -280.8874,-68.8728 -281.6877,-68.7478 -282.501,-68.6147 -283.3273,-68.4734 -284.1664,-68.3235 -285.0183,-68.165 -285.8829,-67.9975 -286.7602,-67.821 -287.65,-67.6353 -288.5522,-67.4401 -289.4668,-67.2352 -290.3936,-67.0205 -291.3326,-66.7958 -292.2836,-66.5609 -293.2466,-66.3155 -294.2215,-66.0596 -295.2082,-65.7929 -296.2065,-65.5153 -297.2163,-65.2265 -298.2376,-64.9264 -299.2702,-64.6148 -300.314,-64.2915 -301.3689,-63.9564 -302.4348,-63.6092 -303.5115,-63.2498 -304.599,-62.878 -305.6971,-62.4936 -306.2895,-61.992 -307.3008,-56.7669 -306.9383,-56.0805 -306.063,-55.3141 -305.1927,-54.5634 -304.3279,-53.8282 -303.4685,-53.1084 -302.6148,-52.4038 -301.767,-51.7144 -300.9252,-51.04 -300.0897,-50.3806 -299.2605,-49.7358 -298.4379,-49.1058 -297.622,-48.4902 -296.813,-47.889 -296.0111,-47.3021 -295.2164,-46.7293 -294.4291,-46.1704 -293.6493,-45.6254 -292.8772,-45.0941 -292.113,-44.5764 -291.3567,-44.072 -290.6087,-43.581 -289.869,-43.103 -289.1377,-42.6381 -288.4151,-42.1859 -287.7013,-41.7465 -286.9963,-41.3195 -286.3004,-40.905 -285.6138,-40.5026 -284.9364,-40.1124 -284.2686,-39.734 -283.6103,-39.3674 -283.3703,-35.8182 -283.3703,-35.8182 -284.4859,-32.4403 -285.2147,-32.249 -285.9557,-32.0487 -286.7088,-31.8392 -287.474,-31.6204 -288.2512,-31.392 -289.0402,-31.1539 -289.8409,-30.9059 -290.6533,-30.6478 -291.4773,-30.3794 -292.3126,-30.1006 -293.1593,-29.8111 -294.0173,-29.5108 -294.8863,-29.1995 -295.7663,-28.877 -296.6572,-28.5432 -297.5588,-28.1978 -298.471,-27.8408 -299.3938,-27.4718 -300.3269,-27.0909 -301.2703,-26.6977 -302.2238,-26.2921 -303.1873,-25.874 -304.1607,-25.4431 -305.1438,-24.9994 -306.1365,-24.5426 -307.1386,-24.0727 -308.1501,-23.5893 -309.1707,-23.0924 -310.2003,-22.5819 -311.2388,-22.0575 -311.7607,-21.4828 -312.0813,-16.1704 -311.6324,-15.5372 -310.6645,-14.8917 -309.7037,-14.261 -308.7503,-13.6449 -307.8043,-13.0435 -306.866,-12.4564 -305.9354,-11.8835 -305.0129,-11.3248 -304.0984,-10.78 -303.1921,-10.249 -302.2943,-9.7317 -301.4051,-9.2279 -300.5245,-8.7375 -299.6529,-8.2602 -298.7902,-7.796 -297.9366,-7.3447 -297.0924,-6.9062 -296.2575,-6.4802 -295.4323,-6.0666 -294.6167,-5.6653 -293.811,-5.2761 -293.0152,-4.8988 -292.2295,-4.5332 -291.4541,-4.1793 -290.689,-3.8368 -289.9343,-3.5055 -289.1903,-3.1853 -288.457,-2.8761 -287.7345,-2.5775 -287.0229,-2.2896 -286.3225,-2.012 -285.6212,1.4755 -285.6212,1.4755 -286.2864,4.9701 -286.984,5.2549 -287.6925,5.5502 -288.4118,5.8562 -289.1419,6.173 -289.8826,6.5009 -290.6338,6.8399 -291.3953,7.1903 -292.1671,7.5522 -292.9489,7.9259 -293.7408,8.3114 -294.5424,8.7089 -295.3538,9.1186 -296.1748,9.5407 -297.0052,9.9753 -297.8448,10.4225 -298.6937,10.8826 -299.5515,11.3557 -300.4182,11.8419 -301.2937,12.3414 -302.1777,12.8544 -303.0701,13.381 -303.9708,13.9213 -304.8796,14.4755 -305.7963,15.0437 -306.7209,15.6261 -307.6531,16.2229 -308.5928,16.8341 -309.5399,17.46 -310.494,18.1006 -311.4552,18.7561 -311.8976,19.3939 -311.5221,24.7027 -310.9943,25.2719 -309.9505,25.7856 -308.9156,26.2855 -307.8899,26.7718 -306.8735,27.2447 -305.8666,27.7043 -304.8692,28.1507 -303.8816,28.5843 -302.9038,29.005 -301.9361,29.4132 -300.9784,29.8089 -300.031,30.1923 -299.094,30.5636 -298.1675,30.923 -297.2516,31.2706 -296.3464,31.6066 -295.4521,31.9312 -294.5689,32.2446 -293.6967,32.5469 -292.8357,32.8384 -291.986,33.1191 -291.1478,33.3893 -290.3212,33.6491 -289.5061,33.8988 -288.7029,34.1386 -287.9115,34.3685 -287.132,34.5888 -286.3646,34.7997 -285.6093,35.0014 -284.8663,35.194 -284.1356,35.3778 -282.9851,38.7439 -282.9851,38.7439 -283.1885,42.2954 -283.8429,42.6689 -284.5068,43.0541 -285.1801,43.4514 -285.8625,43.8608 -286.5541,44.2825 -287.2546,44.7167 -287.9639,45.1635 -288.6818,45.6231 -289.4082,46.0956 -290.1429,46.5811 -290.8859,47.0799 -291.6368,47.592 -292.3957,48.1176 -293.1622,48.6569 -293.9363,49.2099 -294.7178,49.7769 -295.5066,50.3579 -296.3024,50.9531 -297.1052,51.5626 -297.9146,52.1865 -298.7307,52.8251 -299.5532,53.4783 -300.3819,54.1464 -301.2166,54.8294 -302.0572,55.5276 -302.9036,56.2409 -303.7555,56.9696 -304.6127,57.7137 -305.4751,58.4733 -306.3425,59.2487 -306.6979,59.9388 -305.6326,65.1532 -305.0351,65.6486 -303.9331,66.0216 -302.8418,66.3822 -301.7614,66.7304 -300.692,67.0666 -299.6337,67.3908 -298.5866,67.7033 -297.5509,68.0043 -296.5265,68.2938 -295.5138,68.5721 -294.5127,68.8394 -293.5233,69.0959 -292.5458,69.3417 -291.5803,69.5771 -290.6269,69.8022 -289.6856,70.0172 -288.7566,70.2223 -287.84,70.4177 -286.9358,70.6036 -286.0442,70.7801 -285.1652,70.9476 -284.2988,71.106 -283.4453,71.2558 -282.6047,71.397 -281.777,71.5298 -280.9623,71.6545 -280.1608,71.7712 -279.3724,71.8801 -278.5973,71.9815 -277.8355,72.0754 -277.087,72.1623 -275.507,75.3494 -275.507,75.3494 -275.2451,78.8971 -275.8452,79.3527 -276.4531,79.8214 -277.0688,80.3031 -277.692,80.7981 -278.3226,81.3065 -278.9604,81.8284 -279.6053,82.364 -280.2571,82.9133 -280.9156,83.4766 -281.5807,84.0539 -282.2521,84.6454 -282.9298,85.2511 -283.6136,85.8713 -284.3032,86.506 -284.9985,87.1553 -285.6993,87.8194 -286.4055,88.4984 -287.1168,89.1924 -287.8331,89.9014 -288.5542,90.6257 -289.28,91.3653 -290.0101,92.1203 -290.7445,92.8909 -291.483,93.677 -292.2253,94.4789 -292.9713,95.2966 -293.7208,96.1302 -294.4736,96.9799 -295.2294,97.8456 -295.9882,98.7275 -296.2505,99.4581 -294.5137,104.4889 -293.8566,104.9021 -292.7154,105.128 -291.5864,105.3431 -290.4698,105.5473 -289.3656,105.741 -288.274,105.9244 -287.1951,106.0975 -286.1289,106.2606 -285.0756,106.414 -284.0351,106.5578 -283.0077,106.6921 -281.9933,106.8173 -280.9922,106.9334 -280.0042,107.0407 -279.0295,107.1395 -278.0683,107.2298 -277.1204,107.3119 -276.1861,107.3859 -275.2654,107.4522 -274.3584,107.5109 -273.465,107.5621 -272.5854,107.6062 -271.7197,107.6432 -270.8678,107.6735 -270.0298,107.6971 -269.2059,107.7144 -268.396,107.7255 -267.6001,107.7306 -266.8184,107.7299 -266.0508,107.7236 -265.2974,107.712 -263.3149,110.6657 -263.3149,110.6657 -262.5922,114.1488 -263.1276,114.6789 -263.6692,115.2229 -264.2167,115.7808 -264.77,116.3529 -265.3289,116.9393 -265.8931,117.54 -266.4626,118.1551 -267.0371,118.7849 -267.6164,119.4293 -268.2005,120.0884 -268.789,120.7625 -269.3818,121.4515 -269.9788,122.1556 -270.5796,122.8749 -271.1842,123.6095 -271.7924,124.3594 -272.4039,125.1247 -273.0185,125.9056 -273.6362,126.7021 -274.2566,127.5143 -274.8796,128.3423 -275.5049,129.1861 -276.1325,130.046 -276.762,130.9218 -277.3933,131.8137 -278.0262,132.7218 -278.6605,133.6461 -279.2959,134.5867 -279.9323,135.5437 -280.5695,136.5171 -280.7341,137.2757 -278.3556,142.0367 -277.6502,142.3606 -276.4892,142.4357 -275.3418,142.5015 -274.2081,142.5583 -273.0881,142.6062 -271.9819,142.6455 -270.8896,142.6763 -269.8113,142.6989 -268.7469,142.7134 -267.6966,142.7202 -266.6604,142.7193 -265.6384,142.7109 -264.6306,142.6954 -263.6371,142.6729 -262.6579,142.6435 -261.6931,142.6076 -260.7426,142.5653 -259.8067,142.5168 -258.8852,142.4623 -257.9782,142.4021 -257.0858,142.3363 -256.208,142.2651 -255.3448,142.1888 -254.4963,142.1076 -253.6624,142.0217 -252.8432,141.9313 -252.0388,141.8366 -251.2491,141.7377 -250.4741,141.635 -249.7139,141.5286 -248.9685,141.4188 -246.6174,144.0884 -246.6174,144.0884 -245.4462,147.4474 -245.908,148.0428 -246.3739,148.6528 -246.8439,149.2775 -247.3178,149.9169 -247.7953,150.5712 -248.2763,151.2404 -248.7606,151.9246 -249.248,152.624 -249.7383,153.3385 -250.2313,154.0683 -250.7268,154.8134 -251.2246,155.5739 -251.7245,156.3499 -252.2264,157.1414 -252.7299,157.9486 -253.235,158.7715 -253.7414,159.6101 -254.2489,160.4645 -254.7572,161.3348 -255.2663,162.2211 -255.7759,163.1233 -256.2858,164.0416 -256.7957,164.9759 -257.3055,165.9264 -257.815,166.8931 -258.324,167.876 -258.8322,168.8752 -259.3394,169.8907 -259.8454,170.9226 -260.3501,171.9708 -260.4143,172.7444 -257.4347,177.1542 -256.693,177.3833 -255.5322,177.3062 -254.386,177.2217 -253.2546,177.13 -252.1379,177.0313 -251.0361,176.9259 -249.9491,176.8139 -248.877,176.6955 -247.8199,176.571 -246.7777,176.4406 -245.7505,176.3045 -244.7383,176.1628 -243.7412,176.0159 -242.7591,175.8638 -241.7921,175.7069 -240.8402,175.5454 -239.9034,175.3793 -238.9818,175.2091 -238.0753,175.0348 -237.184,174.8567 -236.3078,174.675 -235.4468,174.4899 -234.6009,174.3016 -233.7703,174.1103 -232.9547,173.9163 -232.1544,173.7197 -231.3692,173.5208 -230.5991,173.3197 -229.8442,173.1168 -229.1044,172.9121 -228.3797,172.7059 -225.7003,175.0458 -225.7003,175.0458 -224.1007,178.2232 -224.4807,178.8738 -224.8631,179.5394 -225.2475,180.22 -225.6338,180.9158 -226.0219,181.6268 -226.4114,182.3531 -226.8023,183.0947 -227.1942,183.8516 -227.5871,184.624 -227.9806,185.4119 -228.3746,186.2153 -228.7689,187.0343 -229.1632,187.8689 -229.5575,188.7192 -229.9514,189.5852 -230.3447,190.467 -230.7373,191.3645 -231.1289,192.2779 -231.5193,193.2071 -231.9084,194.1522 -232.2958,195.1132 -232.6815,196.0902 -233.0651,197.0831 -233.4465,198.092 -233.8255,199.1169 -234.2018,200.1579 -234.5752,201.2148 -234.9455,202.2879 -235.3126,203.377 -235.6761,204.4821 -235.6388,205.2574 -232.109,209.2406 -231.3438,209.3709 -230.203,209.143 -229.0776,208.9096 -227.9679,208.671 -226.8736,208.4274 -225.795,208.179 -224.7319,207.9261 -223.6845,207.6688 -222.6526,207.4074 -221.6364,207.1421 -220.6357,206.873 -219.6507,206.6005 -218.6813,206.3246 -217.7274,206.0457 -216.7892,205.7639 -215.8665,205.4795 -214.9594,205.1926 -214.0679,204.9035 -213.1919,204.6124 -212.3314,204.3195 -211.4865,204.025 -210.657,203.7291 -209.843,203.432 -209.0444,203.1339 -208.2611,202.8351 -207.4933,202.5357 -206.7408,202.236 -206.0036,201.9362 -205.2816,201.6364 -204.5748,201.3369 -203.8833,201.0379 -200.9213,203.008 -200.9213,203.008 -198.9207,205.9494 -199.2125,206.6441 -199.5047,207.3539 -199.797,208.0789 -200.0893,208.8192 -200.3812,209.5748 -200.6726,210.3457 -200.9633,211.1319 -201.2531,211.9336 -201.5417,212.7506 -201.8291,213.5831 -202.1148,214.4311 -202.3989,215.2945 -202.6809,216.1735 -202.9608,217.068 -203.2383,217.978 -203.5131,218.9035 -203.7852,219.8446 -204.0543,220.8013 -204.3201,221.7735 -204.5824,222.7613 -204.8411,223.7647 -205.096,224.7836 -205.3467,225.8181 -205.5932,226.8682 -205.8351,227.9338 -206.0723,229.0149 -206.3045,230.1116 -206.5317,231.2238 -206.7534,232.3515 -206.9696,233.4946 -206.8314,234.2585 -202.8119,237.7469 -202.0363,237.7762 -200.9349,237.4012 -199.8497,237.023 -198.7805,236.6416 -197.7275,236.2572 -196.6905,235.8702 -195.6695,235.4807 -194.6646,235.0889 -193.6757,234.695 -192.7028,234.2993 -191.7458,233.9019 -190.8048,233.5031 -189.8796,233.1031 -188.9704,232.7021 -188.0769,232.3003 -187.1993,231.8978 -186.3374,231.495 -185.4912,231.092 -184.6608,230.6891 -183.8459,230.2863 -183.0466,229.884 -182.2628,229.4824 -181.4945,229.0816 -180.7417,228.6819 -180.0041,228.2834 -179.2819,227.8863 -178.575,227.491 -177.8832,227.0975 -177.2065,226.706 -176.5449,226.3168 -175.8983,225.9301 -172.7046,227.4968 -172.7046,227.4968 -170.3371,230.1519 -170.5358,230.8787 -170.7328,231.6205 -170.928,232.3775 -171.1211,233.1496 -171.3119,233.9368 -171.5002,234.7392 -171.6858,235.5566 -171.8685,236.3892 -172.048,237.237 -172.2242,238.0999 -172.3968,238.9779 -172.5657,239.871 -172.7306,240.7793 -172.8914,241.7026 -173.0477,242.641 -173.1994,243.5946 -173.3463,244.5631 -173.4882,245.5467 -173.6248,246.5453 -173.756,247.5589 -173.8815,248.5875 -174.0012,249.631 -174.1148,250.6893 -174.222,251.7626 -174.3228,252.8507 -174.4169,253.9535 -174.504,255.0711 -174.584,256.2034 -174.6566,257.3504 -174.7217,258.512 -174.485,259.2513 -170.0447,262.1852 -169.2718,262.113 -168.2288,261.5975 -167.2022,261.0808 -166.192,260.5631 -165.1981,260.0446 -164.2205,259.5256 -163.2591,259.0061 -162.314,258.4865 -161.3849,257.9669 -160.472,257.4476 -159.5751,256.9287 -158.6941,256.4105 -157.8291,255.8932 -156.98,255.3769 -156.1466,254.8619 -155.329,254.3483 -154.5271,253.8365 -153.7408,253.3265 -152.97,252.8185 -152.2147,252.3129 -151.4747,251.8097 -150.7501,251.3092 -150.0407,250.8116 -149.3464,250.317 -148.6672,249.8256 -148.003,249.3377 -147.3537,248.8535 -146.7192,248.373 -146.0994,247.8966 -145.4943,247.4244 -144.9037,246.9565 -141.5328,248.093 -141.5328,248.093 -138.839,250.4163 -138.9411,251.1628 -139.0396,251.9241 -139.1343,252.7001 -139.225,253.4908 -139.3114,254.2961 -139.3934,255.1162 -139.4707,255.9509 -139.5431,256.8002 -139.6105,257.6642 -139.6725,258.5427 -139.7291,259.4357 -139.78,260.3432 -139.8249,261.2652 -139.8637,262.2017 -139.8962,263.1525 -139.9222,264.1176 -139.9414,265.0971 -139.9537,266.0908 -139.9588,267.0987 -139.9566,268.1207 -139.9468,269.1569 -139.9292,270.207 -139.9037,271.2712 -139.8699,272.3493 -139.8278,273.4412 -139.7771,274.5469 -139.7176,275.6663 -139.6491,276.7994 -139.5715,277.946 -139.4844,279.1062 -139.1532,279.8082 -134.3679,282.1374 -133.611,281.965 -132.6443,281.3178 -131.6939,280.6715 -130.7599,280.0264 -129.8422,279.3826 -128.9407,278.7404 -128.0554,278.0999 -127.1861,277.4613 -126.3328,276.8249 -125.4955,276.1909 -124.6739,275.5594 -123.8682,274.9306 -123.0781,274.3048 -122.3036,273.6821 -121.5446,273.0627 -120.8011,272.4468 -120.0728,271.8347 -119.3598,271.2264 -118.6619,270.6222 -117.979,270.0223 -117.3111,269.4269 -116.6579,268.8361 -116.0196,268.2501 -115.3958,267.6691 -114.7866,267.0933 -114.1917,266.5229 -113.6112,265.958 -113.0448,265.3989 -112.4925,264.8456 -111.9542,264.2984 -111.4297,263.7575 -107.9393,264.4442 -107.9393,264.4442 -104.9653,266.3961 -104.9691,267.1496 -104.9674,267.9172 -104.96,268.6989 -104.9467,269.4946 -104.9273,270.3044 -104.9015,271.1281 -104.8692,271.9658 -104.8301,272.8173 -104.7842,273.6826 -104.731,274.5617 -104.6705,275.4545 -104.6025,276.3609 -104.5267,277.2809 -104.443,278.2144 -104.3511,279.1613 -104.2509,280.1216 -104.1421,281.0952 -104.0246,282.082 -103.8981,283.0819 -103.7625,284.0949 -103.6175,285.1209 -103.463,286.1598 -103.2988,287.2115 -103.1246,288.276 -102.9403,289.353 -102.7457,290.4427 -102.5406,291.5447 -102.3249,292.6592 -102.0982,293.7859 -101.8604,294.9247 -101.4404,295.5775 -96.392,297.2622 -95.6642,296.9924 -94.7901,296.2246 -93.9323,295.4598 -93.0905,294.6983 -92.2646,293.9402 -91.4547,293.1858 -90.6605,292.4353 -89.882,291.6887 -89.1191,290.9464 -88.3717,290.2085 -87.6396,289.4752 -86.9228,288.7466 -86.2212,288.023 -85.5346,287.3045 -84.863,286.5914 -84.2061,285.8837 -83.564,285.1817 -82.9365,284.4856 -82.3234,283.7955 -81.7247,283.1116 -81.1402,282.4341 -80.5698,281.763 -80.0133,281.0987 -79.4708,280.4413 -78.9419,279.7909 -78.4266,279.1478 -77.9247,278.5119 -77.4362,277.8836 -76.9609,277.263 -76.4986,276.6503 -76.0491,276.0455 -72.499,276.2708 -72.499,276.2708 -69.2956,277.8178 -69.2011,278.5653 -69.0992,279.3261 -68.9899,280.1001 -68.8728,280.8874 -68.7478,281.6877 -68.6147,282.501 -68.4734,283.3273 -68.3235,284.1664 -68.165,285.0183 -67.9975,285.8829 -67.821,286.7602 -67.6353,287.65 -67.4401,288.5522 -67.2352,289.4668 -67.0205,290.3936 -66.7958,291.3326 -66.5609,292.2836 -66.3155,293.2466 -66.0596,294.2215 -65.7929,295.2082 -65.5153,296.2065 -65.2265,297.2163 -64.9264,298.2376 -64.6148,299.2702 -64.2915,300.314 -63.9564,301.3689 -63.6092,302.4348 -63.2498,303.5115 -62.878,304.599 -62.4936,305.6971 -61.992,306.2895 -56.7669,307.3008 -56.0805,306.9383 -55.3141,306.063 -54.5634,305.1927 -53.8282,304.3279 -53.1084,303.4685 -52.4038,302.6148 -51.7144,301.767 -51.04,300.9252 -50.3806,300.0897 -49.7358,299.2605 -49.1058,298.4379 -48.4902,297.622 -47.889,296.813 -47.3021,296.0111 -46.7293,295.2164 -46.1704,294.4291 -45.6254,293.6493 -45.0941,292.8772 -44.5764,292.113 -44.072,291.3567 -43.581,290.6087 -43.103,289.869 -42.6381,289.1377 -42.1859,288.4151 -41.7465,287.7013 -41.3195,286.9963 -40.905,286.3004 -40.5026,285.6138 -40.1124,284.9364 -39.734,284.2686 -39.3674,283.6103 -35.8182,283.3703 -35.8182,283.3703 -32.4403,284.4859 -32.249,285.2147 -32.0487,285.9557 -31.8392,286.7088 -31.6204,287.474 -31.392,288.2512 -31.1539,289.0402 -30.9059,289.8409 -30.6478,290.6533 -30.3794,291.4773 -30.1006,292.3126 -29.8111,293.1593 -29.5108,294.0173 -29.1995,294.8863 -28.877,295.7663 -28.5432,296.6572 -28.1978,297.5588 -27.8408,298.471 -27.4718,299.3938 -27.0909,300.3269 -26.6977,301.2703 -26.2921,302.2238 -25.874,303.1873 -25.4431,304.1607 -24.9994,305.1438 -24.5426,306.1365 -24.0727,307.1386 -23.5893,308.1501 -23.0924,309.1707 -22.5819,310.2003 -22.0575,311.2388 -21.4828,311.7607 -16.1704,312.0813 -15.5372,311.6324 -14.8917,310.6645 -14.261,309.7037 -13.6449,308.7503 -13.0435,307.8043 -12.4564,306.866 -11.8835,305.9354 -11.3248,305.0129 -10.78,304.0984 -10.249,303.1921 -9.7317,302.2943 -9.2279,301.4051 -8.7375,300.5245 -8.2602,299.6529 -7.796,298.7902 -7.3447,297.9366 -6.9062,297.0924 -6.4802,296.2575 -6.0666,295.4323 -5.6653,294.6167 -5.2761,293.811 -4.8988,293.0152 -4.5332,292.2295 -4.1793,291.4541 -3.8368,290.689 -3.5055,289.9343 -3.1853,289.1903 -2.8761,288.457 -2.5775,287.7345 -2.2896,287.0229 -2.012,286.3225 1.4755,285.6212 1.4755,285.6212 4.9701,286.2864 5.2549,286.984 5.5502,287.6925 5.8562,288.4118 6.173,289.1419 6.5009,289.8826 6.8399,290.6338 7.1903,291.3953 7.5522,292.1671 7.9259,292.9489 8.3114,293.7408 8.7089,294.5424 9.1186,295.3538 9.5407,296.1748 9.9753,297.0052 10.4225,297.8448 10.8826,298.6937 11.3557,299.5515 11.8419,300.4182 12.3414,301.2937 12.8544,302.1777 13.381,303.0701 13.9213,303.9708 14.4755,304.8796 15.0437,305.7963 15.6261,306.7209 16.2229,307.6531 16.8341,308.5928 17.46,309.5399 18.1006,310.494 18.7561,311.4552 19.3939,311.8976 24.7027,311.5221 25.2719,310.9943 25.7856,309.9505 26.2855,308.9156 26.7718,307.8899 27.2447,306.8735 27.7043,305.8666 28.1507,304.8692 28.5843,303.8816 29.005,302.9038 29.4132,301.9361 29.8089,300.9784 30.1923,300.031 30.5636,299.094 30.923,298.1675 31.2706,297.2516 31.6066,296.3464 31.9312,295.4521 32.2446,294.5689 32.5469,293.6967 32.8384,292.8357 33.1191,291.986 33.3893,291.1478 33.6491,290.3212 33.8988,289.5061 34.1386,288.7029 34.3685,287.9115 34.5888,287.132 34.7997,286.3646 35.0014,285.6093 35.194,284.8663 35.3778,284.1356 38.7439,282.9851 38.7439,282.9851 42.2954,283.1885 42.6689,283.8429 43.0541,284.5068 43.4514,285.1801 43.8608,285.8625 44.2825,286.5541 44.7167,287.2546 45.1635,287.9639 45.6231,288.6818 46.0956,289.4082 46.5811,290.1429 47.0799,290.8859 47.592,291.6368 48.1176,292.3957 48.6569,293.1622 49.2099,293.9363 49.7769,294.7178 50.3579,295.5066 50.9531,296.3024 51.5626,297.1052 52.1865,297.9146 52.8251,298.7307 53.4783,299.5532 54.1464,300.3819 54.8294,301.2166 55.5276,302.0572 56.2409,302.9036 56.9696,303.7555 57.7137,304.6127 58.4733,305.4751 59.2487,306.3425 59.9388,306.6979 65.1532,305.6326 65.6486,305.0351 66.0216,303.9331 66.3822,302.8418 66.7304,301.7614 67.0666,300.692 67.3908,299.6337 67.7033,298.5866 68.0043,297.5509 68.2938,296.5265 68.5721,295.5138 68.8394,294.5127 69.0959,293.5233 69.3417,292.5458 69.5771,291.5803 69.8022,290.6269 70.0172,289.6856 70.2223,288.7566 70.4177,287.84 70.6036,286.9358 70.7801,286.0442 70.9476,285.1652 71.106,284.2988 71.2558,283.4453 71.397,282.6047 71.5298,281.777 71.6545,280.9623 71.7712,280.1608 71.8801,279.3724 71.9815,278.5973 72.0754,277.8355 72.1623,277.087 75.3494,275.507 75.3494,275.507 78.8971,275.2451 79.3527,275.8452 79.8214,276.4531 80.3031,277.0688 80.7981,277.692 81.3065,278.3226 81.8284,278.9604 82.364,279.6053 82.9133,280.2571 83.4766,280.9156 84.0539,281.5807 84.6454,282.2521 85.2511,282.9298 85.8713,283.6136 86.506,284.3032 87.1553,284.9985 87.8194,285.6993 88.4984,286.4055 89.1924,287.1168 89.9014,287.8331 90.6257,288.5542 91.3653,289.28 92.1203,290.0101 92.8909,290.7445 93.677,291.483 94.4789,292.2253 95.2966,292.9713 96.1302,293.7208 96.9799,294.4736 97.8456,295.2294 98.7275,295.9882 99.4581,296.2505 104.4889,294.5137 104.9021,293.8566 105.128,292.7154 105.3431,291.5864 105.5473,290.4698 105.741,289.3656 105.9244,288.274 106.0975,287.1951 106.2606,286.1289 106.414,285.0756 106.5578,284.0351 106.6921,283.0077 106.8173,281.9933 106.9334,280.9922 107.0407,280.0042 107.1395,279.0295 107.2298,278.0683 107.3119,277.1204 107.3859,276.1861 107.4522,275.2654 107.5109,274.3584 107.5621,273.465 107.6062,272.5854 107.6432,271.7197 107.6735,270.8678 107.6971,270.0298 107.7144,269.2059 107.7255,268.396 107.7306,267.6001 107.7299,266.8184 107.7236,266.0508 107.712,265.2974 110.6657,263.3149 110.6657,263.3149 114.1488,262.5922 114.6789,263.1276 115.2229,263.6692 115.7808,264.2167 116.3529,264.77 116.9393,265.3289 117.54,265.8931 118.1551,266.4626 118.7849,267.0371 119.4293,267.6164 120.0884,268.2005 120.7625,268.789 121.4515,269.3818 122.1556,269.9788 122.8749,270.5796 123.6095,271.1842 124.3594,271.7924 125.1247,272.4039 125.9056,273.0185 126.7021,273.6362 127.5143,274.2566 128.3423,274.8796 129.1861,275.5049 130.046,276.1325 130.9218,276.762 131.8137,277.3933 132.7218,278.0262 133.6461,278.6605 134.5867,279.2959 135.5437,279.9323 136.5171,280.5695 137.2757,280.7341 142.0367,278.3556 142.3606,277.6502 142.4357,276.4892 142.5015,275.3418 142.5583,274.2081 142.6062,273.0881 142.6455,271.9819 142.6763,270.8896 142.6989,269.8113 142.7134,268.7469 142.7202,267.6966 142.7193,266.6604 142.7109,265.6384 142.6954,264.6306 142.6729,263.6371 142.6435,262.6579 142.6076,261.6931 142.5653,260.7426 142.5168,259.8067 142.4623,258.8852 142.4021,257.9782 142.3363,257.0858 142.2651,256.208 142.1888,255.3448 142.1076,254.4963 142.0217,253.6624 141.9313,252.8432 141.8366,252.0388 141.7377,251.2491 141.635,250.4741 141.5286,249.7139 141.4188,248.9685 144.0884,246.6174 144.0884,246.6174 147.4474,245.4462 148.0428,245.908 148.6528,246.3739 149.2775,246.8439 149.9169,247.3178 150.5712,247.7953 151.2404,248.2763 151.9246,248.7606 152.624,249.248 153.3385,249.7383 154.0683,250.2313 154.8134,250.7268 155.5739,251.2246 156.3499,251.7245 157.1414,252.2264 157.9486,252.7299 158.7715,253.235 159.6101,253.7414 160.4645,254.2489 161.3348,254.7572 162.2211,255.2663 163.1233,255.7759 164.0416,256.2858 164.9759,256.7957 165.9264,257.3055 166.8931,257.815 167.876,258.324 168.8752,258.8322 169.8907,259.3394 170.9226,259.8454 171.9708,260.3501 172.7444,260.4143 177.1542,257.4347 177.3833,256.693 177.3062,255.5322 177.2217,254.386 177.13,253.2546 177.0313,252.1379 176.9259,251.0361 176.8139,249.9491 176.6955,248.877 176.571,247.8199 176.4406,246.7777 176.3045,245.7505 176.1628,244.7383 176.0159,243.7412 175.8638,242.7591 175.7069,241.7921 175.5454,240.8402 175.3793,239.9034 175.2091,238.9818 175.0348,238.0753 174.8567,237.184 174.675,236.3078 174.4899,235.4468 174.3016,234.6009 174.1103,233.7703 173.9163,232.9547 173.7197,232.1544 173.5208,231.3692 173.3197,230.5991 173.1168,229.8442 172.9121,229.1044 172.7059,228.3797 175.0458,225.7003 175.0458,225.7003 178.2232,224.1007 178.8738,224.4807 179.5394,224.8631 180.22,225.2475 180.9158,225.6338 181.6268,226.0219 182.3531,226.4114 183.0947,226.8023 183.8516,227.1942 184.624,227.5871 185.4119,227.9806 186.2153,228.3746 187.0343,228.7689 187.8689,229.1632 188.7192,229.5575 189.5852,229.9514 190.467,230.3447 191.3645,230.7373 192.2779,231.1289 193.2071,231.5193 194.1522,231.9084 195.1132,232.2958 196.0902,232.6815 197.0831,233.0651 198.092,233.4465 199.1169,233.8255 200.1579,234.2018 201.2148,234.5752 202.2879,234.9455 203.377,235.3126 204.4821,235.6761 205.2574,235.6388 209.2406,232.109 209.3709,231.3438 209.143,230.203 208.9096,229.0776 208.671,227.9679 208.4274,226.8736 208.179,225.795 207.9261,224.7319 207.6688,223.6845 207.4074,222.6526 207.1421,221.6364 206.873,220.6357 206.6005,219.6507 206.3246,218.6813 206.0457,217.7274 205.7639,216.7892 205.4795,215.8665 205.1926,214.9594 204.9035,214.0679 204.6124,213.1919 204.3195,212.3314 204.025,211.4865 203.7291,210.657 203.432,209.843 203.1339,209.0444 202.8351,208.2611 202.5357,207.4933 202.236,206.7408 201.9362,206.0036 201.6364,205.2816 201.3369,204.5748 201.0379,203.8833 203.008,200.9213 203.008,200.9213 205.9494,198.9207 206.6441,199.2125 207.3539,199.5047 208.0789,199.797 208.8192,200.0893 209.5748,200.3812 210.3457,200.6726 211.1319,200.9633 211.9336,201.2531 212.7506,201.5417 213.5831,201.8291 214.4311,202.1148 215.2945,202.3989 216.1735,202.6809 217.068,202.9608 217.978,203.2383 218.9035,203.5131 219.8446,203.7852 220.8013,204.0543 221.7735,204.3201 222.7613,204.5824 223.7647,204.8411 224.7836,205.096 225.8181,205.3467 226.8682,205.5932 227.9338,205.8351 229.0149,206.0723 230.1116,206.3045 231.2238,206.5317 232.3515,206.7534 233.4946,206.9696 234.2585,206.8314 237.7469,202.8119 237.7762,202.0363 237.4012,200.9349 237.023,199.8497 236.6416,198.7805 236.2572,197.7275 235.8702,196.6905 235.4807,195.6695 235.0889,194.6646 234.695,193.6757 234.2993,192.7028 233.9019,191.7458 233.5031,190.8048 233.1031,189.8796 232.7021,188.9704 232.3003,188.0769 231.8978,187.1993 231.495,186.3374 231.092,185.4912 230.6891,184.6608 230.2863,183.8459 229.884,183.0466 229.4824,182.2628 229.0816,181.4945 228.6819,180.7417 228.2834,180.0041 227.8863,179.2819 227.491,178.575 227.0975,177.8832 226.706,177.2065 226.3168,176.5449 225.9301,175.8983 227.4968,172.7046 227.4968,172.7046 230.1519,170.3371 230.8787,170.5358 231.6205,170.7328 232.3775,170.928 233.1496,171.1211 233.9368,171.3119 234.7392,171.5002 235.5566,171.6858 236.3892,171.8685 237.237,172.048 238.0999,172.2242 238.9779,172.3968 239.871,172.5657 240.7793,172.7306 241.7026,172.8914 242.641,173.0477 243.5946,173.1994 244.5631,173.3463 245.5467,173.4882 246.5453,173.6248 247.5589,173.756 248.5875,173.8815 249.631,174.0012 250.6893,174.1148 251.7626,174.222 252.8507,174.3228 253.9535,174.4169 255.0711,174.504 256.2034,174.584 257.3504,174.6566 258.512,174.7217 259.2513,174.485 262.1852,170.0447 262.113,169.2718 261.5975,168.2288 261.0808,167.2022 260.5631,166.192 260.0446,165.1981 259.5256,164.2205 259.0061,163.2591 258.4865,162.314 257.9669,161.3849 257.4476,160.472 256.9287,159.5751 256.4105,158.6941 255.8932,157.8291 255.3769,156.98 254.8619,156.1466 254.3483,155.329 253.8365,154.5271 253.3265,153.7408 252.8185,152.97 252.3129,152.2147 251.8097,151.4747 251.3092,150.7501 250.8116,150.0407 250.317,149.3464 249.8256,148.6672 249.3377,148.003 248.8535,147.3537 248.373,146.7192 247.8966,146.0994 247.4244,145.4943 246.9565,144.9037 248.093,141.5328 248.093,141.5328 250.4163,138.839 251.1628,138.9411 251.9241,139.0396 252.7001,139.1343 253.4908,139.225 254.2961,139.3114 255.1162,139.3934 255.9509,139.4707 256.8002,139.5431 257.6642,139.6105 258.5427,139.6725 259.4357,139.7291 260.3432,139.78 261.2652,139.8249 262.2017,139.8637 263.1525,139.8962 264.1176,139.9222 265.0971,139.9414 266.0908,139.9537 267.0987,139.9588 268.1207,139.9566 269.1569,139.9468 270.207,139.9292 271.2712,139.9037 272.3493,139.8699 273.4412,139.8278 274.5469,139.7771 275.6663,139.7176 276.7994,139.6491 277.946,139.5715 279.1062,139.4844 279.8082,139.1532 282.1374,134.3679 281.965,133.611 281.3178,132.6443 280.6715,131.6939 280.0264,130.7599 279.3826,129.8422 278.7404,128.9407 278.0999,128.0554 277.4613,127.1861 276.8249,126.3328 276.1909,125.4955 275.5594,124.6739 274.9306,123.8682 274.3048,123.0781 273.6821,122.3036 273.0627,121.5446 272.4468,120.8011 271.8347,120.0728 271.2264,119.3598 270.6222,118.6619 270.0223,117.979 269.4269,117.3111 268.8361,116.6579 268.2501,116.0196 267.6691,115.3958 267.0933,114.7866 266.5229,114.1917 265.958,113.6112 265.3989,113.0448 264.8456,112.4925 264.2984,111.9542 263.7575,111.4297 264.4442,107.9393 264.4442,107.9393 266.3961,104.9653 267.1496,104.9691 267.9172,104.9674 268.6989,104.96 269.4946,104.9467 270.3044,104.9273 271.1281,104.9015 271.9658,104.8692 272.8173,104.8301 273.6826,104.7842 274.5617,104.731 275.4545,104.6705 276.3609,104.6025 277.2809,104.5267 278.2144,104.443 279.1613,104.3511 280.1216,104.2509 281.0952,104.1421 282.082,104.0246 283.0819,103.8981 284.0949,103.7625 285.1209,103.6175 286.1598,103.463 287.2115,103.2988 288.276,103.1246 289.353,102.9403 290.4427,102.7457 291.5447,102.5406 292.6592,102.3249 293.7859,102.0982 294.9247,101.8604 295.5775,101.4404 297.2622,96.392 296.9924,95.6642 296.2246,94.7901 295.4598,93.9323 294.6983,93.0905 293.9402,92.2646 293.1858,91.4547 292.4353,90.6605 291.6887,89.882 290.9464,89.1191 290.2085,88.3717 289.4752,87.6396 288.7466,86.9228 288.023,86.2212 287.3045,85.5346 286.5914,84.863 285.8837,84.2061 285.1817,83.564 284.4856,82.9365 283.7955,82.3234 283.1116,81.7247 282.4341,81.1402 281.763,80.5698 281.0987,80.0133 280.4413,79.4708 279.7909,78.9419 279.1478,78.4266 278.5119,77.9247 277.8836,77.4362 277.263,76.9609 276.6503,76.4986 276.0455,76.0491 276.2708,72.499 276.2708,72.499 277.8178,69.2956 278.5653,69.2011 279.3261,69.0992 280.1001,68.9899 280.8874,68.8728 281.6877,68.7478 282.501,68.6147 283.3273,68.4734 284.1664,68.3235 285.0183,68.165 285.8829,67.9975 286.7602,67.821 287.65,67.6353 288.5522,67.4401 289.4668,67.2352 290.3936,67.0205 291.3326,66.7958 292.2836,66.5609 293.2466,66.3155 294.2215,66.0596 295.2082,65.7929 296.2065,65.5153 297.2163,65.2265 298.2376,64.9264 299.2702,64.6148 300.314,64.2915 301.3689,63.9564 302.4348,63.6092 303.5115,63.2498 304.599,62.878 305.6971,62.4936 306.2895,61.992 307.3008,56.7669 306.9383,56.0805 306.063,55.3141 305.1927,54.5634 304.3279,53.8282 303.4685,53.1084 302.6148,52.4038 301.767,51.7144 300.9252,51.04 300.0897,50.3806 299.2605,49.7358 298.4379,49.1058 297.622,48.4902 296.813,47.889 296.0111,47.3021 295.2164,46.7293 294.4291,46.1704 293.6493,45.6254 292.8772,45.0941 292.113,44.5764 291.3567,44.072 290.6087,43.581 289.869,43.103 289.1377,42.6381 288.4151,42.1859 287.7013,41.7465 286.9963,41.3195 286.3004,40.905 285.6138,40.5026 284.9364,40.1124 284.2686,39.734 283.6103,39.3674 283.3703,35.8182 283.3703,35.8182 284.4859,32.4403 285.2147,32.249 285.9557,32.0487 286.7088,31.8392 287.474,31.6204 288.2512,31.392 289.0402,31.1539 289.8409,30.9059 290.6533,30.6478 291.4773,30.3794 292.3126,30.1006 293.1593,29.8111 294.0173,29.5108 294.8863,29.1995 295.7663,28.877 296.6572,28.5432 297.5588,28.1978 298.471,27.8408 299.3938,27.4718 300.3269,27.0909 301.2703,26.6977 302.2238,26.2921 303.1873,25.874 304.1607,25.4431 305.1438,24.9994 306.1365,24.5426 307.1386,24.0727 308.1501,23.5893 309.1707,23.0924 310.2003,22.5819 311.2388,22.0575 311.7607,21.4828 312.0813,16.1704 311.6324,15.5372 310.6645,14.8917 309.7037,14.261 308.7503,13.6449 307.8043,13.0435 306.866,12.4564 305.9354,11.8835 305.0129,11.3248 304.0984,10.78 303.1921,10.249 302.2943,9.7317 301.4051,9.2279 300.5245,8.7375 299.6529,8.2602 298.7902,7.796 297.9366,7.3447 297.0924,6.9062 296.2575,6.4802 295.4323,6.0666 294.6167,5.6653 293.811,5.2761 293.0152,4.8988 292.2295,4.5332 291.4541,4.1793 290.689,3.8368 289.9343,3.5055 289.1903,3.1853 288.457,2.8761 287.7345,2.5775 287.0229,2.2896 286.3225,2.012 285.6212,-1.4755 "/><g class="guides"><polyline fill="none" stroke="#444" stroke-width="0.5" stroke-miterlimit="10" points="10,0 -10,0"/><polyline fill="none" stroke="#444" stroke-width="0.5" stroke-miterlimit="10" points="0,10 0,-10"/></g><circle fill="#c00" class="firstmarker" stroke="none" stroke-miterlimit="10" cx="299.2523" cy="-21.1671" r="4.9063"/><g class="geartext"><g class="text"><polyline fill="none" stroke="#444" stroke-width="0.5" stroke-linecap="square" stroke-miterlimit="1"  points="248.77 -106.54 248.18 -107.91 247.58 -109.29 246.97 -110.66 246.35 -112.03 "/><polyline fill="none" stroke="#444" stroke-width="0.5" stroke-linecap="square" stroke-miterlimit="1"  points="244.83 -108.08 250.32 -110.5 "/><polyline fill="none" stroke="#444" stroke-width="0.5" stroke-linecap="square" stroke-miterlimit="1"  points="251.53 -107.72 249.55 -108.51 247.58 -109.29 245.6 -110.04 243.62 -110.78 "/><polyline fill="none" stroke="#444" stroke-width="0.5" stroke-linecap="square" stroke-miterlimit="1"  points="246.01 -105.36 246.8 -107.32 247.58 -109.29 248.34 -111.27 249.08 -113.27 "/><polyline fill="none" stroke="#444" stroke-width="0.5" stroke-linecap="square" stroke-miterlimit="1"  points="252.71 -104.92 254.68 -104.09 246.34 -100.68 "/><polyline fill="none" stroke="#444" stroke-width="0.5" stroke-linecap="square" stroke-miterlimit="1"  points="246.9 -99.32 246.34 -100.68 245.78 -102.05 "/><polyline fill="none" stroke="#444" stroke-width="0.5" stroke-linecap="square" stroke-miterlimit="1"  points="261.03 -86.93 252.49 -84.09 254.15 -86.21 255.8 -88.35 257.43 -90.51 259.04 -92.7 250.57 -89.66 "/><polyline fill="none" stroke="#444" stroke-width="0.5" stroke-linecap="square" stroke-miterlimit="1"  points="260.9 -77.35 260.47 -78.8 260.03 -80.24 259.58 -81.68 259.12 -83.12 "/><polyline fill="none" stroke="#444" stroke-width="0.5" stroke-linecap="square" stroke-miterlimit="1"  points="258.02 -76.5 257.6 -77.93 257.16 -79.35 256.72 -80.78 256.26 -82.2 "/><polyline fill="none" stroke="#444" stroke-width="0.5" stroke-linecap="square" stroke-miterlimit="1"  points="260.42 -67.88 260.04 -69.32 259.66 -70.76 259.26 -72.2 258.86 -73.63 261.19 -72.73 263.52 -71.81 265.84 -70.86 257.15 -68.55 "/><polyline fill="none" stroke="#444" stroke-width="0.5" stroke-linecap="square" stroke-miterlimit="1"  points="262.97 -63.89 261.16 -64.99 259.71 -64.62 258.6 -62.83 258.95 -61.39 259.28 -59.96 261.07 -58.85 262.54 -59.18 263.67 -60.97 263.33 -62.43 262.97 -63.89 264.07 -65.71 265.53 -66.07 267.35 -64.95 267.7 -63.47 268.05 -61.99 266.93 -60.17 265.46 -59.84 263.67 -60.97 "/><polyline fill="none" stroke="#444" stroke-width="0.5" stroke-linecap="square" stroke-miterlimit="1"  points="266.11 -49.22 266.38 -47.75 266.64 -46.27 266.89 -44.79 268.62 -43.55 270.1 -43.79 271.33 -45.54 271.07 -47.04 270.81 -48.54 270.54 -50.04 261.69 -48.41 "/><polyline fill="none" stroke="#444" stroke-width="0.5" stroke-linecap="square" stroke-miterlimit="1"  points="263.15 -39.68 269.08 -40.57 "/><polyline fill="none" stroke="#444" stroke-width="0.5" stroke-linecap="square" stroke-miterlimit="1"  points="270.57 -40.8 272.05 -41.02 "/><polyline fill="none" stroke="#444" stroke-width="0.5" stroke-linecap="square" stroke-miterlimit="1"  points="265.81 -31.08 264.15 -32.37 265.45 -34.03 272.89 -34.98 "/><polyline fill="none" stroke="#444" stroke-width="0.5" stroke-linecap="square" stroke-miterlimit="1"  points="270.28 -31.6 270.1 -33.1 269.92 -34.6 269.72 -36.09 269.52 -37.59 "/><polyline fill="none" stroke="#444" stroke-width="0.5" stroke-linecap="square" stroke-miterlimit="1"  points="265.21 -22.1 265.08 -23.57 264.94 -25.04 264.8 -26.51 266.14 -28.13 269.13 -28.45 270.77 -27.1 270.92 -25.6 271.06 -24.1 271.19 -22.6 "/><polyline fill="none" stroke="#444" stroke-width="0.5" stroke-linecap="square" stroke-miterlimit="1"  points="268.43 -19.38 270.03 -17.99 271.62 -16.58 271.71 -15.08 270.29 -13.49 265.79 -13.27 "/><polyline fill="none" stroke="#444" stroke-width="0.5" stroke-linecap="square" stroke-miterlimit="1"  points="265.43 -19.16 274.41 -19.81 "/><polyline fill="none" stroke="#444" stroke-width="0.5" stroke-linecap="square" stroke-miterlimit="1"  points="266.11 -2.95 266.12 -1.48 266.13 0 266.12 1.48 267.61 2.97 273.61 3.03 275.12 1.52 275.13 0 275.12 -1.52 275.11 -3.05 "/><polyline fill="none" stroke="#444" stroke-width="0.5" stroke-linecap="square" stroke-miterlimit="1"  points="275.12 -1.52 266.12 -1.48 "/><polyline fill="none" stroke="#444" stroke-width="0.5" stroke-linecap="square" stroke-miterlimit="1"  points="271.86 12.06 271.92 10.56 271.97 9.05 272.02 7.54 272.06 6.03 "/><polyline fill="none" stroke="#444" stroke-width="0.5" stroke-linecap="square" stroke-miterlimit="1"  points="268.86 11.93 268.92 10.44 268.98 8.95 269.02 7.46 269.06 5.97 "/><polyline fill="none" stroke="#444" stroke-width="0.5" stroke-linecap="square" stroke-miterlimit="1"  points="273.2 15.16 274.61 16.76 265.63 16.22 "/><polyline fill="none" stroke="#444" stroke-width="0.5" stroke-linecap="square" stroke-miterlimit="1"  points="265.54 17.69 265.63 16.22 265.72 14.74 "/><polyline fill="none" stroke="#444" stroke-width="0.5" stroke-linecap="square" stroke-miterlimit="1"  points="264.8 26.51 264.94 25.04 265.08 23.57 265.21 22.1 265.32 20.63 268.32 20.86 269.69 22.47 269.56 23.97 269.42 25.46 270.77 27.1 272.26 27.25 273.9 25.89 274.04 24.37 274.17 22.85 272.8 21.21 "/><polyline fill="none" stroke="#444" stroke-width="0.5" stroke-linecap="square" stroke-miterlimit="1"  points="268.03 37.38 267.82 38.87 267.6 40.35 267.37 41.83 268.62 43.55 270.1 43.79 271.82 42.53 272.05 41.02 272.27 39.51 272.49 38 263.57 36.76 "/><polyline fill="none" stroke="#444" stroke-width="0.5" stroke-linecap="square" stroke-miterlimit="1"  points="267.02 52.46 267.31 50.98 267.59 49.5 267.86 48.01 268.12 46.53 "/><polyline fill="none" stroke="#444" stroke-width="0.5" stroke-linecap="square" stroke-miterlimit="1"  points="264.08 51.88 264.36 50.42 264.64 48.95 264.9 47.48 265.16 46.02 "/><polyline fill="none" stroke="#444" stroke-width="0.5" stroke-linecap="square" stroke-miterlimit="1"  points="262.21 60.63 262.54 59.18 262.86 57.72 263.18 56.27 263.49 54.81 265.13 56.68 266.77 58.58 268.39 60.5 259.61 58.52 "/><polyline fill="none" stroke="#444" stroke-width="0.5" stroke-linecap="square" stroke-miterlimit="1"  points="261.1 71.15 260.71 72.6 260.3 74.04 259.88 75.49 260.9 77.35 262.34 77.78 264.21 76.74 264.63 75.27 265.04 73.81 265.45 72.34 256.76 69.97 "/><polyline fill="none" stroke="#444" stroke-width="0.5" stroke-linecap="square" stroke-miterlimit="1"  points="254.29 78.47 257.16 79.35 259.58 81.68 261.98 84.03 258.66 84.55 255.34 85.04 252.49 84.09 "/><polyline fill="none" stroke="#444" stroke-width="0.5" stroke-linecap="square" stroke-miterlimit="1"  points="257.16 79.35 256.72 80.78 256.26 82.2 255.8 83.62 255.34 85.04 "/><polyline fill="none" stroke="#444" stroke-width="0.5" stroke-linecap="square" stroke-miterlimit="1"  points="255.18 94.52 255.7 93.1 256.21 91.69 256.72 90.26 257.21 88.84 "/><polyline fill="none" stroke="#444" stroke-width="0.5" stroke-linecap="square" stroke-miterlimit="1"  points="252.37 93.48 252.88 92.08 253.39 90.67 253.89 89.27 254.38 87.86 "/><polyline fill="none" stroke="#444" stroke-width="0.5" stroke-linecap="square" stroke-miterlimit="1"  points="246.34 100.68 246.9 99.32 247.45 97.95 247.98 96.57 248.52 95.2 251.32 96.27 252.18 98.21 251.63 99.6 251.07 101 251.9 102.95 253.29 103.52 255.25 102.67 255.81 101.26 256.37 99.84 255.52 97.88 "/><polyline fill="none" stroke="#444" stroke-width="0.5" stroke-linecap="square" stroke-miterlimit="1"  points="253.51 106.9 252.91 108.31 252.31 109.71 251.69 111.1 251.07 112.5 247.58 109.29 244.05 106.12 "/></g></g><g class="guides gearguides" opacity="0.2"><circle class="pitch" fill="none" stroke="#f00" stroke-miterlimit="10" cx="0" cy="0" r="300"/><circle class="outer" fill="none" stroke="#ccc" stroke-miterlimit="10" stroke-dasharray="2,2" cx="0" cy="0" r="312.5"/><circle class="base" fill="none" stroke="#00f" stroke-miterlimit="10" stroke-dasharray="2,2" cx="0" cy="0" r="267.3"/></g></g></svg>