<?xml version="1.0" encoding="utf-8"?><!-- Generator: Iparigrafika Gear Generator by Abel Vincze http://geargenerator.com/ --><svg version="1.2" class="svggear" xmlns="http://www.w3.org/2000/svg" xmlns:xlink="http://www.w3.org/1999/xlink" x="0px" y="0px" width="426px" height="426px" viewBox="-213 -213 426 426" overflow="scroll" xml:space="preserve"><polygon id="gearpoly1" data-id="1" class="gear" fill="#ddd" stroke="#444" stroke-width="1" stroke-miterlimit="10" points="185.625,0 185.8734,-1.5379 186.4342,-1.7127 187.0132,-1.9002 187.6102,-2.1007 188.225,-2.3147 188.8573,-2.5425 189.5071,-2.7846 190.1739,-3.0415 190.8576,-3.3134 191.5579,-3.6008 192.2746,-3.9041 193.0073,-4.2237 193.7559,-4.5599 194.52,-4.9132 195.2993,-5.2839 196.0936,-5.6724 196.9026,-6.0791 197.7259,-6.5043 198.5632,-6.9484 199.4143,-7.4117 200.2788,-7.8946 201.1564,-8.3975 202.0467,-8.9206 202.9494,-9.4644 203.8642,-10.0291 204.7907,-10.6152 205.7286,-11.2228 206.6774,-11.8523 207.6368,-12.504 208.6065,-13.1783 209.586,-13.8754 210.5751,-14.5957 211.5732,-15.3393 211.8927,-16.0546 211.5041,-20.5489 211.0666,-21.1987 209.9557,-21.76 208.8577,-22.2999 207.7731,-22.8185 206.7021,-23.3164 205.645,-23.7938 204.6022,-24.2512 203.574,-24.6888 202.5607,-25.1071 201.5626,-25.5065 200.5799,-25.8872 199.613,-26.2498 198.6622,-26.5946 197.7276,-26.922 196.8096,-27.2324 195.9085,-27.5262 195.0244,-27.8038 194.1577,-28.0656 193.3085,-28.312 192.4771,-28.5434 191.6637,-28.7604 190.8685,-28.9631 190.0918,-29.1522 189.3337,-29.328 188.5945,-29.491 187.8743,-29.6415 187.1733,-29.7801 186.4916,-29.9072 185.8295,-30.0231 185.1871,-30.1284 184.5646,-30.2234 183.962,-30.3087 183.3796,-30.3847 182.8709,-31.8572 182.0583,-36.2136 182.0019,-37.7705 182.5178,-38.0513 183.049,-38.3481 183.5955,-38.6613 184.1567,-38.991 184.7325,-39.3379 185.3225,-39.7021 185.9264,-40.0841 186.5439,-40.4842 187.1747,-40.9027 187.8184,-41.34 188.4747,-41.7964 189.1433,-42.2722 189.8238,-42.7678 190.5158,-43.2834 191.2191,-43.8194 191.9332,-44.3761 192.6577,-44.9537 193.3923,-45.5526 194.1367,-46.1731 194.8904,-46.8154 195.653,-47.4798 196.4241,-48.1666 197.2034,-48.876 197.9904,-49.6084 198.7848,-50.3639 199.5861,-51.1428 200.3939,-51.9453 201.2077,-52.7717 202.0272,-53.6222 202.8519,-54.497 203.6815,-55.3964 204.5153,-56.3205 204.6891,-57.0843 203.4312,-61.4164 202.8754,-61.9684 201.6763,-62.3023 200.4941,-62.6175 199.3291,-62.9146 198.1815,-63.1939 197.0517,-63.456 195.9397,-63.7011 194.8459,-63.9297 193.7704,-64.1423 192.7135,-64.3393 191.6755,-64.521 190.6564,-64.688 189.6566,-64.8407 188.6761,-64.9795 187.7152,-65.1048 186.7741,-65.2171 185.8528,-65.3169 184.9517,-65.4046 184.0707,-65.4806 183.2101,-65.5454 182.3701,-65.5995 181.5506,-65.6432 180.7519,-65.6771 179.9741,-65.7017 179.2173,-65.7173 178.4815,-65.7244 177.767,-65.7236 177.0736,-65.7152 176.4016,-65.6997 175.751,-65.6777 175.1219,-65.6495 174.5143,-65.6156 173.9282,-65.5765 173.142,-66.9214 171.4951,-71.0356 171.1361,-72.5516 171.5873,-72.9276 172.0505,-73.3224 172.5253,-73.7361 173.0114,-74.169 173.5085,-74.6215 174.0161,-75.0939 174.5339,-75.5864 175.0614,-76.0992 175.5985,-76.6328 176.1445,-77.1872 176.6992,-77.7629 177.2621,-78.36 177.8328,-78.9788 178.411,-79.6195 178.9961,-80.2824 179.5879,-80.9677 180.1858,-81.6756 180.7895,-82.4063 181.3985,-83.1601 182.0124,-83.9371 182.6307,-84.7375 183.253,-85.5615 183.879,-86.4094 184.508,-87.2812 185.1397,-88.1771 185.7736,-89.0974 186.4093,-90.0421 187.0463,-91.0114 187.6842,-92.0054 188.3224,-93.0243 188.9605,-94.0682 189.598,-95.1373 189.6195,-95.9203 187.5406,-99.9238 186.8877,-100.3568 185.6466,-100.4502 184.4256,-100.5288 183.225,-100.5929 182.045,-100.643 180.8857,-100.6795 179.7473,-100.703 178.6299,-100.7139 177.5336,-100.7126 176.4586,-100.6995 175.4051,-100.6753 174.373,-100.6403 173.3626,-100.595 172.3739,-100.5398 171.407,-100.4753 170.462,-100.4018 169.539,-100.32 168.6381,-100.2301 167.7592,-100.1328 166.9025,-100.0285 166.068,-99.9176 165.2558,-99.8007 164.4659,-99.6781 163.6982,-99.5505 162.9529,-99.4181 162.2299,-99.2816 161.5292,-99.1413 160.8508,-98.9979 160.1947,-98.8516 159.5609,-98.703 158.9494,-98.5526 158.3601,-98.4008 157.7929,-98.2481 156.7594,-99.4139 154.3415,-103.1277 153.6937,-104.5445 154.0628,-105.0014 154.4401,-105.4789 154.8251,-105.9773 155.2174,-106.4968 155.6166,-107.0375 156.0223,-107.5998 156.4341,-108.1839 156.8515,-108.7898 157.2741,-109.4178 157.7014,-110.0682 158.1332,-110.741 158.5688,-111.4364 159.0078,-112.1547 159.4498,-112.8959 159.8944,-113.6602 160.3411,-114.4478 160.7895,-115.2587 161.239,-116.0932 161.6892,-116.9513 162.1397,-117.8331 162.59,-118.7388 163.0397,-119.6684 163.4881,-120.622 163.935,-121.5998 164.3798,-122.6018 164.822,-123.628 165.2612,-124.6786 165.6968,-125.7536 166.1285,-126.8529 166.5556,-127.9768 166.9778,-129.1251 167.3946,-130.298 167.2628,-131.0702 164.4429,-134.5912 163.7181,-134.8884 162.4826,-134.7379 161.2697,-134.5768 160.0797,-134.4054 158.9126,-134.2244 157.7684,-134.0341 156.6473,-133.835 155.5493,-133.6276 154.4743,-133.4125 153.4225,-133.19 152.3939,-132.9607 151.3885,-132.725 150.4064,-132.4834 149.4474,-132.2364 148.5117,-131.9845 147.5992,-131.7281 146.7099,-131.4678 145.8438,-131.2039 145.0008,-130.937 144.1809,-130.6675 143.3841,-130.396 142.6103,-130.1228 141.8595,-129.8485 141.1315,-129.5736 140.4263,-129.2984 139.7438,-129.0234 139.0839,-128.7492 138.4466,-128.4761 137.8317,-128.2046 137.239,-127.9353 136.6686,-127.6684 136.1202,-127.4046 135.5937,-127.1442 134.3527,-128.0859 131.2567,-131.2567 130.3449,-132.5199 130.6178,-133.04 130.8946,-133.5819 131.175,-134.1458 131.4584,-134.7319 131.7445,-135.3401 132.0327,-135.9708 132.3226,-136.6239 132.6138,-137.2996 132.9057,-137.9981 133.198,-138.7193 133.4902,-139.4634 133.7817,-140.2304 134.0722,-141.0205 134.3612,-141.8338 134.6481,-142.6701 134.9326,-143.5297 135.2141,-144.4125 135.4922,-145.3186 135.7664,-146.2481 136.0362,-147.2008 136.3011,-148.177 136.5608,-149.1764 136.8146,-150.1993 137.0621,-151.2455 137.3029,-152.3149 137.5364,-153.4077 137.7621,-154.5238 137.9797,-155.6631 138.1886,-156.8256 138.3883,-158.0111 138.5784,-159.2198 138.7583,-160.4514 138.4784,-161.1831 135.0257,-164.0863 134.2569,-164.2364 133.0744,-163.8478 131.9163,-163.4531 130.7826,-163.0529 129.6733,-162.6476 128.5882,-162.2377 127.5275,-161.8238 126.491,-161.4062 125.4786,-160.9854 124.4905,-160.5621 123.5264,-160.1365 122.5863,-159.7092 121.6701,-159.2806 120.7778,-158.8513 119.9092,-158.4216 119.0643,-157.9922 118.2428,-157.5633 117.4448,-157.1356 116.6701,-156.7093 115.9186,-156.2851 115.1901,-155.8633 114.4844,-155.4445 113.8015,-155.0289 113.1411,-154.6172 112.5032,-154.2097 111.8874,-153.8069 111.2938,-153.4092 110.7219,-153.017 110.1718,-152.6308 109.6431,-152.251 109.1357,-151.878 108.6493,-151.5123 108.1837,-151.1542 106.7828,-151.8357 103.1277,-154.3415 101.987,-155.4026 102.1532,-155.9659 102.319,-156.5514 102.484,-157.1592 102.6476,-157.7893 102.8095,-158.4417 102.9691,-159.1164 103.1261,-159.8136 103.2798,-160.5331 103.4299,-161.2751 103.5759,-162.0395 103.7172,-162.8263 103.8535,-163.6355 103.9843,-164.4671 104.1091,-165.321 104.2273,-166.1973 104.3386,-167.0958 104.4425,-168.0166 104.5385,-168.9596 104.6261,-169.9247 104.7048,-170.9118 104.7743,-171.9208 104.8339,-172.9517 104.8833,-174.0044 104.922,-175.0788 104.9494,-176.1747 104.9653,-177.2921 104.969,-178.4307 104.9601,-179.5906 104.9382,-180.7715 104.9028,-181.9732 104.8534,-183.1957 104.7896,-184.4388 104.3723,-185.1018 100.4196,-187.2756 99.6363,-187.2729 98.5523,-186.661 97.4935,-186.048 96.4596,-185.4343 95.4507,-184.8204 94.4664,-184.2067 93.5068,-183.5937 92.5717,-182.982 91.6609,-182.3718 90.7743,-181.7638 89.9118,-181.1583 89.0731,-180.5558 88.2582,-179.9567 87.4667,-179.3616 86.6987,-178.7707 85.9537,-178.1847 85.2318,-177.6038 84.5325,-177.0286 83.8559,-176.4594 83.2015,-175.8967 82.5693,-175.3409 81.9589,-174.7924 81.3702,-174.2517 80.8028,-173.719 80.2566,-173.1949 79.7313,-172.6797 79.2266,-172.1738 78.7423,-171.6776 78.2781,-171.1915 77.8336,-170.7159 77.4087,-170.2511 77.003,-169.7974 76.6163,-169.3554 75.1093,-169.7505 71.0356,-171.4951 69.7098,-172.3132 69.7629,-172.8982 69.8113,-173.5048 69.8545,-174.1331 69.8921,-174.783 69.9236,-175.4544 69.9485,-176.1473 69.9664,-176.8617 69.9769,-177.5974 69.9793,-178.3544 69.9734,-179.1326 69.9585,-179.9318 69.9343,-180.7521 69.9003,-181.5932 69.8561,-182.4551 69.8011,-183.3376 69.735,-184.2406 69.6572,-185.164 69.5674,-186.1075 69.465,-187.0711 69.3497,-188.0546 69.221,-189.0579 69.0783,-190.0806 68.9214,-191.1227 68.7497,-192.184 68.5629,-193.2642 68.3604,-194.3632 68.1419,-195.4807 67.9069,-196.6165 67.6551,-197.7704 67.3859,-198.9422 67.0989,-200.1315 66.7939,-201.3382 66.2553,-201.9071 61.9544,-203.268 61.1866,-203.1125 60.2429,-202.301 59.324,-201.4932 58.4298,-200.6896 57.5599,-199.8906 56.7143,-199.0967 55.8927,-198.3083 55.0949,-197.5259 54.3207,-196.7498 53.5698,-195.9804 52.8419,-195.2183 52.1369,-194.4638 51.4545,-193.7172 50.7944,-192.9791 50.1563,-192.2498 49.54,-191.5297 48.9453,-190.8191 48.3717,-190.1185 47.8191,-189.4283 47.2871,-188.7487 46.7754,-188.0803 46.2838,-187.4232 45.8118,-186.778 45.3593,-186.1449 44.9259,-185.5243 44.5112,-184.9165 44.1149,-184.3219 43.7366,-183.7408 43.3762,-183.1734 43.033,-182.6202 42.707,-182.0814 42.3976,-181.5574 42.1045,-181.0484 40.5494,-181.1419 36.2136,-182.0583 34.7537,-182.602 34.6917,-183.186 34.6208,-183.7905 34.5406,-184.4151 34.4507,-185.0598 34.3506,-185.7245 34.2399,-186.409 34.1181,-187.1131 33.9847,-187.8367 33.8395,-188.5797 33.6818,-189.3417 33.5113,-190.1227 33.3276,-190.9225 33.1302,-191.7408 32.9186,-192.5775 32.6925,-193.4323 32.4515,-194.3051 32.1951,-195.1955 31.9229,-196.1035 31.6345,-197.0286 31.3295,-197.9707 31.0075,-198.9295 30.6681,-199.9048 30.3109,-200.8962 29.9355,-201.9036 29.5415,-202.9266 29.1285,-203.965 28.6962,-205.0184 28.2442,-206.0866 27.772,-207.1691 27.2794,-208.2659 26.7659,-209.3764 26.2313,-210.5004 25.5921,-210.9533 21.1084,-211.449 20.3857,-211.1467 19.6184,-210.1666 18.8748,-209.1951 18.1544,-208.2325 17.4572,-207.2791 16.7827,-206.3355 16.1307,-205.402 15.5009,-204.4789 14.893,-203.5667 14.3066,-202.6657 13.7414,-201.7762 13.1971,-200.8986 12.6734,-200.0333 12.17,-199.1806 11.6865,-198.3408 11.2226,-197.5142 10.7778,-196.7013 10.352,-195.9023 9.9446,-195.1175 9.5554,-194.3472 9.184,-193.5918 8.83,-192.8515 8.493,-192.1266 8.1727,-191.4174 7.8686,-190.7241 7.5805,-190.0471 7.3078,-189.3866 7.0502,-188.7428 6.8073,-188.1161 6.5787,-187.5065 6.3641,-186.9145 6.1628,-186.3402 5.9747,-185.7838 4.4313,-185.5721 0,-185.625 -1.5379,-185.8734 -1.7127,-186.4342 -1.9002,-187.0132 -2.1007,-187.6102 -2.3147,-188.225 -2.5425,-188.8573 -2.7846,-189.5071 -3.0415,-190.1739 -3.3134,-190.8576 -3.6008,-191.5579 -3.9041,-192.2746 -4.2237,-193.0073 -4.5599,-193.7559 -4.9132,-194.52 -5.2839,-195.2993 -5.6724,-196.0936 -6.0791,-196.9026 -6.5043,-197.7259 -6.9484,-198.5632 -7.4117,-199.4143 -7.8946,-200.2788 -8.3975,-201.1564 -8.9206,-202.0467 -9.4644,-202.9494 -10.0291,-203.8642 -10.6152,-204.7907 -11.2228,-205.7286 -11.8523,-206.6774 -12.504,-207.6368 -13.1783,-208.6065 -13.8754,-209.586 -14.5957,-210.5751 -15.3393,-211.5732 -16.0546,-211.8927 -20.5489,-211.5041 -21.1987,-211.0666 -21.76,-209.9557 -22.2999,-208.8577 -22.8185,-207.7731 -23.3164,-206.7021 -23.7938,-205.645 -24.2512,-204.6022 -24.6888,-203.574 -25.1071,-202.5607 -25.5065,-201.5626 -25.8872,-200.5799 -26.2498,-199.613 -26.5946,-198.6622 -26.922,-197.7276 -27.2324,-196.8096 -27.5262,-195.9085 -27.8038,-195.0244 -28.0656,-194.1577 -28.312,-193.3085 -28.5434,-192.4771 -28.7604,-191.6637 -28.9631,-190.8685 -29.1522,-190.0918 -29.328,-189.3337 -29.491,-188.5945 -29.6415,-187.8743 -29.7801,-187.1733 -29.9072,-186.4916 -30.0231,-185.8295 -30.1284,-185.1871 -30.2234,-184.5646 -30.3087,-183.962 -30.3847,-183.3796 -31.8572,-182.8709 -36.2136,-182.0583 -37.7705,-182.0019 -38.0513,-182.5178 -38.3481,-183.049 -38.6613,-183.5955 -38.991,-184.1567 -39.3379,-184.7325 -39.7021,-185.3225 -40.0841,-185.9264 -40.4842,-186.5439 -40.9027,-187.1747 -41.34,-187.8184 -41.7964,-188.4747 -42.2722,-189.1433 -42.7678,-189.8238 -43.2834,-190.5158 -43.8194,-191.2191 -44.3761,-191.9332 -44.9537,-192.6577 -45.5526,-193.3923 -46.1731,-194.1367 -46.8154,-194.8904 -47.4798,-195.653 -48.1666,-196.4241 -48.876,-197.2034 -49.6084,-197.9904 -50.3639,-198.7848 -51.1428,-199.5861 -51.9453,-200.3939 -52.7717,-201.2077 -53.6222,-202.0272 -54.497,-202.8519 -55.3964,-203.6815 -56.3205,-204.5153 -57.0843,-204.6891 -61.4164,-203.4312 -61.9684,-202.8754 -62.3023,-201.6763 -62.6175,-200.4941 -62.9146,-199.3291 -63.1939,-198.1815 -63.456,-197.0517 -63.7011,-195.9397 -63.9297,-194.8459 -64.1423,-193.7704 -64.3393,-192.7135 -64.521,-191.6755 -64.688,-190.6564 -64.8407,-189.6566 -64.9795,-188.6761 -65.1048,-187.7152 -65.2171,-186.7741 -65.3169,-185.8528 -65.4046,-184.9517 -65.4806,-184.0707 -65.5454,-183.2101 -65.5995,-182.3701 -65.6432,-181.5506 -65.6771,-180.7519 -65.7017,-179.9741 -65.7173,-179.2173 -65.7244,-178.4815 -65.7236,-177.767 -65.7152,-177.0736 -65.6997,-176.4016 -65.6777,-175.751 -65.6495,-175.1219 -65.6156,-174.5143 -65.5765,-173.9282 -66.9214,-173.142 -71.0356,-171.4951 -72.5516,-171.1361 -72.9276,-171.5873 -73.3224,-172.0505 -73.7361,-172.5253 -74.169,-173.0114 -74.6215,-173.5085 -75.0939,-174.0161 -75.5864,-174.5339 -76.0992,-175.0614 -76.6328,-175.5985 -77.1872,-176.1445 -77.7629,-176.6992 -78.36,-177.2621 -78.9788,-177.8328 -79.6195,-178.411 -80.2824,-178.9961 -80.9677,-179.5879 -81.6756,-180.1858 -82.4063,-180.7895 -83.1601,-181.3985 -83.9371,-182.0124 -84.7375,-182.6307 -85.5615,-183.253 -86.4094,-183.879 -87.2812,-184.508 -88.1771,-185.1397 -89.0974,-185.7736 -90.0421,-186.4093 -91.0114,-187.0463 -92.0054,-187.6842 -93.0243,-188.3224 -94.0682,-188.9605 -95.1373,-189.598 -95.9203,-189.6195 -99.9238,-187.5406 -100.3568,-186.8877 -100.4502,-185.6466 -100.5288,-184.4256 -100.5929,-183.225 -100.643,-182.045 -100.6795,-180.8857 -100.703,-179.7473 -100.7139,-178.6299 -100.7126,-177.5336 -100.6995,-176.4586 -100.6753,-175.4051 -100.6403,-174.373 -100.595,-173.3626 -100.5398,-172.3739 -100.4753,-171.407 -100.4018,-170.462 -100.32,-169.539 -100.2301,-168.6381 -100.1328,-167.7592 -100.0285,-166.9025 -99.9176,-166.068 -99.8007,-165.2558 -99.6781,-164.4659 -99.5505,-163.6982 -99.4181,-162.9529 -99.2816,-162.2299 -99.1413,-161.5292 -98.9979,-160.8508 -98.8516,-160.1947 -98.703,-159.5609 -98.5526,-158.9494 -98.4008,-158.3601 -98.2481,-157.7929 -99.4139,-156.7594 -103.1277,-154.3415 -104.5445,-153.6937 -105.0014,-154.0628 -105.4789,-154.4401 -105.9773,-154.8251 -106.4968,-155.2174 -107.0375,-155.6166 -107.5998,-156.0223 -108.1839,-156.4341 -108.7898,-156.8515 -109.4178,-157.2741 -110.0682,-157.7014 -110.741,-158.1332 -111.4364,-158.5688 -112.1547,-159.0078 -112.8959,-159.4498 -113.6602,-159.8944 -114.4478,-160.3411 -115.2587,-160.7895 -116.0932,-161.239 -116.9513,-161.6892 -117.8331,-162.1397 -118.7388,-162.59 -119.6684,-163.0397 -120.622,-163.4881 -121.5998,-163.935 -122.6018,-164.3798 -123.628,-164.822 -124.6786,-165.2612 -125.7536,-165.6968 -126.8529,-166.1285 -127.9768,-166.5556 -129.1251,-166.9778 -130.298,-167.3946 -131.0702,-167.2628 -134.5912,-164.4429 -134.8884,-163.7181 -134.7379,-162.4826 -134.5768,-161.2697 -134.4054,-160.0797 -134.2244,-158.9126 -134.0341,-157.7684 -133.835,-156.6473 -133.6276,-155.5493 -133.4125,-154.4743 -133.19,-153.4225 -132.9607,-152.3939 -132.725,-151.3885 -132.4834,-150.4064 -132.2364,-149.4474 -131.9845,-148.5117 -131.7281,-147.5992 -131.4678,-146.7099 -131.2039,-145.8438 -130.937,-145.0008 -130.6675,-144.1809 -130.396,-143.3841 -130.1228,-142.6103 -129.8485,-141.8595 -129.5736,-141.1315 -129.2984,-140.4263 -129.0234,-139.7438 -128.7492,-139.0839 -128.4761,-138.4466 -128.2046,-137.8317 -127.9353,-137.239 -127.6684,-136.6686 -127.4046,-136.1202 -127.1442,-135.5937 -128.0859,-134.3527 -131.2567,-131.2567 -132.5199,-130.3449 -133.04,-130.6178 -133.5819,-130.8946 -134.1458,-131.175 -134.7319,-131.4584 -135.3401,-131.7445 -135.9708,-132.0327 -136.6239,-132.3226 -137.2996,-132.6138 -137.9981,-132.9057 -138.7193,-133.198 -139.4634,-133.4902 -140.2304,-133.7817 -141.0205,-134.0722 -141.8338,-134.3612 -142.6701,-134.6481 -143.5297,-134.9326 -144.4125,-135.2141 -145.3186,-135.4922 -146.2481,-135.7664 -147.2008,-136.0362 -148.177,-136.3011 -149.1764,-136.5608 -150.1993,-136.8146 -151.2455,-137.0621 -152.3149,-137.3029 -153.4077,-137.5364 -154.5238,-137.7621 -155.6631,-137.9797 -156.8256,-138.1886 -158.0111,-138.3883 -159.2198,-138.5784 -160.4514,-138.7583 -161.1831,-138.4784 -164.0863,-135.0257 -164.2364,-134.2569 -163.8478,-133.0744 -163.4531,-131.9163 -163.0529,-130.7826 -162.6476,-129.6733 -162.2377,-128.5882 -161.8238,-127.5275 -161.4062,-126.491 -160.9854,-125.4786 -160.5621,-124.4905 -160.1365,-123.5264 -159.7092,-122.5863 -159.2806,-121.6701 -158.8513,-120.7778 -158.4216,-119.9092 -157.9922,-119.0643 -157.5633,-118.2428 -157.1356,-117.4448 -156.7093,-116.6701 -156.2851,-115.9186 -155.8633,-115.1901 -155.4445,-114.4844 -155.0289,-113.8015 -154.6172,-113.1411 -154.2097,-112.5032 -153.8069,-111.8874 -153.4092,-111.2938 -153.017,-110.7219 -152.6308,-110.1718 -152.251,-109.6431 -151.878,-109.1357 -151.5123,-108.6493 -151.1542,-108.1837 -151.8357,-106.7828 -154.3415,-103.1277 -155.4026,-101.987 -155.9659,-102.1532 -156.5514,-102.319 -157.1592,-102.484 -157.7893,-102.6476 -158.4417,-102.8095 -159.1164,-102.9691 -159.8136,-103.1261 -160.5331,-103.2798 -161.2751,-103.4299 -162.0395,-103.5759 -162.8263,-103.7172 -163.6355,-103.8535 -164.4671,-103.9843 -165.321,-104.1091 -166.1973,-104.2273 -167.0958,-104.3386 -168.0166,-104.4425 -168.9596,-104.5385 -169.9247,-104.6261 -170.9118,-104.7048 -171.9208,-104.7743 -172.9517,-104.8339 -174.0044,-104.8833 -175.0788,-104.922 -176.1747,-104.9494 -177.2921,-104.9653 -178.4307,-104.969 -179.5906,-104.9601 -180.7715,-104.9382 -181.9732,-104.9028 -183.1957,-104.8534 -184.4388,-104.7896 -185.1018,-104.3723 -187.2756,-100.4196 -187.2729,-99.6363 -186.661,-98.5523 -186.048,-97.4935 -185.4343,-96.4596 -184.8204,-95.4507 -184.2067,-94.4664 -183.5937,-93.5068 -182.982,-92.5717 -182.3718,-91.6609 -181.7638,-90.7743 -181.1583,-89.9118 -180.5558,-89.0731 -179.9567,-88.2582 -179.3616,-87.4667 -178.7707,-86.6987 -178.1847,-85.9537 -177.6038,-85.2318 -177.0286,-84.5325 -176.4594,-83.8559 -175.8967,-83.2015 -175.3409,-82.5693 -174.7924,-81.9589 -174.2517,-81.3702 -173.719,-80.8028 -173.1949,-80.2566 -172.6797,-79.7313 -172.1738,-79.2266 -171.6776,-78.7423 -171.1915,-78.2781 -170.7159,-77.8336 -170.2511,-77.4087 -169.7974,-77.003 -169.3554,-76.6163 -169.7505,-75.1093 -171.4951,-71.0356 -172.3132,-69.7098 -172.8982,-69.7629 -173.5048,-69.8113 -174.1331,-69.8545 -174.783,-69.8921 -175.4544,-69.9236 -176.1473,-69.9485 -176.8617,-69.9664 -177.5974,-69.9769 -178.3544,-69.9793 -179.1326,-69.9734 -179.9318,-69.9585 -180.7521,-69.9343 -181.5932,-69.9003 -182.4551,-69.8561 -183.3376,-69.8011 -184.2406,-69.735 -185.164,-69.6572 -186.1075,-69.5674 -187.0711,-69.465 -188.0546,-69.3497 -189.0579,-69.221 -190.0806,-69.0783 -191.1227,-68.9214 -192.184,-68.7497 -193.2642,-68.5629 -194.3632,-68.3604 -195.4807,-68.1419 -196.6165,-67.9069 -197.7704,-67.6551 -198.9422,-67.3859 -200.1315,-67.0989 -201.3382,-66.7939 -201.9071,-66.2553 -203.268,-61.9544 -203.1125,-61.1866 -202.301,-60.2429 -201.4932,-59.324 -200.6896,-58.4298 -199.8906,-57.5599 -199.0967,-56.7143 -198.3083,-55.8927 -197.5259,-55.0949 -196.7498,-54.3207 -195.9804,-53.5698 -195.2183,-52.8419 -194.4638,-52.1369 -193.7172,-51.4545 -192.9791,-50.7944 -192.2498,-50.1563 -191.5297,-49.54 -190.8191,-48.9453 -190.1185,-48.3717 -189.4283,-47.8191 -188.7487,-47.2871 -188.0803,-46.7754 -187.4232,-46.2838 -186.778,-45.8118 -186.1449,-45.3593 -185.5243,-44.9259 -184.9165,-44.5112 -184.3219,-44.1149 -183.7408,-43.7366 -183.1734,-43.3762 -182.6202,-43.033 -182.0814,-42.707 -181.5574,-42.3976 -181.0484,-42.1045 -181.1419,-40.5494 -182.0583,-36.2136 -182.602,-34.7537 -183.186,-34.6917 -183.7905,-34.6208 -184.4151,-34.5406 -185.0598,-34.4507 -185.7245,-34.3506 -186.409,-34.2399 -187.1131,-34.1181 -187.8367,-33.9847 -188.5797,-33.8395 -189.3417,-33.6818 -190.1227,-33.5113 -190.9225,-33.3276 -191.7408,-33.1302 -192.5775,-32.9186 -193.4323,-32.6925 -194.3051,-32.4515 -195.1955,-32.1951 -196.1035,-31.9229 -197.0286,-31.6345 -197.9707,-31.3295 -198.9295,-31.0075 -199.9048,-30.6681 -200.8962,-30.3109 -201.9036,-29.9355 -202.9266,-29.5415 -203.965,-29.1285 -205.0184,-28.6962 -206.0866,-28.2442 -207.1691,-27.772 -208.2659,-27.2794 -209.3764,-26.7659 -210.5004,-26.2313 -210.9533,-25.5921 -211.449,-21.1084 -211.1467,-20.3857 -210.1666,-19.6184 -209.1951,-18.8748 -208.2325,-18.1544 -207.2791,-17.4572 -206.3355,-16.7827 -205.402,-16.1307 -204.4789,-15.5009 -203.5667,-14.893 -202.6657,-14.3066 -201.7762,-13.7414 -200.8986,-13.1971 -200.0333,-12.6734 -199.1806,-12.17 -198.3408,-11.6865 -197.5142,-11.2226 -196.7013,-10.7778 -195.9023,-10.352 -195.1175,-9.9446 -194.3472,-9.5554 -193.5918,-9.184 -192.8515,-8.83 -192.1266,-8.493 -191.4174,-8.1727 -190.7241,-7.8686 -190.0471,-7.5805 -189.3866,-7.3078 -188.7428,-7.0502 -188.1161,-6.8073 -187.5065,-6.5787 -186.9145,-6.3641 -186.3402,-6.1628 -185.7838,-5.9747 -185.5721,-4.4313 -185.625,0 -185.8734,1.5379 -186.4342,1.7127 -187.0132,1.9002 -187.6102,2.1007 -188.225,2.3147 -188.8573,2.5425 -189.5071,2.7846 -190.1739,3.0415 -190.8576,3.3134 -191.5579,3.6008 -192.2746,3.9041 -193.0073,4.2237 -193.7559,4.5599 -194.52,4.9132 -195.2993,5.2839 -196.0936,5.6724 -196.9026,6.0791 -197.7259,6.5043 -198.5632,6.9484 -199.4143,7.4117 -200.2788,7.8946 -201.1564,8.3975 -202.0467,8.9206 -202.9494,9.4644 -203.8642,10.0291 -204.7907,10.6152 -205.7286,11.2228 -206.6774,11.8523 -207.6368,12.504 -208.6065,13.1783 -209.586,13.8754 -210.5751,14.5957 -211.5732,15.3393 -211.8927,16.0546 -211.5041,20.5489 -211.0666,21.1987 -209.9557,21.76 -208.8577,22.2999 -207.7731,22.8185 -206.7021,23.3164 -205.645,23.7938 -204.6022,24.2512 -203.574,24.6888 -202.5607,25.1071 -201.5626,25.5065 -200.5799,25.8872 -199.613,26.2498 -198.6622,26.5946 -197.7276,26.922 -196.8096,27.2324 -195.9085,27.5262 -195.0244,27.8038 -194.1577,28.0656 -193.3085,28.312 -192.4771,28.5434 -191.6637,28.7604 -190.8685,28.9631 -190.0918,29.1522 -189.3337,29.328 -188.5945,29.491 -187.8743,29.6415 -187.1733,29.7801 -186.4916,29.9072 -185.8295,30.0231 -185.1871,30.1284 -184.5646,30.2234 -183.962,30.3087 -183.3796,30.3847 -182.8709,31.8572 -182.0583,36.2136 -182.0019,37.7705 -182.5178,38.0513 -183.049,38.3481 -183.5955,38.6613 -184.1567,38.991 -184.7325,39.3379 -185.3225,39.7021 -185.9264,40.0841 -186.5439,40.4842 -187.1747,40.9027 -187.8184,41.34 -188.4747,41.7964 -189.1433,42.2722 -189.8238,42.7678 -190.5158,43.2834 -191.2191,43.8194 -191.9332,44.3761 -192.6577,44.9537 -193.3923,45.5526 -194.1367,46.1731 -194.8904,46.8154 -195.653,47.4798 -196.4241,48.1666 -197.2034,48.876 -197.9904,49.6084 -198.7848,50.3639 -199.5861,51.1428 -200.3939,51.9453 -201.2077,52.7717 -202.0272,53.6222 -202.8519,54.497 -203.6815,55.3964 -204.5153,56.3205 -204.6891,57.0843 -203.4312,61.4164 -202.8754,61.9684 -201.6763,62.3023 -200.4941,62.6175 -199.3291,62.9146 -198.1815,63.1939 -197.0517,63.456 -195.9397,63.7011 -194.8459,63.9297 -193.7704,64.1423 -192.7135,64.3393 -191.6755,64.521 -190.6564,64.688 -189.6566,64.8407 -188.6761,64.9795 -187.7152,65.1048 -186.7741,65.2171 -185.8528,65.3169 -184.9517,65.4046 -184.0707,65.4806 -183.2101,65.5454 -182.3701,65.5995 -181.5506,65.6432 -180.7519,65.6771 -179.9741,65.7017 -179.2173,65.7173 -178.4815,65.7244 -177.767,65.7236 -177.0736,65.7152 -176.4016,65.6997 -175.751,65.6777 -175.1219,65.6495 -174.5143,65.6156 -173.9282,65.5765 -173.142,66.9214 -171.4951,71.0356 -171.1361,72.5516 -171.5873,72.9276 -172.0505,73.3224 -172.5253,73.7361 -173.0114,74.169 -173.5085,74.6215 -174.0161,75.0939 -174.5339,75.5864 -175.0614,76.0992 -175.5985,76.6328 -176.1445,77.1872 -176.6992,77.7629 -177.2621,78.36 -177.8328,78.9788 -178.411,79.6195 -178.9961,80.2824 -179.5879,80.9677 -180.1858,81.6756 -180.7895,82.4063 -181.3985,83.1601 -182.0124,83.9371 -182.6307,84.7375 -183.253,85.5615 -183.879,86.4094 -184.508,87.2812 -185.1397,88.1771 -185.7736,89.0974 -186.4093,90.0421 -187.0463,91.0114 -187.6842,92.0054 -188.3224,93.0243 -188.9605,94.0682 -189.598,95.1373 -189.6195,95.9203 -187.5406,99.9238 -186.8877,100.3568 -185.6466,100.4502 -184.4256,100.5288 -183.225,100.5929 -182.045,100.643 -180.8857,100.6795 -179.7473,100.703 -178.6299,100.7139 -177.5336,100.7126 -176.4586,100.6995 -175.4051,100.6753 -174.373,100.6403 -173.3626,100.595 -172.3739,100.5398 -171.407,100.4753 -170.462,100.4018 -169.539,100.32 -168.6381,100.2301 -167.7592,100.1328 -166.9025,100.0285 -166.068,99.9176 -165.2558,99.8007 -164.4659,99.6781 -163.6982,99.5505 -162.9529,99.4181 -162.2299,99.2816 -161.5292,99.1413 -160.8508,98.9979 -160.1947,98.8516 -159.5609,98.703 -158.9494,98.5526 -158.3601,98.4008 -157.7929,98.2481 -156.7594,99.4139 -154.3415,103.1277 -153.6937,104.5445 -154.0628,105.0014 -154.4401,105.4789 -154.8251,105.9773 -155.2174,106.4968 -155.6166,107.0375 -156.0223,107.5998 -156.4341,108.1839 -156.8515,108.7898 -157.2741,109.4178 -157.7014,110.0682 -158.1332,110.741 -158.5688,111.4364 -159.0078,112.1547 -159.4498,112.8959 -159.8944,113.6602 -160.3411,114.4478 -160.7895,115.2587 -161.239,116.0932 -161.6892,116.9513 -162.1397,117.8331 -162.59,118.7388 -163.0397,119.6684 -163.4881,120.622 -163.935,121.5998 -164.3798,122.6018 -164.822,123.628 -165.2612,124.6786 -165.6968,125.7536 -166.1285,126.8529 -166.5556,127.9768 -166.9778,129.1251 -167.3946,130.298 -167.2628,131.0702 -164.4429,134.5912 -163.7181,134.8884 -162.4826,134.7379 -161.2697,134.5768 -160.0797,134.4054 -158.9126,134.2244 -157.7684,134.0341 -156.6473,133.835 -155.5493,133.6276 -154.4743,133.4125 -153.4225,133.19 -152.3939,132.9607 -151.3885,132.725 -150.4064,132.4834 -149.4474,132.2364 -148.5117,131.9845 -147.5992,131.7281 -146.7099,131.4678 -145.8438,131.2039 -145.0008,130.937 -144.1809,130.6675 -143.3841,130.396 -142.6103,130.1228 -141.8595,129.8485 -141.1315,129.5736 -140.4263,129.2984 -139.7438,129.0234 -139.0839,128.7492 -138.4466,128.4761 -137.8317,128.2046 -137.239,127.9353 -136.6686,127.6684 -136.1202,127.4046 -135.5937,127.1442 -134.3527,128.0859 -131.2567,131.2567 -130.3449,132.5199 -130.6178,133.04 -130.8946,133.5819 -131.175,134.1458 -131.4584,134.7319 -131.7445,135.3401 -132.0327,135.9708 -132.3226,136.6239 -132.6138,137.2996 -132.9057,137.9981 -133.198,138.7193 -133.4902,139.4634 -133.7817,140.2304 -134.0722,141.0205 -134.3612,141.8338 -134.6481,142.6701 -134.9326,143.5297 -135.2141,144.4125 -135.4922,145.3186 -135.7664,146.2481 -136.0362,147.2008 -136.3011,148.177 -136.5608,149.1764 -136.8146,150.1993 -137.0621,151.2455 -137.3029,152.3149 -137.5364,153.4077 -137.7621,154.5238 -137.9797,155.6631 -138.1886,156.8256 -138.3883,158.0111 -138.5784,159.2198 -138.7583,160.4514 -138.4784,161.1831 -135.0257,164.0863 -134.2569,164.2364 -133.0744,163.8478 -131.9163,163.4531 -130.7826,163.0529 -129.6733,162.6476 -128.5882,162.2377 -127.5275,161.8238 -126.491,161.4062 -125.4786,160.9854 -124.4905,160.5621 -123.5264,160.1365 -122.5863,159.7092 -121.6701,159.2806 -120.7778,158.8513 -119.9092,158.4216 -119.0643,157.9922 -118.2428,157.5633 -117.4448,157.1356 -116.6701,156.7093 -115.9186,156.2851 -115.1901,155.8633 -114.4844,155.4445 -113.8015,155.0289 -113.1411,154.6172 -112.5032,154.2097 -111.8874,153.8069 -111.2938,153.4092 -110.7219,153.017 -110.1718,152.6308 -109.6431,152.251 -109.1357,151.878 -108.6493,151.5123 -108.1837,151.1542 -106.7828,151.8357 -103.1277,154.3415 -101.987,155.4026 -102.1532,155.9659 -102.319,156.5514 -102.484,157.1592 -102.6476,157.7893 -102.8095,158.4417 -102.9691,159.1164 -103.1261,159.8136 -103.2798,160.5331 -103.4299,161.2751 -103.5759,162.0395 -103.7172,162.8263 -103.8535,163.6355 -103.9843,164.4671 -104.1091,165.321 -104.2273,166.1973 -104.3386,167.0958 -104.4425,168.0166 -104.5385,168.9596 -104.6261,169.9247 -104.7048,170.9118 -104.7743,171.9208 -104.8339,172.9517 -104.8833,174.0044 -104.922,175.0788 -104.9494,176.1747 -104.9653,177.2921 -104.969,178.4307 -104.9601,179.5906 -104.9382,180.7715 -104.9028,181.9732 -104.8534,183.1957 -104.7896,184.4388 -104.3723,185.1018 -100.4196,187.2756 -99.6363,187.2729 -98.5523,186.661 -97.4935,186.048 -96.4596,185.4343 -95.4507,184.8204 -94.4664,184.2067 -93.5068,183.5937 -92.5717,182.982 -91.6609,182.3718 -90.7743,181.7638 -89.9118,181.1583 -89.0731,180.5558 -88.2582,179.9567 -87.4667,179.3616 -86.6987,178.7707 -85.9537,178.1847 -85.2318,177.6038 -84.5325,177.0286 -83.8559,176.4594 -83.2015,175.8967 -82.5693,175.3409 -81.9589,174.7924 -81.3702,174.2517 -80.8028,173.719 -80.2566,173.1949 -79.7313,172.6797 -79.2266,172.1738 -78.7423,171.6776 -78.2781,171.1915 -77.8336,170.7159 -77.4087,170.2511 -77.003,169.7974 -76.6163,169.3554 -75.1093,169.7505 -71.0356,171.4951 -69.7098,172.3132 -69.7629,172.8982 -69.8113,173.5048 -69.8545,174.1331 -69.8921,174.783 -69.9236,175.4544 -69.9485,176.1473 -69.9664,176.8617 -69.9769,177.5974 -69.9793,178.3544 -69.9734,179.1326 -69.9585,179.9318 -69.9343,180.7521 -69.9003,181.5932 -69.8561,182.4551 -69.8011,183.3376 -69.735,184.2406 -69.6572,185.164 -69.5674,186.1075 -69.465,187.0711 -69.3497,188.0546 -69.221,189.0579 -69.0783,190.0806 -68.9214,191.1227 -68.7497,192.184 -68.5629,193.2642 -68.3604,194.3632 -68.1419,195.4807 -67.9069,196.6165 -67.6551,197.7704 -67.3859,198.9422 -67.0989,200.1315 -66.7939,201.3382 -66.2553,201.9071 -61.9544,203.268 -61.1866,203.1125 -60.2429,202.301 -59.324,201.4932 -58.4298,200.6896 -57.5599,199.8906 -56.7143,199.0967 -55.8927,198.3083 -55.0949,197.5259 -54.3207,196.7498 -53.5698,195.9804 -52.8419,195.2183 -52.1369,194.4638 -51.4545,193.7172 -50.7944,192.9791 -50.1563,192.2498 -49.54,191.5297 -48.9453,190.8191 -48.3717,190.1185 -47.8191,189.4283 -47.2871,188.7487 -46.7754,188.0803 -46.2838,187.4232 -45.8118,186.778 -45.3593,186.1449 -44.9259,185.5243 -44.5112,184.9165 -44.1149,184.3219 -43.7366,183.7408 -43.3762,183.1734 -43.033,182.6202 -42.707,182.0814 -42.3976,181.5574 -42.1045,181.0484 -40.5494,181.1419 -36.2136,182.0583 -34.7537,182.602 -34.6917,183.186 -34.6208,183.7905 -34.5406,184.4151 -34.4507,185.0598 -34.3506,185.7245 -34.2399,186.409 -34.1181,187.1131 -33.9847,187.8367 -33.8395,188.5797 -33.6818,189.3417 -33.5113,190.1227 -33.3276,190.9225 -33.1302,191.7408 -32.9186,192.5775 -32.6925,193.4323 -32.4515,194.3051 -32.1951,195.1955 -31.9229,196.1035 -31.6345,197.0286 -31.3295,197.9707 -31.0075,198.9295 -30.6681,199.9048 -30.3109,200.8962 -29.9355,201.9036 -29.5415,202.9266 -29.1285,203.965 -28.6962,205.0184 -28.2442,206.0866 -27.772,207.1691 -27.2794,208.2659 -26.7659,209.3764 -26.2313,210.5004 -25.5921,210.9533 -21.1084,211.449 -20.3857,211.1467 -19.6184,210.1666 -18.8748,209.1951 -18.1544,208.2325 -17.4572,207.2791 -16.7827,206.3355 -16.1307,205.402 -15.5009,204.4789 -14.893,203.5667 -14.3066,202.6657 -13.7414,201.7762 -13.1971,200.8986 -12.6734,200.0333 -12.17,199.1806 -11.6865,198.3408 -11.2226,197.5142 -10.7778,196.7013 -10.352,195.9023 -9.9446,195.1175 -9.5554,194.3472 -9.184,193.5918 -8.83,192.8515 -8.493,192.1266 -8.1727,191.4174 -7.8686,190.7241 -7.5805,190.0471 -7.3078,189.3866 -7.0502,188.7428 -6.8073,188.1161 -6.5787,187.5065 -6.3641,186.9145 -6.1628,186.3402 -5.9747,185.7838 -4.4313,185.5721 0,185.625 1.5379,185.8734 1.7127,186.4342 1.9002,187.0132 2.1007,187.6102 2.3147,188.225 2.5425,188.8573 2.7846,189.5071 3.0415,190.1739 3.3134,190.8576 3.6008,191.5579 3.9041,192.2746 4.2237,193.0073 4.5599,193.7559 4.9132,194.52 5.2839,195.2993 5.6724,196.0936 6.0791,196.9026 6.5043,197.7259 6.9484,198.5632 7.4117,199.4143 7.8946,200.2788 8.3975,201.1564 8.9206,202.0467 9.4644,202.9494 10.0291,203.8642 10.6152,204.7907 11.2228,205.7286 11.8523,206.6774 12.504,207.6368 13.1783,208.6065 13.8754,209.586 14.5957,210.5751 15.3393,211.5732 16.0546,211.8927 20.5489,211.5041 21.1987,211.0666 21.76,209.9557 22.2999,208.8577 22.8185,207.7731 23.3164,206.7021 23.7938,205.645 24.2512,204.6022 24.6888,203.574 25.1071,202.5607 25.5065,201.5626 25.8872,200.5799 26.2498,199.613 26.5946,198.6622 26.922,197.7276 27.2324,196.8096 27.5262,195.9085 27.8038,195.0244 28.0656,194.1577 28.312,193.3085 28.5434,192.4771 28.7604,191.6637 28.9631,190.8685 29.1522,190.0918 29.328,189.3337 29.491,188.5945 29.6415,187.8743 29.7801,187.1733 29.9072,186.4916 30.0231,185.8295 30.1284,185.1871 30.2234,184.5646 30.3087,183.962 30.3847,183.3796 31.8572,182.8709 36.2136,182.0583 37.7705,182.0019 38.0513,182.5178 38.3481,183.049 38.6613,183.5955 38.991,184.1567 39.3379,184.7325 39.7021,185.3225 40.0841,185.9264 40.4842,186.5439 40.9027,187.1747 41.34,187.8184 41.7964,188.4747 42.2722,189.1433 42.7678,189.8238 43.2834,190.5158 43.8194,191.2191 44.3761,191.9332 44.9537,192.6577 45.5526,193.3923 46.1731,194.1367 46.8154,194.8904 47.4798,195.653 48.1666,196.4241 48.876,197.2034 49.6084,197.9904 50.3639,198.7848 51.1428,199.5861 51.9453,200.3939 52.7717,201.2077 53.6222,202.0272 54.497,202.8519 55.3964,203.6815 56.3205,204.5153 57.0843,204.6891 61.4164,203.4312 61.9684,202.8754 62.3023,201.6763 62.6175,200.4941 62.9146,199.3291 63.1939,198.1815 63.456,197.0517 63.7011,195.9397 63.9297,194.8459 64.1423,193.7704 64.3393,192.7135 64.521,191.6755 64.688,190.6564 64.8407,189.6566 64.9795,188.6761 65.1048,187.7152 65.2171,186.7741 65.3169,185.8528 65.4046,184.9517 65.4806,184.0707 65.5454,183.2101 65.5995,182.3701 65.6432,181.5506 65.6771,180.7519 65.7017,179.9741 65.7173,179.2173 65.7244,178.4815 65.7236,177.767 65.7152,177.0736 65.6997,176.4016 65.6777,175.751 65.6495,175.1219 65.6156,174.5143 65.5765,173.9282 66.9214,173.142 71.0356,171.4951 72.5516,171.1361 72.9276,171.5873 73.3224,172.0505 73.7361,172.5253 74.169,173.0114 74.6215,173.5085 75.0939,174.0161 75.5864,174.5339 76.0992,175.0614 76.6328,175.5985 77.1872,176.1445 77.7629,176.6992 78.36,177.2621 78.9788,177.8328 79.6195,178.411 80.2824,178.9961 80.9677,179.5879 81.6756,180.1858 82.4063,180.7895 83.1601,181.3985 83.9371,182.0124 84.7375,182.6307 85.5615,183.253 86.4094,183.879 87.2812,184.508 88.1771,185.1397 89.0974,185.7736 90.0421,186.4093 91.0114,187.0463 92.0054,187.6842 93.0243,188.3224 94.0682,188.9605 95.1373,189.598 95.9203,189.6195 99.9238,187.5406 100.3568,186.8877 100.4502,185.6466 100.5288,184.4256 100.5929,183.225 100.643,182.045 100.6795,180.8857 100.703,179.7473 100.7139,178.6299 100.7126,177.5336 100.6995,176.4586 100.6753,175.4051 100.6403,174.373 100.595,173.3626 100.5398,172.3739 100.4753,171.407 100.4018,170.462 100.32,169.539 100.2301,168.6381 100.1328,167.7592 100.0285,166.9025 99.9176,166.068 99.8007,165.2558 99.6781,164.4659 99.5505,163.6982 99.4181,162.9529 99.2816,162.2299 99.1413,161.5292 98.9979,160.8508 98.8516,160.1947 98.703,159.5609 98.5526,158.9494 98.4008,158.3601 98.2481,157.7929 99.4139,156.7594 103.1277,154.3415 104.5445,153.6937 105.0014,154.0628 105.4789,154.4401 105.9773,154.8251 106.4968,155.2174 107.0375,155.6166 107.5998,156.0223 108.1839,156.4341 108.7898,156.8515 109.4178,157.2741 110.0682,157.7014 110.741,158.1332 111.4364,158.5688 112.1547,159.0078 112.8959,159.4498 113.6602,159.8944 114.4478,160.3411 115.2587,160.7895 116.0932,161.239 116.9513,161.6892 117.8331,162.1397 118.7388,162.59 119.6684,163.0397 120.622,163.4881 121.5998,163.935 122.6018,164.3798 123.628,164.822 124.6786,165.2612 125.7536,165.6968 126.8529,166.1285 127.9768,166.5556 129.1251,166.9778 130.298,167.3946 131.0702,167.2628 134.5912,164.4429 134.8884,163.7181 134.7379,162.4826 134.5768,161.2697 134.4054,160.0797 134.2244,158.9126 134.0341,157.7684 133.835,156.6473 133.6276,155.5493 133.4125,154.4743 133.19,153.4225 132.9607,152.3939 132.725,151.3885 132.4834,150.4064 132.2364,149.4474 131.9845,148.5117 131.7281,147.5992 131.4678,146.7099 131.2039,145.8438 130.937,145.0008 130.6675,144.1809 130.396,143.3841 130.1228,142.6103 129.8485,141.8595 129.5736,141.1315 129.2984,140.4263 129.0234,139.7438 128.7492,139.0839 128.4761,138.4466 128.2046,137.8317 127.9353,137.239 127.6684,136.6686 127.4046,136.1202 127.1442,135.5937 128.0859,134.3527 131.2567,131.2567 132.5199,130.3449 133.04,130.6178 133.5819,130.8946 134.1458,131.175 134.7319,131.4584 135.3401,131.7445 135.9708,132.0327 136.6239,132.3226 137.2996,132.6138 137.9981,132.9057 138.7193,133.198 139.4634,133.4902 140.2304,133.7817 141.0205,134.0722 141.8338,134.3612 142.6701,134.6481 143.5297,134.9326 144.4125,135.2141 145.3186,135.4922 146.2481,135.7664 147.2008,136.0362 148.177,136.3011 149.1764,136.5608 150.1993,136.8146 151.2455,137.0621 152.3149,137.3029 153.4077,137.5364 154.5238,137.7621 155.6631,137.9797 156.8256,138.1886 158.0111,138.3883 159.2198,138.5784 160.4514,138.7583 161.1831,138.4784 164.0863,135.0257 164.2364,134.2569 163.8478,133.0744 163.4531,131.9163 163.0529,130.7826 162.6476,129.6733 162.2377,128.5882 161.8238,127.5275 161.4062,126.491 160.9854,125.4786 160.5621,124.4905 160.1365,123.5264 159.7092,122.5863 159.2806,121.6701 158.8513,120.7778 158.4216,119.9092 157.9922,119.0643 157.5633,118.2428 157.1356,117.4448 156.7093,116.6701 156.2851,115.9186 155.8633,115.1901 155.4445,114.4844 155.0289,113.8015 154.6172,113.1411 154.2097,112.5032 153.8069,111.8874 153.4092,111.2938 153.017,110.7219 152.6308,110.1718 152.251,109.6431 151.878,109.1357 151.5123,108.6493 151.1542,108.1837 151.8357,106.7828 154.3415,103.1277 155.4026,101.987 155.9659,102.1532 156.5514,102.319 157.1592,102.484 157.7893,102.6476 158.4417,102.8095 159.1164,102.9691 159.8136,103.1261 160.5331,103.2798 161.2751,103.4299 162.0395,103.5759 162.8263,103.7172 163.6355,103.8535 164.4671,103.9843 165.321,104.1091 166.1973,104.2273 167.0958,104.3386 168.0166,104.4425 168.9596,104.5385 169.9247,104.6261 170.9118,104.7048 171.9208,104.7743 172.9517,104.8339 174.0044,104.8833 175.0788,104.922 176.1747,104.9494 177.2921,104.9653 178.4307,104.969 179.5906,104.9601 180.7715,104.9382 181.9732,104.9028 183.1957,104.8534 184.4388,104.7896 185.1018,104.3723 187.2756,100.4196 187.2729,99.6363 186.661,98.5523 186.048,97.4935 185.4343,96.4596 184.8204,95.4507 184.2067,94.4664 183.5937,93.5068 182.982,92.5717 182.3718,91.6609 181.7638,90.7743 181.1583,89.9118 180.5558,89.0731 179.9567,88.2582 179.3616,87.4667 178.7707,86.6987 178.1847,85.9537 177.6038,85.2318 177.0286,84.5325 176.4594,83.8559 175.8967,83.2015 175.3409,82.5693 174.7924,81.9589 174.2517,81.3702 173.719,80.8028 173.1949,80.2566 172.6797,79.7313 172.1738,79.2266 171.6776,78.7423 171.1915,78.2781 170.7159,77.8336 170.2511,77.4087 169.7974,77.003 169.3554,76.6163 169.7505,75.1093 171.4951,71.0356 172.3132,69.7098 172.8982,69.7629 173.5048,69.8113 174.1331,69.8545 174.783,69.8921 175.4544,69.9236 176.1473,69.9485 176.8617,69.9664 177.5974,69.9769 178.3544,69.9793 179.1326,69.9734 179.9318,69.9585 180.7521,69.9343 181.5932,69.9003 182.4551,69.8561 183.3376,69.8011 184.2406,69.735 185.164,69.6572 186.1075,69.5674 187.0711,69.465 188.0546,69.3497 189.0579,69.221 190.0806,69.0783 191.1227,68.9214 192.184,68.7497 193.2642,68.5629 194.3632,68.3604 195.4807,68.1419 196.6165,67.9069 197.7704,67.6551 198.9422,67.3859 200.1315,67.0989 201.3382,66.7939 201.9071,66.2553 203.268,61.9544 203.1125,61.1866 202.301,60.2429 201.4932,59.324 200.6896,58.4298 199.8906,57.5599 199.0967,56.7143 198.3083,55.8927 197.5259,55.0949 196.7498,54.3207 195.9804,53.5698 195.2183,52.8419 194.4638,52.1369 193.7172,51.4545 192.9791,50.7944 192.2498,50.1563 191.5297,49.54 190.8191,48.9453 190.1185,48.3717 189.4283,47.8191 188.7487,47.2871 188.0803,46.7754 187.4232,46.2838 186.778,45.8118 186.1449,45.3593 185.5243,44.9259 184.9165,44.5112 184.3219,44.1149 183.7408,43.7366 183.1734,43.3762 182.6202,43.033 182.0814,42.707 181.5574,42.3976 181.0484,42.1045 181.1419,40.5494 182.0583,36.2136 182.602,34.7537 183.186,34.6917 183.7905,34.6208 184.4151,34.5406 185.0598,34.4507 185.7245,34.3506 186.409,34.2399 187.1131,34.1181 187.8367,33.9847 188.5797,33.8395 189.3417,33.6818 190.1227,33.5113 190.9225,33.3276 191.7408,33.1302 192.5775,32.9186 193.4323,32.6925 194.3051,32.4515 195.1955,32.1951 196.1035,31.9229 197.0286,31.6345 197.9707,31.3295 198.9295,31.0075 199.9048,30.6681 200.8962,30.3109 201.9036,29.9355 202.9266,29.5415 203.965,29.1285 205.0184,28.6962 206.0866,28.2442 207.1691,27.772 208.2659,27.2794 209.3764,26.7659 210.5004,26.2313 210.9533,25.5921 211.449,21.1084 211.1467,20.3857 210.1666,19.6184 209.1951,18.8748 208.2325,18.1544 207.2791,17.4572 206.3355,16.7827 205.402,16.1307 204.4789,15.5009 203.5667,14.893 202.6657,14.3066 201.7762,13.7414 200.8986,13.1971 200.0333,12.6734 199.1806,12.17 198.3408,11.6865 197.5142,11.2226 196.7013,10.7778 195.9023,10.352 195.1175,9.9446 194.3472,9.5554 193.5918,9.184 192.8515,8.83 192.1266,8.493 191.4174,8.1727 190.7241,7.8686 190.0471,7.5805 189.3866,7.3078 188.7428,7.0502 188.1161,6.8073 187.5065,6.5787 186.9145,6.3641 186.3402,6.1628 185.7838,5.9747 185.5721,4.4313 "/><g class="guides"><polyline fill="none" stroke="#444" stroke-width="0.5" stroke-miterlimit="10" points="10,0 -10,0"/><polyline fill="none" stroke="#444" stroke-width="0.5" stroke-miterlimit="10" points="0,10 0,-10"/></g><circle fill="#c00" class="firstmarker" stroke="none" stroke-miterlimit="10" cx="199.2568" cy="-17.2261" r="4.9063"/><g class="geartext"><g class="text"><polyline fill="none" stroke="#444" stroke-width="0.5" stroke-linecap="square" stroke-miterlimit="1"  points="138.45 -99.72 137.57 -100.93 136.68 -102.14 135.78 -103.33 134.86 -104.52 "/><polyline fill="none" stroke="#444" stroke-width="0.5" stroke-linecap="square" stroke-miterlimit="1"  points="134.28 -100.34 139.08 -103.93 "/><polyline fill="none" stroke="#444" stroke-width="0.5" stroke-linecap="square" stroke-miterlimit="1"  points="140.89 -101.47 138.78 -101.82 136.68 -102.14 134.58 -102.43 132.49 -102.69 "/><polyline fill="none" stroke="#444" stroke-width="0.5" stroke-linecap="square" stroke-miterlimit="1"  points="136.02 -97.96 136.36 -100.04 136.68 -102.14 136.97 -104.24 137.23 -106.36 "/><polyline fill="none" stroke="#444" stroke-width="0.5" stroke-linecap="square" stroke-miterlimit="1"  points="142.65 -98.98 144.75 -98.57 137.31 -93.5 "/><polyline fill="none" stroke="#444" stroke-width="0.5" stroke-linecap="square" stroke-miterlimit="1"  points="138.13 -92.29 137.31 -93.5 136.49 -94.7 "/><polyline fill="none" stroke="#444" stroke-width="0.5" stroke-linecap="square" stroke-miterlimit="1"  points="154.33 -82.77 146.4 -78.52 147.67 -80.89 148.92 -83.28 150.14 -85.7 151.32 -88.15 143.55 -83.62 "/><polyline fill="none" stroke="#444" stroke-width="0.5" stroke-linecap="square" stroke-miterlimit="1"  points="155.76 -73.25 155.11 -74.61 154.45 -75.97 153.78 -77.33 153.09 -78.68 "/><polyline fill="none" stroke="#444" stroke-width="0.5" stroke-linecap="square" stroke-miterlimit="1"  points="153.05 -71.97 152.41 -73.31 151.76 -74.65 151.1 -75.98 150.42 -77.31 "/><polyline fill="none" stroke="#444" stroke-width="0.5" stroke-linecap="square" stroke-miterlimit="1"  points="158.39 -71.11 160.39 -70.32 161 -68.91 161.6 -67.49 160.8 -65.5 159.41 -64.93 157.45 -65.75 156.63 -63.8 155.24 -63.23 153.29 -64.02 152.73 -65.36 152.14 -66.7 152.92 -68.65 "/><polyline fill="none" stroke="#444" stroke-width="0.5" stroke-linecap="square" stroke-miterlimit="1"  points="156.86 -67.13 157.45 -65.75 "/><polyline fill="none" stroke="#444" stroke-width="0.5" stroke-linecap="square" stroke-miterlimit="1"  points="156.94 -54.47 156.46 -55.85 155.96 -57.22 155.45 -58.59 154.93 -59.95 157.73 -61.04 159.66 -60.18 160.18 -58.77 160.69 -57.36 162.61 -56.44 164.03 -56.93 164.93 -58.87 164.41 -60.32 163.87 -61.76 161.92 -62.66 "/><polyline fill="none" stroke="#444" stroke-width="0.5" stroke-linecap="square" stroke-miterlimit="1"  points="164.33 -45.93 164.73 -44.48 165.11 -43.03 165.48 -41.58 167.3 -40.47 168.76 -40.83 169.85 -42.67 169.46 -44.17 169.07 -45.65 168.66 -47.14 159.99 -44.72 "/><polyline fill="none" stroke="#444" stroke-width="0.5" stroke-linecap="square" stroke-miterlimit="1"  points="162.13 -36.22 167.98 -37.53 "/><polyline fill="none" stroke="#444" stroke-width="0.5" stroke-linecap="square" stroke-miterlimit="1"  points="169.45 -37.85 170.91 -38.18 "/><polyline fill="none" stroke="#444" stroke-width="0.5" stroke-linecap="square" stroke-miterlimit="1"  points="165.29 -27.87 163.56 -29.06 164.78 -30.77 172.15 -32.15 "/><polyline fill="none" stroke="#444" stroke-width="0.5" stroke-linecap="square" stroke-miterlimit="1"  points="169.73 -28.62 169.47 -30.11 169.2 -31.6 168.92 -33.08 168.62 -34.57 "/><polyline fill="none" stroke="#444" stroke-width="0.5" stroke-linecap="square" stroke-miterlimit="1"  points="165.04 -18.94 164.87 -20.39 164.68 -21.84 164.48 -23.29 165.76 -24.96 168.72 -25.41 170.43 -24.13 170.63 -22.63 170.82 -21.13 171 -19.63 "/><polyline fill="none" stroke="#444" stroke-width="0.5" stroke-linecap="square" stroke-miterlimit="1"  points="168.33 -16.33 169.97 -14.98 171.59 -13.6 171.7 -12.1 170.3 -10.49 165.81 -10.22 "/><polyline fill="none" stroke="#444" stroke-width="0.5" stroke-linecap="square" stroke-miterlimit="1"  points="165.35 -16.04 174.31 -16.91 "/><polyline fill="none" stroke="#444" stroke-width="0.5" stroke-linecap="square" stroke-miterlimit="1"  points="166.13 0 166.12 1.46 166.1 2.92 166.07 4.38 167.52 5.89 173.52 6.1 175.06 4.62 175.1 3.08 175.12 1.54 175.13 0 "/><polyline fill="none" stroke="#444" stroke-width="0.5" stroke-linecap="square" stroke-miterlimit="1"  points="175.12 1.54 166.12 1.46 "/><polyline fill="none" stroke="#444" stroke-width="0.5" stroke-linecap="square" stroke-miterlimit="1"  points="171.46 15.11 171.59 13.6 171.7 12.1 171.8 10.59 171.89 9.07 "/><polyline fill="none" stroke="#444" stroke-width="0.5" stroke-linecap="square" stroke-miterlimit="1"  points="168.47 14.85 168.6 13.37 168.71 11.88 168.8 10.4 168.89 8.92 "/><polyline fill="none" stroke="#444" stroke-width="0.5" stroke-linecap="square" stroke-miterlimit="1"  points="169.51 19.46 168.18 17.81 166.69 17.65 165.04 18.94 164.87 20.39 164.68 21.84 165.97 23.5 167.45 23.71 169.14 22.43 169.33 20.95 169.51 19.46 171.17 18.12 172.66 18.28 173.98 19.97 173.8 21.5 173.6 23.03 171.91 24.34 170.43 24.13 169.14 22.43 "/><polyline fill="none" stroke="#444" stroke-width="0.5" stroke-linecap="square" stroke-miterlimit="1"  points="167.15 34.27 166.84 35.73 166.52 37.2 166.19 38.66 167.3 40.47 168.76 40.83 170.57 39.68 170.91 38.18 171.24 36.68 171.56 35.17 162.74 33.36 "/><polyline fill="none" stroke="#444" stroke-width="0.5" stroke-linecap="square" stroke-miterlimit="1"  points="164.93 49.24 165.36 47.79 165.77 46.33 166.17 44.87 166.56 43.41 "/><polyline fill="none" stroke="#444" stroke-width="0.5" stroke-linecap="square" stroke-miterlimit="1"  points="162.06 48.38 162.48 46.95 162.88 45.52 163.28 44.09 163.66 42.65 "/><polyline fill="none" stroke="#444" stroke-width="0.5" stroke-linecap="square" stroke-miterlimit="1"  points="159.28 56.86 159.78 55.45 160.26 54.05 160.73 52.64 161.18 51.22 162.63 53.26 164.05 55.33 165.44 57.42 156.94 54.47 "/><polyline fill="none" stroke="#444" stroke-width="0.5" stroke-linecap="square" stroke-miterlimit="1"  points="156.86 67.13 156.27 68.51 155.66 69.88 155.04 71.25 155.76 73.25 157.12 73.88 159.13 73.13 159.76 71.73 160.39 70.32 161 68.91 152.73 65.36 "/><polyline fill="none" stroke="#444" stroke-width="0.5" stroke-linecap="square" stroke-miterlimit="1"  points="149.07 73.33 151.76 74.65 153.78 77.33 155.76 80.05 152.39 80.02 149.04 79.94 146.4 78.52 "/><polyline fill="none" stroke="#444" stroke-width="0.5" stroke-linecap="square" stroke-miterlimit="1"  points="151.76 74.65 151.1 75.98 150.42 77.31 149.74 78.63 149.04 79.94 "/><polyline fill="none" stroke="#444" stroke-width="0.5" stroke-linecap="square" stroke-miterlimit="1"  points="147.18 89.24 147.96 87.94 148.73 86.64 149.49 85.33 150.23 84.01 "/><polyline fill="none" stroke="#444" stroke-width="0.5" stroke-linecap="square" stroke-miterlimit="1"  points="144.62 87.69 145.38 86.41 146.14 85.13 146.88 83.84 147.61 82.55 "/><polyline fill="none" stroke="#444" stroke-width="0.5" stroke-linecap="square" stroke-miterlimit="1"  points="137.31 93.5 138.13 92.29 138.94 91.07 139.73 89.85 140.52 88.61 143.05 90.21 143.52 92.28 142.7 93.54 141.87 94.79 142.27 96.88 143.51 97.72 145.61 97.29 146.46 96 147.3 94.71 146.86 92.61 "/><polyline fill="none" stroke="#444" stroke-width="0.5" stroke-linecap="square" stroke-miterlimit="1"  points="143 101.09 142.1 102.35 141.2 103.59 140.28 104.83 139.36 106.06 136.68 102.14 133.94 98.27 "/></g></g><g class="guides gearguides" opacity="0.2"><circle class="pitch" fill="none" stroke="#f00" stroke-miterlimit="10" cx="0" cy="0" r="200"/><circle class="outer" fill="none" stroke="#ccc" stroke-miterlimit="10" stroke-dasharray="2,2" cx="0" cy="0" r="212.5"/><circle class="base" fill="none" stroke="#00f" stroke-miterlimit="10" stroke-dasharray="2,2" cx="0" cy="0" r="178.2"/></g></svg>